<?xml version="1.0" encoding="utf-8"?>
<!-- Generator: Adobe Illustrator 20.0.0, SVG Export Plug-In . SVG Version: 6.00 Build 0)  -->
<svg version="1.1" id="Layer_1" xmlns="http://www.w3.org/2000/svg" xmlns:xlink="http://www.w3.org/1999/xlink" x="0px" y="0px"
	 viewBox="0 0 199.7573853 199.7573853" style="enable-background:new 0 0 199.7573853 199.7573853;" xml:space="preserve">
<style type="text/css">
	.st0{fill:#3AAA35;stroke:#D60B52;stroke-width:0.1991292;stroke-miterlimit:10;}
	.st1{fill:#F6E0D1;}
	.st2{opacity:0.3;}
	.st3{fill:#231F20;}
	.st4{opacity:0.12;fill:#231F20;}
	.st5{fill:#F9F7EA;}
	.st6{fill:#F1F2F2;}
	.st7{fill:#36A9E1;}
	.st8{opacity:0.2;fill:#231F20;}
	.st9{fill:#CA9E67;}
	.st10{fill:none;}
	.st11{opacity:0.57;fill:#F9E311;}
</style>
<circle class="st0" cx="100.4306641" cy="99.8835068" r="97.406929"/>
<g>
	<g id="_x35__13_">
		<path class="st1" d="M56.3107376,114.6380615v27.9762421c0,0,0.7525406,10.2038422,15.8770752,16.2544098
			c15.1180573,6.0464172,40.8215942,6.4237823,53.6733093,0.3773651
			c12.0949478-5.6924133,18.1456223-10.2059174,18.5207748-24.9508972c0.3795471-14.7407074,0-77.2755432,0-77.2755432
			s-3.9868011-19.8716393-43.9492111-19.8716393c-39.9667053,0-44.1219482,18.6326141-44.1219482,32.6206779
			C56.3107376,83.7525864,56.3107376,114.6380615,56.3107376,114.6380615z"/>
		<ellipse class="st1" cx="57.5440407" cy="108.0709534" rx="7.3063889" ry="8.9469929"/>
		<ellipse class="st1" cx="144.2230682" cy="108.0709534" rx="7.3053517" ry="8.9469929"/>
	</g>
	<g id="_x36__1_" class="st2">
		<path class="st3" d="M76.7274857,127.0521317c0.6695938,15.1960831,11.8485184,27.2842941,25.5432892,27.2842941
			c13.6934128,0,24.8732376-12.0882111,25.5414734-27.2842941H76.7274857z"/>
	</g>
	<g id="_x35__2_">
		<path class="st4" d="M122.1998825,127.5723648l0.0267792,3.2104721c0.0181732,1.9066772-1.5057831,3.4537811-3.420639,3.4692078
			c-1.6914444,0.0145111-3.1033173-1.2120819-3.4078979-2.818222c-0.2601318,1.6106567-1.6633606,2.8545227-3.3634567,2.8672638
			c-1.6996231,0.0154419-3.1173553-1.1893921-3.4206314-2.8137054c-0.2596741,1.6297455-1.6605759,2.8518219-3.3629913,2.8672638
			c-1.8984375,0.0126801-3.4528503-1.5071716-3.4655457-3.4192963c0.0126953,1.9121246-1.528038,3.4537811-3.4260712,3.469223
			c-1.6942291,0.0108795-3.1201477-1.2102661-3.4038544-2.8209229c-0.2809982,1.6142731-1.6578827,2.8563385-3.3634567,2.8717804
			c-1.6156693,0.0108643-2.9575882-1.0813599-3.358902-2.5585632c-0.3663101,1.4844513-1.690094,2.5957947-3.3016663,2.6057434
			c-1.9011993,0.0163574-3.4569473-1.5080566-3.473732-3.4147339l-0.0168228-3.2095413L122.1998825,127.5723648z"/>
		<path class="st5" d="M122.1931,126.9359207l0.024971,3.2113571c0.0167694,1.8948669-1.5053711,3.4510345-3.4220428,3.4692078
			c-1.6882782,0.0099945-3.1028519-1.2148132-3.4065475-2.8264008c-0.2582779,1.6125031-1.6646652,2.8600159-3.3643417,2.8763275
			c-1.6941833,0.0072479-3.1160126-1.2057037-3.4206314-2.8272858c-0.2546463,1.6306458-1.6510468,2.8635864-3.3534622,2.8735809
			c-1.9039307,0.0154419-3.4528503-1.5162354-3.469635-3.4165344c0.0167847,1.9002991-1.5280304,3.4519653-3.4260635,3.4683228
			c-1.6996765,0.0126953-3.116066-1.2093811-3.406601-2.8237c-0.2741699,1.6161346-1.6564865,2.8600159-3.3661575,2.8708801
			c-1.6147308,0.0154419-2.9480591-1.0804291-3.3493729-2.5521698c-0.3663101,1.4763031-1.6996231,2.5957794-3.3057632,2.6030273
			c-1.9025879,0.0154419-3.4615021-1.5153503-3.4751205-3.4165344l-0.020874-3.2068481L122.1931,126.9359207z"/>
	</g>
	<g id="_x31_8_2_">
		<path class="st6" d="M76.7274857,94.8271103c0-3.188797,2.5808182-5.7712402,5.7775726-5.7712402
			c3.1852264,0,5.7712402,2.5824432,5.7712402,5.7712402c0,3.1888046-2.5860138,5.7736359-5.7712402,5.7736359
			C79.3083038,100.6007462,76.7274857,98.0159149,76.7274857,94.8271103z"/>
		<path class="st6" d="M113.4891281,94.8271103c0-3.188797,2.5812225-5.7712402,5.777977-5.7712402
			c3.1856308,0,5.7704239,2.5824432,5.7704239,5.7712402c0,3.1888046-2.5847931,5.7736359-5.7704239,5.7736359
			C116.0703506,100.6007462,113.4891281,98.0159149,113.4891281,94.8271103z"/>
		<circle class="st7" cx="83.3341599" cy="94.9131088" r="3.2894759"/>
		<circle class="st7" cx="118.2690582" cy="94.972374" r="3.2897599"/>
	</g>
	<g id="_x33__2_">
		<path class="st8" d="M109.5681381,119.0606155c0,4.7930222-3.885376,8.677948-8.6777725,8.677948l0,0
			c-4.7910538,0-8.6766586-3.8849258-8.6766586-8.677948c0,0-0.6972351-35.0047455,6.8827591-35.103508
			c7.58004-0.1005554,4.4882355-0.1014023,4.4882355-0.1014023
			C108.3764267,83.8557053,109.5681381,119.0606155,109.5681381,119.0606155z"/>
		<path class="st1" d="M108.6672516,114.5953293c0,4.2965775-3.4826813,7.7786331-7.7779617,7.7786331l0,0
			c-4.2952805,0-7.7777786-3.4820557-7.7777786-7.7786331c0,0-0.6240311-31.3794022,6.1698151-31.4667969
			c6.7947311-0.0908813,4.0239182-0.0908813,4.0239182-0.0908813
			C107.6001205,83.0376511,108.6672516,114.5953293,108.6672516,114.5953293z"/>
	</g>
	<g>
		<g>
			<path class="st9" d="M113.7525482,72.0906754c0.2406235,1.89254,1.3629761,3.5656204,3.1624527,4.7087326
				c1.8401566,1.1683578,4.1588287,1.6469193,6.5280838,1.3453674l0.1711426,1.3389816
				c-2.6825943,0.3386307-5.3190918-0.2085342-7.4224396-1.5466919c-2.1439743-1.3624725-3.4870758-3.3787155-3.776886-5.6766357
				L113.7525482,72.0906754z"/>
		</g>
		<g>
			<path class="st9" d="M92.0785065,78.3470306l1.1467056,0.7114639c-1.2211914,1.9683533-3.2812119,3.2423859-5.7971497,3.5899811
				c-2.4703979,0.3386307-5.0956192-0.2600403-7.3926163-1.6856995l0.7101288-1.1449203
				c2.0310822,1.2595673,4.3380585,1.7904663,6.4987335,1.4934387
				C89.3562393,81.0205612,91.0717621,79.9677353,92.0785065,78.3470306z"/>
		</g>
	</g>
</g>
<path class="st10" d="M56.3107376,114.6380615v27.9762421c0,0,0.7525406,10.2038422,15.8770752,16.2544098
	c15.1180573,6.0464172,40.8215942,6.4237823,53.6733093,0.3773651
	c12.0949478-5.6924133,18.1456223-10.2059174,18.5207748-24.9508972c0.3795471-14.7407074,0-77.2755432,0-77.2755432
	s-3.9868011-19.8716393-43.9492111-19.8716393c-39.9667053,0-44.1219482,18.6326141-44.1219482,32.6206779
	C56.3107376,83.7525864,56.3107376,114.6380615,56.3107376,114.6380615z"/>
<path class="st11" d="M101.6593475,57.4959946c14.8155518,0,27.2156372-5.9541016,30.4450684-13.9450073
	c-6.552063-3.5460205-16.5232544-6.4030151-31.6717529-6.4030151c-13.5551758,0-22.9815674,2.1472778-29.532959,5.5258179
	C73.5469818,51.1024399,86.3065643,57.4959946,101.6593475,57.4959946z"/>
<path class="st11" d="M61.3815117,61.8085556c-0.3382568-3.1416626-0.7893677-6.1766357-1.3317261-9.0596313
	c-3.1015625,5.4668579-3.7390747,11.5914307-3.7390747,17.0197144c0,7.0993652,0,18.5507812,0,28.1096191
	C61.0232353,94.3221664,63.2723808,79.3696518,61.3815117,61.8085556z"/>
<path class="st11" d="M140.6082001,50.2534409c-0.8822632,3.795166-1.6081543,7.916748-2.1233521,12.2407227
	c-2.2885742,19.2078247,0.4194946,35.3453979,6.059021,36.8343506c-0.031311-20.7741699-0.1619873-42.3088989-0.1619873-42.3088989
	S143.7576141,53.9649277,140.6082001,50.2534409z"/>
</svg>
