<?xml version="1.0" encoding="utf-8"?>
<!-- Generator: Adobe Illustrator 20.0.0, SVG Export Plug-In . SVG Version: 6.00 Build 0)  -->
<svg version="1.1" id="Layer_1" xmlns="http://www.w3.org/2000/svg" xmlns:xlink="http://www.w3.org/1999/xlink" x="0px" y="0px"
	 viewBox="0 0 199.7573853 199.7573853" style="enable-background:new 0 0 199.7573853 199.7573853;" xml:space="preserve">
<style type="text/css">
	.st0{fill:#BE1622;}
	.st1{fill:#5E5043;}
	.st2{fill:#3C3C3B;}
	.st3{fill:#F6E0D1;}
	.st4{fill:#FFFFFF;}
	.st5{fill:#736759;}
	.st6{opacity:0.2;fill:#231F20;}
	.st7{fill:#F1F2F2;}
	.st8{fill:#432918;}
</style>
<circle class="st0" cx="99.8786926" cy="99.7197037" r="97.406929"/>
<ellipse class="st1" cx="100.1842804" cy="92.9012299" rx="25.5902882" ry="69.5245972"/>
<ellipse class="st2" cx="100.1842804" cy="54.7091675" rx="6.8203816" ry="18.2614346"/>
<path class="st3" d="M92.4382706,175.9304047c1.6291351,0.1585846,3.2744827,0.2666779,4.915863,0.3218842
	c0.8093872,0.006958,1.6300735-0.0023499,2.473259-0.0414429c44.3813934-2.113266,39.2611389-53.3888168,39.2611389-53.3888168
	h0.835968c0.0081635-21.144455-0.1522522-46.8764267-0.1522522-46.8764267S136.147171,46.941246,99.8048935,46.941246
	c-36.3413124,0-40.1237984,30.9383163-40.1237984,45.2484665c0,14.3054352,0,34.0311584,0,34.0311584v3.70224
	C60.4578285,140.8782196,65.0752335,172.3683777,92.4382706,175.9304047z"/>
<path class="st3" d="M67.4504166,119.4968872c0,5.0567017-2.9802017,9.1545563-6.6430473,9.1545563
	c-3.6710129,0-6.6439934-4.0978546-6.6439934-9.1545563c0-5.0544662,2.9729805-9.1499557,6.6439934-9.1499557
	C64.4702148,110.3469315,67.4504166,114.442421,67.4504166,119.4968872z"/>
<ellipse class="st3" cx="139.6281586" cy="119.4980316" rx="6.6430068" ry="9.1522541"/>
<path class="st4" d="M88.7019272,139.6236725h23.0307236c0,0,0.4670792,12.101181-11.514061,12.2463379
	C88.2348404,152.0104065,88.7019272,139.6236725,88.7019272,139.6236725z"/>
<path class="st5" d="M139.8486938,68.741951c-1.1226501-14.7272949-13.9759827-26.3546066-29.6585236-26.3546066H89.4151917
	c-15.530304,0-28.2773285,11.3880196-29.6183853,25.9057388c-0.0760956,0.8338013-0.1157112,1.6876144-0.1157112,2.5413284
	v43.525383c0.4039268,0.8178635,0.6525383,1.2467117,0.6525383,1.2467117l3.9227295-4.7614517l-0.2596207-19.8038177
	c0,0-0.1907539-7.6539001,3.2779694-10.7816696c3.4750366-3.1397095,7.4087296-4.0094528,7.4087296-4.0094528
	s-5.1810379-11.0408783,0.1912918-14.675312c4.4792938-3.0280838,11.9119339,0.0179749,20.139946,1.0013962
	c0.1809387,0.0119476,0.9835663,0.1475792,1.4980774,0.1555443c1.1519012,0.1096878,1.5265808,0.115715,2.6947098,0.0977402
	c0.5874252-0.0100098,2.5205994-0.2094727,2.5205994-0.2094727c9.1604614-0.9195862,17.7366638-4.6597252,22.7143555-1.2925682
	c5.3727493,3.6344337,0.2043076,14.6654015,0.2043076,14.6654015s3.9300842,0.8796539,7.4013672,4.0094604
	c3.4734192,3.1376648,3.2732697,10.7836075,3.2732697,10.7836075l-0.2585297,19.8117828l3.930069,4.7614517
	c0,0,0.3731842-0.6403656,0.9319-1.8431625v-42.681572C139.9248047,70.128273,139.8945923,69.4401169,139.8486938,68.741951z"/>
<path class="st6" d="M109.2569122,116.355217c-0.7636566,0-1.4822311,0.1801071-2.1142731,0.4927521l-1.1792145-12.7419739
	c0-3.5825043-2.3567505-6.4879913-5.2646408-6.4879913c-2.9081421,0-5.2651749,2.9054871-5.2651749,6.4879913l-1.0786819,12.2298965
	c-0.3461151-0.079361-0.7059631-0.1262894-1.077858-0.1262894c-2.5032196,0-3.4530945,2.0317612-3.4530945,4.3809738
	s2.0288467,4.2540131,4.5309525,4.2540131c0.6737518,0,1.3113785-0.1414795,1.8854599-0.3892517
	c0.9316711,1.8281631,2.5768661,3.0483475,4.4583969,3.0483475c2.0347519,0,3.7967148-1.4244537,4.6732101-3.5072784
	c0.7566605,0.5300293,1.6908417,0.8481827,2.7057037,0.8481827c2.5037613,0,4.5312042-1.9048004,4.5312042-4.2540131
	S111.7590179,116.355217,109.2569122,116.355217z"/>
<path class="st3" d="M108.7886963,114.7154312c-0.7118607,0-1.3814087,0.1663208-1.9694824,0.4596329l-1.1792145-11.8744583
	c0-3.3395767-2.1960297-6.0456009-4.9059143-6.0456009c-2.7101669,0-4.9056168,2.7060242-4.9056168,6.0456009l-1.0786819,11.3872299
	c-0.3228836-0.0738525-0.6583633-0.1166458-1.0059052-0.1166458c-2.3312531,0-3.143631,1.9006348-3.143631,4.0890732
	c0,2.1898117,1.8910599,3.9648285,4.223175,3.9648285c0.6278152,0,1.2209396-0.1331787,1.7557907-0.3637009
	c0.8681259,1.704628,2.4021454,2.8412857,4.1548691,2.8412857c1.8961105,0,3.5387802-1.3278198,4.3547974-3.2677765
	c0.7045517,0.4934464,1.5754852,0.7901917,2.5222626,0.7901917c2.3309937,0,4.2215118-1.7750168,4.2215118-3.9648285
	C111.8326569,116.4718246,111.1205368,114.7154312,108.7886963,114.7154312z"/>
<path class="st7" d="M76.947319,97.1087341c0-3.188797,2.4422455-5.7712402,5.4673538-5.7712402
	c3.0141983,0,5.4613571,2.5824432,5.4613571,5.7712402s-2.4471588,5.7736359-5.4613571,5.7736359
	C79.3895645,102.88237,76.947319,100.2975311,76.947319,97.1087341z"/>
<path class="st7" d="M111.7350922,97.1087341c0-3.188797,2.4426346-5.7712402,5.4677353-5.7712402
	c3.0145874,0,5.4605942,2.5824432,5.4605942,5.7712402s-2.4460068,5.7736359-5.4605942,5.7736359
	C114.1777267,102.88237,111.7350922,100.2975311,111.7350922,97.1087341z"/>
<ellipse class="st8" cx="83.1992645" cy="97.1947327" rx="3.1136098" ry="3.2886746"/>
<ellipse class="st8" cx="116.2583694" cy="97.2539902" rx="3.1137829" ry="3.2890599"/>
<path class="st5" d="M104.3619156,126.9616776h-8.2893295c-9.0466003,0-16.4483032,7.4017715-16.4483032,16.4483719v15.4102173
	c0,9.0466003,7.4017029,16.4483032,16.4483032,16.4483032h8.2893295c9.0466003,0,16.4483795-7.4017029,16.4483795-16.4483032
	v-15.4102173C120.8102951,134.3634491,113.4085159,126.9616776,104.3619156,126.9616776z M117.3521118,157.5263672
	c0,7.5273895-6.1587982,13.6861877-13.6861877,13.6861877h-6.8973465c-7.5273895,0-13.6861877-6.1587982-13.6861877-13.6861877
	v-12.822403c0-7.5274658,6.1587982-13.6861877,13.6861877-13.6861877h6.8973465
	c7.5273895,0,13.6861877,6.1587219,13.6861877,13.6861877V157.5263672z"/>
<path class="st5" d="M92.4382706,175.9304047c1.6291351,0.1585846,3.2744827,0.2666779,4.915863,0.3218842
	c0.8093872,0.006958,1.6293335-0.0245819,2.473259-0.0414429c47.1838684-0.942276,39.2611389-61.4031448,39.2611389-61.4031448
	c-9.0348053,82.4124069-87.8963165,52.626564-78.4057922,0.1247787c0.1241608-0.7997055-1.1469688-0.2983475-1.2172318,0.3422623
	C56.6587601,140.8648682,65.6987381,172.4495392,92.4382706,175.9304047z"/>
<path class="st5" d="M101.2731476,197.1265717"/>
<path class="st5" d="M102.7558136,174.8578033h-7.2670212c-4.5766602,0-8.3212051-3.7445374-8.3212051-8.3211975v-1.4137878
	c0-4.5766602,3.744545-8.3211975,8.3212051-8.3211975h7.2670212c4.5766602,0,8.3211975,3.7445374,8.3211975,8.3211975v1.4137878
	C111.0770111,171.113266,107.3324738,174.8578033,102.7558136,174.8578033z"/>
<path class="st5" d="M71.4350204,162.425827c5.7451553-1.1877899,10.07267-5.6242065,10.07267-5.6242065
	s1.4922409,11.9722595,5.2228622,13.0914459c3.7306137,1.1191864,19.3245926,0.5222778,19.6230469,0.4476776
	c0.2984467-0.0746155,5.5959244,1.7906952,9.0280914-2.0891571c3.4321671-3.879837,4.6259613-11.1172333,4.6259613-11.1172333
	s3.5067825,7.2883148,6.491272,6.6286469c2.9844894-0.6596527-19.4717712,10.6248627-19.4717712,10.6248627l-25.7433014-3.674057
	L71.4350204,162.425827z"/>
</svg>
