<?xml version="1.0" encoding="utf-8"?>
<!-- Generator: Adobe Illustrator 20.0.0, SVG Export Plug-In . SVG Version: 6.00 Build 0)  -->
<svg version="1.1" id="Layer_1" xmlns="http://www.w3.org/2000/svg" xmlns:xlink="http://www.w3.org/1999/xlink" x="0px" y="0px"
	 viewBox="0 0 199.7573853 199.7573853" style="enable-background:new 0 0 199.7573853 199.7573853;" xml:space="preserve">
<style type="text/css">
	.st0{fill:#4D7F9B;}
	.st1{fill:#F6E0D1;}
	.st2{opacity:0.2;fill:#404042;}
	.st3{fill:#404042;}
	.st4{opacity:0.35;}
	.st5{clip-path:url(#SVGID_2_);}
	.st6{clip-path:url(#SVGID_4_);}
	.st7{clip-path:url(#SVGID_6_);}
	.st8{clip-path:url(#SVGID_8_);}
	.st9{clip-path:url(#SVGID_10_);}
	.st10{clip-path:url(#SVGID_12_);}
	.st11{clip-path:url(#SVGID_14_);}
	.st12{clip-path:url(#SVGID_16_);}
	.st13{clip-path:url(#SVGID_18_);}
	.st14{clip-path:url(#SVGID_20_);}
	.st15{clip-path:url(#SVGID_22_);}
	.st16{clip-path:url(#SVGID_24_);}
	.st17{clip-path:url(#SVGID_26_);}
	.st18{clip-path:url(#SVGID_28_);}
	.st19{clip-path:url(#SVGID_30_);}
	.st20{clip-path:url(#SVGID_32_);}
	.st21{clip-path:url(#SVGID_34_);}
	.st22{clip-path:url(#SVGID_36_);}
	.st23{clip-path:url(#SVGID_38_);}
	.st24{clip-path:url(#SVGID_40_);}
	.st25{clip-path:url(#SVGID_42_);}
	.st26{clip-path:url(#SVGID_44_);}
	.st27{clip-path:url(#SVGID_46_);}
	.st28{clip-path:url(#SVGID_48_);}
	.st29{clip-path:url(#SVGID_50_);}
	.st30{clip-path:url(#SVGID_52_);}
	.st31{clip-path:url(#SVGID_54_);}
	.st32{clip-path:url(#SVGID_56_);}
	.st33{clip-path:url(#SVGID_58_);}
	.st34{fill:#595A5C;}
	.st35{fill:#F1F2F2;}
	.st36{fill:#736759;}
	.st37{opacity:0.2;fill:#EDEDED;}
	.st38{opacity:0.2;fill:#231F20;}
	.st39{opacity:0.2;}
	.st40{fill:#231F20;}
	.st41{opacity:0.55;fill:#DADADA;}
</style>
<circle class="st0" cx="99.8786926" cy="99.8786926" r="97.406929"/>
<g>
	<g id="_x34__1_">
		<path class="st1" d="M93.2063446,174.8013458c1.8583832,0.1607971,3.7352676,0.2703857,5.6076202,0.3263855
			c0.9232864,0.0070343,1.8594589-0.0023956,2.8213043-0.0420227c50.6268005-2.142746,44.786026-54.1335831,44.786026-54.1335831
			h0.953598c0.0093079-21.4394073-0.1736755-47.5303268-0.1736755-47.5303268s-4.1352081-29.4089584-45.5916138-29.4089584
			c-41.4553146,0-45.7700768,31.3698959-45.7700768,45.8796616c0,14.5049973,0,34.5058823,0,34.5058823v3.7538986
			C56.7255669,139.2602081,61.9927406,171.1896362,93.2063446,174.8013458z"/>
		<path class="st1" d="M64.7021637,117.5806046c0,5.127243-3.3995781,9.2822495-7.5778694,9.2822495
			c-4.187603,0-7.5789413-4.1550064-7.5789413-9.2822495c0-5.1249695,3.3913383-9.2775955,7.5789413-9.2775955
			C61.3025856,108.303009,64.7021637,112.4556351,64.7021637,117.5806046z"/>
		<ellipse class="st1" cx="147.03685" cy="117.5817719" rx="7.5778193" ry="9.2799244"/>
	</g>
	<g id="_x31_1_9_">
		<path class="st2" d="M61.7134781,92.3312912c0,0,0.4151802-16.91745,3.2112656-19.6181259
			c2.7929382-2.7032928,6.04142-6.3248444,6.1027908-7.0050125c0.0580597-0.6856918,0-1.249649,0-1.249649
			s11.467186,12.7094498,32.1806183,16.3138809c20.7101135,3.6045837,38.1734085-3.7518387,38.1734085-3.7518387
			s2.0514069-21.7490387-37.6581573-21.9871292c-39.7145309-0.2380905-44.8479843,14.4776459-44.163063,24.086998
			C60.2451363,88.7296143,61.7134781,92.3312912,61.7134781,92.3312912z"/>
		<path class="st3" d="M61.7134781,118.6371231V83.4418716c0,0-0.7511253-9.870079,2.9980545-12.4969025
			c3.7524796-2.6353836,6.3740616-5.9225082,6.3740616-5.9225082s17.2517319,12.4967575,38.2526398,13.4858246
			c21.0009079,0.9889221,27.0003128-3.9474182,27.0003128-3.9474182s3.371048,10.5245667,2.6249237,20.0629654
			c-0.7495117,9.5413055-0.0953064,22.6644058-0.0953064,22.6644058s1.7928619-4.845665,5.5470123-5.5201797
			c2.5747681-0.4590607,5.1447296,0.9918213,5.1447296,0.9918213s-2.3503113-9.2521362-0.4732361-18.7906876
			c1.875412-9.541153,4.1206818-13.4885788,4.8766022-18.4221649c0.7479858-4.9335861,1.6106415-10.408493,0.0097656-9.5101089
			c-1.5991821,0.9068069-6.9733429,0.9889221-6.9733429,0.9889221s6.3772125-4.1428528,10.499588-10.7229004
			c4.1239471-6.5771484,0.211731-15.9511642,0.211731-15.9511642s-4.6877136,1.3147888-7.1237488,1.3147888
			c-2.4407806,0-7.1251831-1.3147888-7.1251831-1.3147888s1.875412-1.972332,2.6217346-4.9335861
			c0.7542725-2.9613991,0.7542725-4.7692013,0.7542725-4.7692013s-11.0617676-0.8219261-23.6274414-3.2900257
			c-12.5655136-2.4653416-32.2532349-1.4820766-32.2532349-1.4820766s-0.0322189-0.8246822,1.2519836-2.4625854
			c1.2420654-1.5755157,3.8105469-3.601675,3.8105469-3.601675s-20.4307404,3.598917-28.4944611,10.1760654
			c-8.0572739,6.5828075-5.8750229,14.8035145-5.8750229,14.8035145s-12.3119392,2.4682426-16.2518311,13.1542931
			c-3.9332771,10.6917076,3.7508278,31.7437477,4.8815689,36.3514671
			c1.1178398,4.6048126,3.1806641,17.4332428,3.1806641,17.4332428s2.4407845,0.6546402,4.3129272,2.3011017
			C59.6508217,115.678627,61.7134781,118.6371231,61.7134781,118.6371231z"/>
	</g>
	<g class="st4">
		<g>
			<defs>
				<path id="SVGID_1_" d="M93.2063446,174.8013458c1.8583832,0.1607971,3.7352676,0.2703857,5.6076202,0.3263855
					c0.9232864,0.0070343,1.8594589-0.0023956,2.8213043-0.0420227c50.6268005-2.142746,44.786026-54.1335831,44.786026-54.1335831
					l-90.5817719,3.4462585v3.7538986C56.7255669,139.2602081,61.9927406,171.1896362,93.2063446,174.8013458z"/>
			</defs>
			<clipPath id="SVGID_2_">
				<use xlink:href="#SVGID_1_"  style="overflow:visible;"/>
			</clipPath>
			<g class="st5">
				<g>
					<defs>
						<rect id="SVGID_3_" x="134.8020935" y="119.9133835" width="15.0251255" height="15.0248642"/>
					</defs>
					<clipPath id="SVGID_4_">
						<use xlink:href="#SVGID_3_"  style="overflow:visible;"/>
					</clipPath>
					<g class="st6">
						<circle cx="149.8272095" cy="134.9382477" r="0.3754746"/>
						<circle cx="142.3145294" cy="134.9382477" r="0.3754876"/>
						<circle cx="149.8272095" cy="127.4256973" r="0.3755985"/>
						<circle cx="142.3145294" cy="127.4256973" r="0.3756115"/>
						<circle cx="138.5583649" cy="131.1819" r="0.375545"/>
						<circle cx="146.0708771" cy="131.1819" r="0.3754876"/>
						<circle cx="138.5583649" cy="123.6694794" r="0.3755385"/>
						<circle cx="146.0708771" cy="123.6694794" r="0.3754812"/>
					</g>
					<g class="st6">
						<circle cx="134.8020935" cy="134.9382477" r="0.3754811"/>
						<circle cx="134.8020935" cy="127.4256973" r="0.375605"/>
					</g>
					<g class="st6">
						<circle cx="149.8272095" cy="119.9133759" r="0.3754811"/>
						<circle cx="142.3145294" cy="119.9133759" r="0.3754942"/>
					</g>
					<g class="st6">
						<circle cx="134.8020935" cy="119.9133759" r="0.3754876"/>
					</g>
				</g>
			</g>
			<g class="st5">
				<g>
					<defs>
						<rect id="SVGID_5_" x="134.8020935" y="134.9382477" width="15.0251255" height="15.0248642"/>
					</defs>
					<clipPath id="SVGID_6_">
						<use xlink:href="#SVGID_5_"  style="overflow:visible;"/>
					</clipPath>
					<g class="st7">
						<circle cx="149.8272095" cy="149.9631195" r="0.3754746"/>
						<circle cx="142.3145294" cy="149.9631195" r="0.3754876"/>
						<circle cx="149.8272095" cy="142.4505615" r="0.3755985"/>
						<circle cx="142.3145294" cy="142.4505615" r="0.3756115"/>
						<circle cx="138.5583649" cy="146.2067719" r="0.375545"/>
						<circle cx="146.0708771" cy="146.2067719" r="0.3754876"/>
						<circle cx="138.5583649" cy="138.6943359" r="0.3755385"/>
						<circle cx="146.0708771" cy="138.6943359" r="0.3754812"/>
					</g>
					<g class="st7">
						<circle cx="134.8020935" cy="149.9631195" r="0.3754811"/>
						<circle cx="134.8020935" cy="142.4505615" r="0.375605"/>
					</g>
					<g class="st7">
						<circle cx="149.8272095" cy="134.9382324" r="0.3754811"/>
						<circle cx="142.3145294" cy="134.9382324" r="0.3754942"/>
					</g>
					<g class="st7">
						<circle cx="134.8020935" cy="134.9382324" r="0.3754876"/>
					</g>
				</g>
			</g>
			<g class="st5">
				<g>
					<defs>
						<rect id="SVGID_7_" x="134.8020935" y="149.9631195" width="15.0251255" height="15.0248642"/>
					</defs>
					<clipPath id="SVGID_8_">
						<use xlink:href="#SVGID_7_"  style="overflow:visible;"/>
					</clipPath>
					<g class="st8">
						<circle cx="149.8272095" cy="164.9879761" r="0.3754746"/>
						<circle cx="142.3145294" cy="164.9879761" r="0.3754876"/>
						<circle cx="149.8272095" cy="157.4754181" r="0.3755985"/>
						<circle cx="142.3145294" cy="157.4754181" r="0.3756115"/>
						<circle cx="138.5583649" cy="161.2316284" r="0.375545"/>
						<circle cx="146.0708771" cy="161.2316284" r="0.3754876"/>
						<circle cx="138.5583649" cy="153.7192078" r="0.3755385"/>
						<circle cx="146.0708771" cy="153.7192078" r="0.3754812"/>
					</g>
					<g class="st8">
						<circle cx="134.8020935" cy="164.9879761" r="0.3754811"/>
						<circle cx="134.8020935" cy="157.4754181" r="0.375605"/>
					</g>
					<g class="st8">
						<circle cx="149.8272095" cy="149.9631042" r="0.3754811"/>
						<circle cx="142.3145294" cy="149.9631042" r="0.3754942"/>
					</g>
					<g class="st8">
						<circle cx="134.8020935" cy="149.9631042" r="0.3754876"/>
					</g>
				</g>
			</g>
			<g class="st5">
				<g>
					<defs>
						<rect id="SVGID_9_" x="134.8020935" y="164.9879761" width="15.0251255" height="15.0248642"/>
					</defs>
					<clipPath id="SVGID_10_">
						<use xlink:href="#SVGID_9_"  style="overflow:visible;"/>
					</clipPath>
					<g class="st9">
						<circle cx="149.8272095" cy="180.0128479" r="0.3754746"/>
						<circle cx="142.3145294" cy="180.0128479" r="0.3754876"/>
						<circle cx="149.8272095" cy="172.5002899" r="0.3755985"/>
						<circle cx="142.3145294" cy="172.5002899" r="0.3756115"/>
						<circle cx="138.5583649" cy="176.2565002" r="0.375545"/>
						<circle cx="146.0708771" cy="176.2565002" r="0.3754876"/>
						<circle cx="138.5583649" cy="168.7440643" r="0.3755385"/>
						<circle cx="146.0708771" cy="168.7440643" r="0.3754812"/>
					</g>
					<g class="st9">
						<circle cx="134.8020935" cy="180.0128479" r="0.3754811"/>
						<circle cx="134.8020935" cy="172.5002899" r="0.375605"/>
					</g>
					<g class="st9">
						<circle cx="149.8272095" cy="164.9879608" r="0.3754811"/>
						<circle cx="142.3145294" cy="164.9879608" r="0.3754942"/>
					</g>
					<g class="st9">
						<circle cx="134.8020935" cy="164.9879608" r="0.3754876"/>
					</g>
				</g>
			</g>
			<g class="st5">
				<g>
					<defs>
						<rect id="SVGID_11_" x="119.7769623" y="119.9133835" width="15.0251255" height="15.0248642"/>
					</defs>
					<clipPath id="SVGID_12_">
						<use xlink:href="#SVGID_11_"  style="overflow:visible;"/>
					</clipPath>
					<g class="st10">
						<circle cx="134.8020935" cy="134.9382477" r="0.3754746"/>
						<circle cx="127.2893982" cy="134.9382477" r="0.3754876"/>
						<circle cx="134.8020935" cy="127.4256973" r="0.3755985"/>
						<circle cx="127.2893982" cy="127.4256973" r="0.3756115"/>
						<circle cx="123.5332489" cy="131.1819" r="0.375545"/>
						<circle cx="131.0457458" cy="131.1819" r="0.3754876"/>
						<circle cx="123.5332489" cy="123.6694794" r="0.3755385"/>
						<circle cx="131.0457458" cy="123.6694794" r="0.3754812"/>
					</g>
					<g class="st10">
						<circle cx="119.7769623" cy="134.9382477" r="0.3754811"/>
						<circle cx="119.7769623" cy="127.4256973" r="0.375605"/>
					</g>
					<g class="st10">
						<circle cx="134.8020935" cy="119.9133759" r="0.3754811"/>
						<circle cx="127.2893982" cy="119.9133759" r="0.3754942"/>
					</g>
					<g class="st10">
						<circle cx="119.7769623" cy="119.9133759" r="0.3754876"/>
					</g>
				</g>
			</g>
			<g class="st5">
				<g>
					<defs>
						<rect id="SVGID_13_" x="119.7769623" y="134.9382477" width="15.0251255" height="15.0248642"/>
					</defs>
					<clipPath id="SVGID_14_">
						<use xlink:href="#SVGID_13_"  style="overflow:visible;"/>
					</clipPath>
					<g class="st11">
						<circle cx="134.8020935" cy="149.9631195" r="0.3754746"/>
						<circle cx="127.2893982" cy="149.9631195" r="0.3754876"/>
						<circle cx="134.8020935" cy="142.4505615" r="0.3755985"/>
						<circle cx="127.2893982" cy="142.4505615" r="0.3756115"/>
						<circle cx="123.5332489" cy="146.2067719" r="0.375545"/>
						<circle cx="131.0457458" cy="146.2067719" r="0.3754876"/>
						<circle cx="123.5332489" cy="138.6943359" r="0.3755385"/>
						<circle cx="131.0457458" cy="138.6943359" r="0.3754812"/>
					</g>
					<g class="st11">
						<circle cx="119.7769623" cy="149.9631195" r="0.3754811"/>
						<circle cx="119.7769623" cy="142.4505615" r="0.375605"/>
					</g>
					<g class="st11">
						<circle cx="134.8020935" cy="134.9382324" r="0.3754811"/>
						<circle cx="127.2893982" cy="134.9382324" r="0.3754942"/>
					</g>
					<g class="st11">
						<circle cx="119.7769623" cy="134.9382324" r="0.3754876"/>
					</g>
				</g>
			</g>
			<g class="st5">
				<g>
					<defs>
						<rect id="SVGID_15_" x="119.7769623" y="149.9631195" width="15.0251255" height="15.0248642"/>
					</defs>
					<clipPath id="SVGID_16_">
						<use xlink:href="#SVGID_15_"  style="overflow:visible;"/>
					</clipPath>
					<g class="st12">
						<circle cx="134.8020935" cy="164.9879761" r="0.3754746"/>
						<circle cx="127.2893982" cy="164.9879761" r="0.3754876"/>
						<circle cx="134.8020935" cy="157.4754181" r="0.3755985"/>
						<circle cx="127.2893982" cy="157.4754181" r="0.3756115"/>
						<circle cx="123.5332489" cy="161.2316284" r="0.375545"/>
						<circle cx="131.0457458" cy="161.2316284" r="0.3754876"/>
						<circle cx="123.5332489" cy="153.7192078" r="0.3755385"/>
						<circle cx="131.0457458" cy="153.7192078" r="0.3754812"/>
					</g>
					<g class="st12">
						<circle cx="119.7769623" cy="164.9879761" r="0.3754811"/>
						<circle cx="119.7769623" cy="157.4754181" r="0.375605"/>
					</g>
					<g class="st12">
						<circle cx="134.8020935" cy="149.9631042" r="0.3754811"/>
						<circle cx="127.2893982" cy="149.9631042" r="0.3754942"/>
					</g>
					<g class="st12">
						<circle cx="119.7769623" cy="149.9631042" r="0.3754876"/>
					</g>
				</g>
			</g>
			<g class="st5">
				<g>
					<defs>
						<rect id="SVGID_17_" x="119.7769623" y="164.9879761" width="15.0251255" height="15.0248642"/>
					</defs>
					<clipPath id="SVGID_18_">
						<use xlink:href="#SVGID_17_"  style="overflow:visible;"/>
					</clipPath>
					<g class="st13">
						<circle cx="134.8020935" cy="180.0128479" r="0.3754746"/>
						<circle cx="127.2893982" cy="180.0128479" r="0.3754876"/>
						<circle cx="134.8020935" cy="172.5002899" r="0.3755985"/>
						<circle cx="127.2893982" cy="172.5002899" r="0.3756115"/>
						<circle cx="123.5332489" cy="176.2565002" r="0.375545"/>
						<circle cx="131.0457458" cy="176.2565002" r="0.3754876"/>
						<circle cx="123.5332489" cy="168.7440643" r="0.3755385"/>
						<circle cx="131.0457458" cy="168.7440643" r="0.3754812"/>
					</g>
					<g class="st13">
						<circle cx="119.7769623" cy="180.0128479" r="0.3754811"/>
						<circle cx="119.7769623" cy="172.5002899" r="0.375605"/>
					</g>
					<g class="st13">
						<circle cx="134.8020935" cy="164.9879608" r="0.3754811"/>
						<circle cx="127.2893982" cy="164.9879608" r="0.3754942"/>
					</g>
					<g class="st13">
						<circle cx="119.7769623" cy="164.9879608" r="0.3754876"/>
					</g>
				</g>
			</g>
			<g class="st5">
				<g>
					<defs>
						<rect id="SVGID_19_" x="104.7518387" y="119.9133835" width="15.0251255" height="15.0248642"/>
					</defs>
					<clipPath id="SVGID_20_">
						<use xlink:href="#SVGID_19_"  style="overflow:visible;"/>
					</clipPath>
					<g class="st14">
						<circle cx="119.7769623" cy="134.9382477" r="0.3754746"/>
						<circle cx="112.2642746" cy="134.9382477" r="0.3754876"/>
						<circle cx="119.7769623" cy="127.4256973" r="0.3755985"/>
						<circle cx="112.2642746" cy="127.4256973" r="0.3756115"/>
						<circle cx="108.5081177" cy="131.1819" r="0.375545"/>
						<circle cx="116.0206223" cy="131.1819" r="0.3754876"/>
						<circle cx="116.0206223" cy="123.6694794" r="0.3754812"/>
					</g>
					<g class="st14">
						<circle cx="104.7518387" cy="134.9382477" r="0.3754811"/>
						<circle cx="104.7518387" cy="127.4256973" r="0.375605"/>
					</g>
					<g class="st14">
						<circle cx="119.7769623" cy="119.9133759" r="0.3754811"/>
						<circle cx="112.2642746" cy="119.9133759" r="0.3754942"/>
					</g>
					<g class="st14">
						<circle cx="104.7518387" cy="119.9133759" r="0.3754876"/>
					</g>
				</g>
			</g>
			<g class="st5">
				<g>
					<defs>
						<rect id="SVGID_21_" x="104.7518387" y="134.9382477" width="15.0251255" height="15.0248642"/>
					</defs>
					<clipPath id="SVGID_22_">
						<use xlink:href="#SVGID_21_"  style="overflow:visible;"/>
					</clipPath>
					<g class="st15">
						<circle cx="119.7769623" cy="149.9631195" r="0.3754746"/>
						<circle cx="112.2642746" cy="149.9631195" r="0.3754876"/>
						<circle cx="119.7769623" cy="142.4505615" r="0.3755985"/>
						<circle cx="112.2642746" cy="142.4505615" r="0.3756115"/>
						<circle cx="108.5081177" cy="146.2067719" r="0.375545"/>
						<circle cx="116.0206223" cy="146.2067719" r="0.3754876"/>
						<circle cx="108.5081177" cy="138.6943359" r="0.3755385"/>
						<circle cx="116.0206223" cy="138.6943359" r="0.3754812"/>
					</g>
					<g class="st15">
						<circle cx="104.7518387" cy="149.9631195" r="0.3754811"/>
						<circle cx="104.7518387" cy="142.4505615" r="0.375605"/>
					</g>
					<g class="st15">
						<circle cx="119.7769623" cy="134.9382324" r="0.3754811"/>
						<circle cx="112.2642746" cy="134.9382324" r="0.3754942"/>
					</g>
					<g class="st15">
						<circle cx="104.7518387" cy="134.9382324" r="0.3754876"/>
					</g>
				</g>
			</g>
			<g class="st5">
				<g>
					<defs>
						<rect id="SVGID_23_" x="104.7518387" y="149.9631195" width="15.0251255" height="15.0248642"/>
					</defs>
					<clipPath id="SVGID_24_">
						<use xlink:href="#SVGID_23_"  style="overflow:visible;"/>
					</clipPath>
					<g class="st16">
						<circle cx="119.7769623" cy="164.9879761" r="0.3754746"/>
						<circle cx="112.2642746" cy="164.9879761" r="0.3754876"/>
						<circle cx="119.7769623" cy="157.4754181" r="0.3755985"/>
						<circle cx="112.2642746" cy="157.4754181" r="0.3756115"/>
						<circle cx="108.5081177" cy="161.2316284" r="0.375545"/>
						<circle cx="116.0206223" cy="161.2316284" r="0.3754876"/>
						<circle cx="108.5081177" cy="153.7192078" r="0.3755385"/>
						<circle cx="116.0206223" cy="153.7192078" r="0.3754812"/>
					</g>
					<g class="st16">
						<circle cx="104.7518387" cy="164.9879761" r="0.3754811"/>
						<circle cx="104.7518387" cy="157.4754181" r="0.375605"/>
					</g>
					<g class="st16">
						<circle cx="119.7769623" cy="149.9631042" r="0.3754811"/>
						<circle cx="112.2642746" cy="149.9631042" r="0.3754942"/>
					</g>
					<g class="st16">
						<circle cx="104.7518387" cy="149.9631042" r="0.3754876"/>
					</g>
				</g>
			</g>
			<g class="st5">
				<g>
					<defs>
						<rect id="SVGID_25_" x="104.7518387" y="164.9879761" width="15.0251255" height="15.0248642"/>
					</defs>
					<clipPath id="SVGID_26_">
						<use xlink:href="#SVGID_25_"  style="overflow:visible;"/>
					</clipPath>
					<g class="st17">
						<circle cx="119.7769623" cy="180.0128479" r="0.3754746"/>
						<circle cx="112.2642746" cy="180.0128479" r="0.3754876"/>
						<circle cx="119.7769623" cy="172.5002899" r="0.3755985"/>
						<circle cx="112.2642746" cy="172.5002899" r="0.3756115"/>
						<circle cx="108.5081177" cy="176.2565002" r="0.375545"/>
						<circle cx="116.0206223" cy="176.2565002" r="0.3754876"/>
						<circle cx="108.5081177" cy="168.7440643" r="0.3755385"/>
						<circle cx="116.0206223" cy="168.7440643" r="0.3754812"/>
					</g>
					<g class="st17">
						<circle cx="104.7518387" cy="180.0128479" r="0.3754811"/>
						<circle cx="104.7518387" cy="172.5002899" r="0.375605"/>
					</g>
					<g class="st17">
						<circle cx="119.7769623" cy="164.9879608" r="0.3754811"/>
						<circle cx="112.2642746" cy="164.9879608" r="0.3754942"/>
					</g>
					<g class="st17">
						<circle cx="104.7518387" cy="164.9879608" r="0.3754876"/>
					</g>
				</g>
			</g>
			<g class="st5">
				<g>
					<defs>
						<rect id="SVGID_27_" x="89.7267151" y="119.9133835" width="15.0251255" height="15.0248642"/>
					</defs>
					<clipPath id="SVGID_28_">
						<use xlink:href="#SVGID_27_"  style="overflow:visible;"/>
					</clipPath>
					<g class="st18">
						<circle cx="104.7518387" cy="134.9382477" r="0.3754746"/>
						<circle cx="97.239151" cy="134.9382477" r="0.3754876"/>
						<circle cx="104.7518387" cy="127.4256973" r="0.3755985"/>
						<circle cx="97.239151" cy="127.4256973" r="0.3756115"/>
						<circle cx="93.4829941" cy="123.6694794" r="0.3755385"/>
						<circle cx="100.9954987" cy="123.6694794" r="0.3754812"/>
					</g>
					<g class="st18">
						<circle cx="89.7267151" cy="134.9382477" r="0.3754811"/>
						<circle cx="89.7267151" cy="127.4256973" r="0.375605"/>
					</g>
					<g class="st18">
						<circle cx="104.7518387" cy="119.9133759" r="0.3754811"/>
						<circle cx="97.239151" cy="119.9133759" r="0.3754942"/>
					</g>
					<g class="st18">
						<circle cx="89.7267151" cy="119.9133759" r="0.3754876"/>
					</g>
				</g>
			</g>
			<g class="st5">
				<g>
					<defs>
						<rect id="SVGID_29_" x="89.7267151" y="134.9382477" width="15.0251255" height="15.0248642"/>
					</defs>
					<clipPath id="SVGID_30_">
						<use xlink:href="#SVGID_29_"  style="overflow:visible;"/>
					</clipPath>
					<g class="st19">
						<circle cx="104.7518387" cy="149.9631195" r="0.3754746"/>
						<circle cx="97.239151" cy="149.9631195" r="0.3754876"/>
						<circle cx="104.7518387" cy="142.4505615" r="0.3755985"/>
						<circle cx="97.239151" cy="142.4505615" r="0.3756115"/>
						<circle cx="100.9954987" cy="146.2067719" r="0.3754876"/>
						<circle cx="93.4829941" cy="138.6943359" r="0.3755385"/>
						<circle cx="100.9954987" cy="138.6943359" r="0.3754812"/>
					</g>
					<g class="st19">
						<circle cx="89.7267151" cy="149.9631195" r="0.3754811"/>
						<circle cx="89.7267151" cy="142.4505615" r="0.375605"/>
					</g>
					<g class="st19">
						<circle cx="104.7518387" cy="134.9382324" r="0.3754811"/>
						<circle cx="97.239151" cy="134.9382324" r="0.3754942"/>
					</g>
					<g class="st19">
						<circle cx="89.7267151" cy="134.9382324" r="0.3754876"/>
					</g>
				</g>
			</g>
			<g class="st5">
				<g>
					<defs>
						<rect id="SVGID_31_" x="89.7267151" y="149.9631195" width="15.0251255" height="15.0248642"/>
					</defs>
					<clipPath id="SVGID_32_">
						<use xlink:href="#SVGID_31_"  style="overflow:visible;"/>
					</clipPath>
					<g class="st20">
						<circle cx="104.7518387" cy="164.9879761" r="0.3754746"/>
						<circle cx="97.239151" cy="164.9879761" r="0.3754876"/>
						<circle cx="104.7518387" cy="157.4754181" r="0.3755985"/>
						<circle cx="97.239151" cy="157.4754181" r="0.3756115"/>
						<circle cx="93.4829941" cy="161.2316284" r="0.375545"/>
						<circle cx="100.9954987" cy="161.2316284" r="0.3754876"/>
						<circle cx="93.4829941" cy="153.7192078" r="0.3755385"/>
						<circle cx="100.9954987" cy="153.7192078" r="0.3754812"/>
					</g>
					<g class="st20">
						<circle cx="89.7267151" cy="164.9879761" r="0.3754811"/>
						<circle cx="89.7267151" cy="157.4754181" r="0.375605"/>
					</g>
					<g class="st20">
						<circle cx="104.7518387" cy="149.9631042" r="0.3754811"/>
						<circle cx="97.239151" cy="149.9631042" r="0.3754942"/>
					</g>
					<g class="st20">
						<circle cx="89.7267151" cy="149.9631042" r="0.3754876"/>
					</g>
				</g>
			</g>
			<g class="st5">
				<g>
					<defs>
						<rect id="SVGID_33_" x="89.7267151" y="164.9879761" width="15.0251255" height="15.0248642"/>
					</defs>
					<clipPath id="SVGID_34_">
						<use xlink:href="#SVGID_33_"  style="overflow:visible;"/>
					</clipPath>
					<g class="st21">
						<circle cx="104.7518387" cy="180.0128479" r="0.3754746"/>
						<circle cx="97.239151" cy="180.0128479" r="0.3754876"/>
						<circle cx="104.7518387" cy="172.5002899" r="0.3755985"/>
						<circle cx="97.239151" cy="172.5002899" r="0.3756115"/>
						<circle cx="93.4829941" cy="176.2565002" r="0.375545"/>
						<circle cx="100.9954987" cy="176.2565002" r="0.3754876"/>
						<circle cx="93.4829941" cy="168.7440643" r="0.3755385"/>
						<circle cx="100.9954987" cy="168.7440643" r="0.3754812"/>
					</g>
					<g class="st21">
						<circle cx="89.7267151" cy="180.0128479" r="0.3754811"/>
						<circle cx="89.7267151" cy="172.5002899" r="0.375605"/>
					</g>
					<g class="st21">
						<circle cx="104.7518387" cy="164.9879608" r="0.3754811"/>
						<circle cx="97.239151" cy="164.9879608" r="0.3754942"/>
					</g>
					<g class="st21">
						<circle cx="89.7267151" cy="164.9879608" r="0.3754876"/>
					</g>
				</g>
			</g>
			<g class="st5">
				<g>
					<defs>
						<rect id="SVGID_35_" x="74.7015839" y="119.9133835" width="15.0251255" height="15.0248642"/>
					</defs>
					<clipPath id="SVGID_36_">
						<use xlink:href="#SVGID_35_"  style="overflow:visible;"/>
					</clipPath>
					<g class="st22">
						<circle cx="89.7267151" cy="134.9382477" r="0.3754746"/>
						<circle cx="82.2140274" cy="134.9382477" r="0.3754876"/>
						<circle cx="89.7267151" cy="127.4256973" r="0.3755985"/>
						<circle cx="82.2140274" cy="127.4256973" r="0.3756115"/>
						<circle cx="78.4578705" cy="131.1819" r="0.375545"/>
						<circle cx="85.9703751" cy="131.1819" r="0.3754876"/>
						<circle cx="78.4578705" cy="123.6694794" r="0.3755385"/>
						<circle cx="85.9703751" cy="123.6694794" r="0.3754812"/>
					</g>
					<g class="st22">
						<circle cx="74.7015839" cy="134.9382477" r="0.3754811"/>
						<circle cx="74.7015839" cy="127.4256973" r="0.375605"/>
					</g>
					<g class="st22">
						<circle cx="89.7267151" cy="119.9133759" r="0.3754811"/>
						<circle cx="82.2140274" cy="119.9133759" r="0.3754942"/>
					</g>
					<g class="st22">
						<circle cx="74.7015839" cy="119.9133759" r="0.3754876"/>
					</g>
				</g>
			</g>
			<g class="st5">
				<g>
					<defs>
						<rect id="SVGID_37_" x="74.7015839" y="134.9382477" width="15.0251255" height="15.0248642"/>
					</defs>
					<clipPath id="SVGID_38_">
						<use xlink:href="#SVGID_37_"  style="overflow:visible;"/>
					</clipPath>
					<g class="st23">
						<circle cx="89.7267151" cy="149.9631195" r="0.3754746"/>
						<circle cx="82.2140274" cy="149.9631195" r="0.3754876"/>
						<circle cx="89.7267151" cy="142.4505615" r="0.3755985"/>
						<circle cx="78.4578705" cy="146.2067719" r="0.375545"/>
						<circle cx="78.4578705" cy="138.6943359" r="0.3755385"/>
						<circle cx="85.9703751" cy="138.6943359" r="0.3754812"/>
					</g>
					<g class="st23">
						<circle cx="74.7015839" cy="149.9631195" r="0.3754811"/>
						<circle cx="74.7015839" cy="142.4505615" r="0.375605"/>
					</g>
					<g class="st23">
						<circle cx="89.7267151" cy="134.9382324" r="0.3754811"/>
						<circle cx="82.2140274" cy="134.9382324" r="0.3754942"/>
					</g>
					<g class="st23">
						<circle cx="74.7015839" cy="134.9382324" r="0.3754876"/>
					</g>
				</g>
			</g>
			<g class="st5">
				<g>
					<defs>
						<rect id="SVGID_39_" x="74.7015839" y="149.9631195" width="15.0251255" height="15.0248642"/>
					</defs>
					<clipPath id="SVGID_40_">
						<use xlink:href="#SVGID_39_"  style="overflow:visible;"/>
					</clipPath>
					<g class="st24">
						<circle cx="89.7267151" cy="164.9879761" r="0.3754746"/>
						<circle cx="82.2140274" cy="164.9879761" r="0.3754876"/>
						<circle cx="89.7267151" cy="157.4754181" r="0.3755985"/>
						<circle cx="82.2140274" cy="157.4754181" r="0.3756115"/>
						<circle cx="78.4578705" cy="161.2316284" r="0.375545"/>
						<circle cx="85.9703751" cy="161.2316284" r="0.3754876"/>
						<circle cx="78.4578705" cy="153.7192078" r="0.3755385"/>
						<circle cx="85.9703751" cy="153.7192078" r="0.3754812"/>
					</g>
					<g class="st24">
						<circle cx="74.7015839" cy="164.9879761" r="0.3754811"/>
						<circle cx="74.7015839" cy="157.4754181" r="0.375605"/>
					</g>
					<g class="st24">
						<circle cx="89.7267151" cy="149.9631042" r="0.3754811"/>
						<circle cx="82.2140274" cy="149.9631042" r="0.3754942"/>
					</g>
					<g class="st24">
						<circle cx="74.7015839" cy="149.9631042" r="0.3754876"/>
					</g>
				</g>
			</g>
			<g class="st5">
				<g>
					<defs>
						<rect id="SVGID_41_" x="74.7015839" y="164.9879761" width="15.0251255" height="15.0248642"/>
					</defs>
					<clipPath id="SVGID_42_">
						<use xlink:href="#SVGID_41_"  style="overflow:visible;"/>
					</clipPath>
					<g class="st25">
						<circle cx="89.7267151" cy="180.0128479" r="0.3754746"/>
						<circle cx="82.2140274" cy="180.0128479" r="0.3754876"/>
						<circle cx="89.7267151" cy="172.5002899" r="0.3755985"/>
						<circle cx="82.2140274" cy="172.5002899" r="0.3756115"/>
						<circle cx="78.4578705" cy="176.2565002" r="0.375545"/>
						<circle cx="85.9703751" cy="176.2565002" r="0.3754876"/>
						<circle cx="78.4578705" cy="168.7440643" r="0.3755385"/>
						<circle cx="85.9703751" cy="168.7440643" r="0.3754812"/>
					</g>
					<g class="st25">
						<circle cx="74.7015839" cy="180.0128479" r="0.3754811"/>
						<circle cx="74.7015839" cy="172.5002899" r="0.375605"/>
					</g>
					<g class="st25">
						<circle cx="89.7267151" cy="164.9879608" r="0.3754811"/>
						<circle cx="82.2140274" cy="164.9879608" r="0.3754942"/>
					</g>
					<g class="st25">
						<circle cx="74.7015839" cy="164.9879608" r="0.3754876"/>
					</g>
				</g>
			</g>
			<g class="st5">
				<g>
					<defs>
						<rect id="SVGID_43_" x="59.6764603" y="119.9133835" width="15.0251255" height="15.0248642"/>
					</defs>
					<clipPath id="SVGID_44_">
						<use xlink:href="#SVGID_43_"  style="overflow:visible;"/>
					</clipPath>
					<g class="st26">
						<circle cx="74.7015839" cy="134.9382477" r="0.3754746"/>
						<circle cx="67.1888962" cy="134.9382477" r="0.3754876"/>
						<circle cx="74.7015839" cy="127.4256973" r="0.3755985"/>
						<circle cx="67.1888962" cy="127.4256973" r="0.3756115"/>
						<circle cx="63.4327469" cy="131.1819" r="0.375545"/>
						<circle cx="70.9452515" cy="131.1819" r="0.3754876"/>
						<circle cx="63.4327469" cy="123.6694794" r="0.3755385"/>
						<circle cx="70.9452515" cy="123.6694794" r="0.3754812"/>
					</g>
					<g class="st26">
						<circle cx="59.6764603" cy="134.9382477" r="0.3754811"/>
						<circle cx="59.6764603" cy="127.4256973" r="0.375605"/>
					</g>
					<g class="st26">
						<circle cx="74.7015839" cy="119.9133759" r="0.3754811"/>
						<circle cx="67.1888962" cy="119.9133759" r="0.3754942"/>
					</g>
					<g class="st26">
						<circle cx="59.6764603" cy="119.9133759" r="0.3754876"/>
					</g>
				</g>
			</g>
			<g class="st5">
				<g>
					<defs>
						<rect id="SVGID_45_" x="59.6764603" y="134.9382477" width="15.0251255" height="15.0248642"/>
					</defs>
					<clipPath id="SVGID_46_">
						<use xlink:href="#SVGID_45_"  style="overflow:visible;"/>
					</clipPath>
					<g class="st27">
						<circle cx="74.7015839" cy="149.9631195" r="0.3754746"/>
						<circle cx="67.1888962" cy="149.9631195" r="0.3754876"/>
						<circle cx="74.7015839" cy="142.4505615" r="0.3755985"/>
						<circle cx="67.1888962" cy="142.4505615" r="0.3756115"/>
						<circle cx="63.4327469" cy="146.2067719" r="0.375545"/>
						<circle cx="70.9452515" cy="146.2067719" r="0.3754876"/>
						<circle cx="63.4327469" cy="138.6943359" r="0.3755385"/>
						<circle cx="70.9452515" cy="138.6943359" r="0.3754812"/>
					</g>
					<g class="st27">
						<circle cx="59.6764603" cy="149.9631195" r="0.3754811"/>
						<circle cx="59.6764603" cy="142.4505615" r="0.375605"/>
					</g>
					<g class="st27">
						<circle cx="74.7015839" cy="134.9382324" r="0.3754811"/>
						<circle cx="67.1888962" cy="134.9382324" r="0.3754942"/>
					</g>
					<g class="st27">
						<circle cx="59.6764603" cy="134.9382324" r="0.3754876"/>
					</g>
				</g>
			</g>
			<g class="st5">
				<g>
					<defs>
						<rect id="SVGID_47_" x="59.6764603" y="149.9631195" width="15.0251255" height="15.0248642"/>
					</defs>
					<clipPath id="SVGID_48_">
						<use xlink:href="#SVGID_47_"  style="overflow:visible;"/>
					</clipPath>
					<g class="st28">
						<circle cx="74.7015839" cy="164.9879761" r="0.3754746"/>
						<circle cx="67.1888962" cy="164.9879761" r="0.3754876"/>
						<circle cx="74.7015839" cy="157.4754181" r="0.3755985"/>
						<circle cx="67.1888962" cy="157.4754181" r="0.3756115"/>
						<circle cx="63.4327469" cy="161.2316284" r="0.375545"/>
						<circle cx="70.9452515" cy="161.2316284" r="0.3754876"/>
						<circle cx="63.4327469" cy="153.7192078" r="0.3755385"/>
						<circle cx="70.9452515" cy="153.7192078" r="0.3754812"/>
					</g>
					<g class="st28">
						<circle cx="59.6764603" cy="164.9879761" r="0.3754811"/>
						<circle cx="59.6764603" cy="157.4754181" r="0.375605"/>
					</g>
					<g class="st28">
						<circle cx="74.7015839" cy="149.9631042" r="0.3754811"/>
						<circle cx="67.1888962" cy="149.9631042" r="0.3754942"/>
					</g>
					<g class="st28">
						<circle cx="59.6764603" cy="149.9631042" r="0.3754876"/>
					</g>
				</g>
			</g>
			<g class="st5">
				<g>
					<defs>
						<rect id="SVGID_49_" x="59.6764603" y="164.9879761" width="15.0251255" height="15.0248642"/>
					</defs>
					<clipPath id="SVGID_50_">
						<use xlink:href="#SVGID_49_"  style="overflow:visible;"/>
					</clipPath>
					<g class="st29">
						<circle cx="74.7015839" cy="180.0128479" r="0.3754746"/>
						<circle cx="67.1888962" cy="180.0128479" r="0.3754876"/>
						<circle cx="74.7015839" cy="172.5002899" r="0.3755985"/>
						<circle cx="67.1888962" cy="172.5002899" r="0.3756115"/>
						<circle cx="63.4327469" cy="176.2565002" r="0.375545"/>
						<circle cx="70.9452515" cy="176.2565002" r="0.3754876"/>
						<circle cx="63.4327469" cy="168.7440643" r="0.3755385"/>
						<circle cx="70.9452515" cy="168.7440643" r="0.3754812"/>
					</g>
					<g class="st29">
						<circle cx="59.6764603" cy="180.0128479" r="0.3754811"/>
						<circle cx="59.6764603" cy="172.5002899" r="0.375605"/>
					</g>
					<g class="st29">
						<circle cx="74.7015839" cy="164.9879608" r="0.3754811"/>
						<circle cx="67.1888962" cy="164.9879608" r="0.3754942"/>
					</g>
					<g class="st29">
						<circle cx="59.6764603" cy="164.9879608" r="0.3754876"/>
					</g>
				</g>
			</g>
			<g class="st5">
				<g>
					<defs>
						<rect id="SVGID_51_" x="44.6513367" y="119.9133835" width="15.0251255" height="15.0248642"/>
					</defs>
					<clipPath id="SVGID_52_">
						<use xlink:href="#SVGID_51_"  style="overflow:visible;"/>
					</clipPath>
					<g class="st30">
						<circle cx="59.6764603" cy="134.9382477" r="0.3754746"/>
						<circle cx="52.1637726" cy="134.9382477" r="0.3754876"/>
						<circle cx="59.6764603" cy="127.4256973" r="0.3755985"/>
						<circle cx="52.1637726" cy="127.4256973" r="0.3756115"/>
						<circle cx="48.4076195" cy="131.1819" r="0.375545"/>
						<circle cx="55.9201241" cy="131.1819" r="0.3754876"/>
						<circle cx="48.4076195" cy="123.6694794" r="0.3755385"/>
						<circle cx="55.9201241" cy="123.6694794" r="0.3754812"/>
					</g>
					<g class="st30">
						<circle cx="44.6513367" cy="134.9382477" r="0.3754811"/>
						<circle cx="44.6513367" cy="127.4256973" r="0.375605"/>
					</g>
					<g class="st30">
						<circle cx="59.6764603" cy="119.9133759" r="0.3754811"/>
						<circle cx="52.1637726" cy="119.9133759" r="0.3754942"/>
					</g>
					<g class="st30">
						<circle cx="44.6513367" cy="119.9133759" r="0.3754876"/>
					</g>
				</g>
			</g>
			<g class="st5">
				<g>
					<defs>
						<rect id="SVGID_53_" x="44.6513367" y="134.9382477" width="15.0251255" height="15.0248642"/>
					</defs>
					<clipPath id="SVGID_54_">
						<use xlink:href="#SVGID_53_"  style="overflow:visible;"/>
					</clipPath>
					<g class="st31">
						<circle cx="59.6764603" cy="149.9631195" r="0.3754746"/>
						<circle cx="52.1637726" cy="149.9631195" r="0.3754876"/>
						<circle cx="59.6764603" cy="142.4505615" r="0.3755985"/>
						<circle cx="52.1637726" cy="142.4505615" r="0.3756115"/>
						<circle cx="48.4076195" cy="146.2067719" r="0.375545"/>
						<circle cx="55.9201241" cy="146.2067719" r="0.3754876"/>
						<circle cx="48.4076195" cy="138.6943359" r="0.3755385"/>
						<circle cx="55.9201241" cy="138.6943359" r="0.3754812"/>
					</g>
					<g class="st31">
						<circle cx="44.6513367" cy="149.9631195" r="0.3754811"/>
						<circle cx="44.6513367" cy="142.4505615" r="0.375605"/>
					</g>
					<g class="st31">
						<circle cx="59.6764603" cy="134.9382324" r="0.3754811"/>
						<circle cx="52.1637726" cy="134.9382324" r="0.3754942"/>
					</g>
					<g class="st31">
						<circle cx="44.6513367" cy="134.9382324" r="0.3754876"/>
					</g>
				</g>
			</g>
			<g class="st5">
				<g>
					<defs>
						<rect id="SVGID_55_" x="44.6513367" y="149.9631195" width="15.0251255" height="15.0248642"/>
					</defs>
					<clipPath id="SVGID_56_">
						<use xlink:href="#SVGID_55_"  style="overflow:visible;"/>
					</clipPath>
					<g class="st32">
						<circle cx="59.6764603" cy="164.9879761" r="0.3754746"/>
						<circle cx="52.1637726" cy="164.9879761" r="0.3754876"/>
						<circle cx="59.6764603" cy="157.4754181" r="0.3755985"/>
						<circle cx="52.1637726" cy="157.4754181" r="0.3756115"/>
						<circle cx="48.4076195" cy="161.2316284" r="0.375545"/>
						<circle cx="55.9201241" cy="161.2316284" r="0.3754876"/>
						<circle cx="48.4076195" cy="153.7192078" r="0.3755385"/>
						<circle cx="55.9201241" cy="153.7192078" r="0.3754812"/>
					</g>
					<g class="st32">
						<circle cx="44.6513367" cy="164.9879761" r="0.3754811"/>
						<circle cx="44.6513367" cy="157.4754181" r="0.375605"/>
					</g>
					<g class="st32">
						<circle cx="59.6764603" cy="149.9631042" r="0.3754811"/>
						<circle cx="52.1637726" cy="149.9631042" r="0.3754942"/>
					</g>
					<g class="st32">
						<circle cx="44.6513367" cy="149.9631042" r="0.3754876"/>
					</g>
				</g>
			</g>
			<g class="st5">
				<g>
					<defs>
						<rect id="SVGID_57_" x="44.6513367" y="164.9879761" width="15.0251255" height="15.0248642"/>
					</defs>
					<clipPath id="SVGID_58_">
						<use xlink:href="#SVGID_57_"  style="overflow:visible;"/>
					</clipPath>
					<g class="st33">
						<circle cx="59.6764603" cy="180.0128479" r="0.3754746"/>
						<circle cx="52.1637726" cy="180.0128479" r="0.3754876"/>
						<circle cx="59.6764603" cy="172.5002899" r="0.3755985"/>
						<circle cx="52.1637726" cy="172.5002899" r="0.3756115"/>
						<circle cx="48.4076195" cy="176.2565002" r="0.375545"/>
						<circle cx="55.9201241" cy="176.2565002" r="0.3754876"/>
						<circle cx="48.4076195" cy="168.7440643" r="0.3755385"/>
						<circle cx="55.9201241" cy="168.7440643" r="0.3754812"/>
					</g>
					<g class="st33">
						<circle cx="44.6513367" cy="180.0128479" r="0.3754811"/>
						<circle cx="44.6513367" cy="172.5002899" r="0.375605"/>
					</g>
					<g class="st33">
						<circle cx="59.6764603" cy="164.9879608" r="0.3754811"/>
						<circle cx="52.1637726" cy="164.9879608" r="0.3754942"/>
					</g>
					<g class="st33">
						<circle cx="44.6513367" cy="164.9879608" r="0.3754876"/>
					</g>
				</g>
			</g>
		</g>
	</g>
	<g id="_x31_8_1_">
		<circle class="st34" cx="81.5982132" cy="104.3112335" r="3.3815775"/>
		<circle class="st34" cx="117.5112457" cy="104.3721542" r="3.3818696"/>
	</g>
	<g>
		
			<rect x="81.4192963" y="79.3910446" transform="matrix(0.2783844 -0.9604697 0.9604697 0.2783844 -25.191473 142.9187012)" class="st3" width="2.1945951" height="17.6664295"/>
		
			<rect x="110.9882507" y="86.2867737" transform="matrix(0.9615666 -0.2745719 0.2745719 0.9615666 -19.3862209 36.2578354)" class="st3" width="17.6665096" height="2.1811919"/>
	</g>
	<g id="_x39__4_">
		<path class="st35" d="M72.4940491,106.0161743c0-4.1623611,3.371666-7.5344467,7.5462723-7.5344467
			c4.1600876,0,7.5381088,3.3720856,7.5381088,7.5344467c0,4.1669083-3.3780212,7.5435791-7.5381088,7.5435791
			C75.865715,113.5597534,72.4940491,110.1830826,72.4940491,106.0161743z"/>
		<path class="st34" d="M77.681839,103.0364914c0-2.3725433,1.9216766-4.2937622,4.3019333-4.2937622
			c2.3697968,0,4.2941742,1.9212189,4.2941742,4.2937622c0,2.3724976-1.9243774,4.2964554-4.2941742,4.2964554
			C79.6035156,107.3329468,77.681839,105.408989,77.681839,103.0364914z"/>
		<path class="st1" d="M71.0340881,106.6088791c0.2011871,4.6453781,4.0142059,8.3509827,8.718277,8.3509827
			c4.687973,0,8.505722-3.7056046,8.7069168-8.3509827H71.0340881z"/>
		<path class="st1" d="M88.4579315,104.4810028c0,0.0081635,0,0.0081635,0,0.0154495H71.0307083
			c0-0.0072861,0-0.0072861,0-0.0154495c0.008812-0.2102356,0.02491-0.4132385,0.0575333-0.6144257
			c0.5009232-4.3399734,4.1863861-7.7193451,8.656189-7.7193451c4.4860916,0,8.1552734,3.3793716,8.6563873,7.7193451
			C88.4338989,104.0677643,88.4493027,104.2707672,88.4579315,104.4810028z"/>
		<path class="st35" d="M112.5711441,106.0161743c0-4.1623611,3.3721313-7.5344467,7.5472031-7.5344467
			c4.1600876,0,7.5376434,3.3720856,7.5376434,7.5344467c0,4.1669083-3.3775558,7.5435791-7.5376434,7.5435791
			C115.9432755,113.5597534,112.5711441,110.1830826,112.5711441,106.0161743z"/>
		<path class="st34" d="M113.1792603,106.2699356c0-2.3734283,1.9212265-4.2946472,4.3014603-4.2946472
			c2.369812,0,4.2942276,1.9212189,4.2942276,4.2946472c0,2.3725433-1.9244156,4.2964935-4.2942276,4.2964935
			C115.1004868,110.5664291,113.1792603,108.6424789,113.1792603,106.2699356z"/>
		<path class="st1" d="M111.112114,106.6088791c0.2007217,4.6453781,4.0132751,8.3509827,8.7175827,8.3509827
			c4.687973,0,8.5059509-3.7056046,8.7071533-8.3509827H111.112114z"/>
		<path class="st1" d="M128.5350342,104.4810028c0,0.0081635,0,0.0081635,0,0.0154495h-17.4265366
			c0-0.0072861,0-0.0072861,0-0.0154495c0.0085907-0.2102356,0.0244522-0.4132385,0.0570679-0.6144257
			c0.5011597-4.3399734,4.1864014-7.7193451,8.6564331-7.7193451c4.4854355,0,8.154808,3.3793716,8.656395,7.7193451
			C128.5105743,104.0677643,128.5263977,104.2707672,128.5350342,104.4810028z"/>
		<path class="st36" d="M88.4579315,104.4810028H71.0307083c0.008812-0.2102356,0.02491-0.4132385,0.0575333-0.6144257h17.3125763
			C88.4338989,104.0677643,88.4493027,104.2707672,88.4579315,104.4810028z"/>
		<path class="st36" d="M128.5350342,104.4810028h-17.4265366c0.0085907-0.2102356,0.0244522-0.4132385,0.0570679-0.6144257
			h17.3128281C128.5105743,104.0677643,128.5263977,104.2707672,128.5350342,104.4810028z"/>
	</g>
	<path class="st37" d="M137.2691956,73.8531494c-0.2052612,1.7421494-0.398819,3.7359619-0.5581512,6.0150299
		c-0.1398621,1.9965668-0.322052,3.7930984-0.54953,5.4145889l1.6283722,3.1263199c0,0,2.6483002-3.208847,2.8095398-4.3610687
		c0.1637115-1.150322,0.7414246,3.1805954,0.4908905,3.827858c-0.2508087,0.6513443,2.3260651-0.5621567,3.2009125-3.181633
		c0.8575897-2.5747452,1.6971741-8.3979263,1.7263794-8.5904236c0.0286407,0.1726074,0.8558655,5.310791,0.5984344,6.5947571
		c0.4780426-0.8293839,1.8361359-3.1257858,2.0819702-4.6445465c0.3246307-2.0438995,0.3624268-2.6966705,0.3624268-2.6966705
		s1.0799255,3.0293427,0.9154968,4.0083618c-0.1641083,0.9797897,1.4606018-3.5070267,1.4606018-3.5070267
		s0.7168884,5.3181458,0.0534363,7.7713242c-0.6133881,2.2636566,2.8553772-10.0881958,2.8553772-10.0881958
		c-0.0476379-0.2087479-0.7596283-3.5606689-1.3006439-4.9163666c-0.5579224-1.4062576-0.9896545-2.3590775-0.9896545-2.3590775
		s-0.2732391,3.7993164-0.9411774,5.3023453c-0.6673737,1.5047836-0.8878021,0.3820114-1.2333984-0.8478622
		c-0.3456268-1.2248154-1.0282288-2.046463-1.0282288-2.046463s-0.2761688,3.6269608-1.116684,4.5623932
		c-0.839859,0.9297409-0.8249054-3.3383408-1.7274628-5.3680267c-0.9020538-2.0278549-0.2232056,4.6102371-1.779953,6.8406982
		c-1.5518341,2.2290344-1.7658386,1.7954025-2.0829468-1.461441c-0.3143158-3.2615204-1.3896179,1.3343811-2.22995,2.3525848
		C139.2671814,76.3858643,137.8776093,74.6785126,137.2691956,73.8531494z"/>
	<path class="st37" d="M47.3307762,69.0740738c-0.2052612,1.7421494-0.3988228,3.7359619-0.5581627,6.0150299
		c-0.1398621,1.9965668-0.3220444,3.7930984-0.5495262,5.4145889l1.6283722,3.1263275c0,0,2.6483002-3.2088547,2.8095436-4.3610764
		c0.1637039-1.150322,0.7414284,3.1805954,0.4908943,3.827858c-0.2508202,0.6513443,2.3260574-0.5621567,3.2009048-3.181633
		c0.8575859-2.5747452,1.6971817-8.3979263,1.7263832-8.5904236c0.0286331,0.1726074,0.8558655,5.310791,0.5984383,6.5947571
		c0.478035-0.8293839,1.8361244-3.1257858,2.0819664-4.6445465c0.3246193-2.0438995,0.3624191-2.6966705,0.3624191-2.6966705
		s1.0799332,3.0293427,0.9155083,4.0083618c-0.1641083,0.9797897,1.4605904-3.5070267,1.4605904-3.5070267
		s0.8296928,4.0256119,0.1662331,6.4787827c-0.6133842,2.2636642,1.1756897,0.2869873,1.5776176-1.0005035
		c-0.0612221,0.3757858-0.1547623,0.946579-0.2499809,1.5513153c2.4834099-4.9083481,2.8488121-9.4415131,2.1505547-13.3742981
		l-0.7356033,4.027832c-0.0476456-0.2087479-0.7596283-3.5606689-1.3006516-4.9163666
		c-0.5579185-1.4062576-0.9896507-2.3590775-0.9896507-2.3590775s-0.2732315,3.7993164-0.9411736,5.3023453
		c-0.6673737,1.5047836-0.8877983,0.3820114-1.2333984-0.8478622c-0.3456268-1.2248154-1.0282326-2.046463-1.0282326-2.046463
		s-0.276165,3.6269608-1.116684,4.5623932c-0.8398666,0.9297409-0.8249054-3.3383408-1.7274666-5.3680267
		c-0.9020424-2.0278549-0.2232018,4.6102371-1.7799416,6.8406982c-1.5518456,2.2290344-1.7658463,1.7954025-2.0829544-1.461441
		c-0.3143082-3.2615204-1.3896141,1.3343811-2.2299461,2.3525848C49.3287506,71.6067886,47.9391899,69.899437,47.3307762,69.0740738
		z"/>
	<g id="_x33__10_">
		<path class="st38" d="M109.3044128,126.3265305c0,4.7877579-3.8811111,8.6684341-8.668251,8.6684341l0,0
			c-4.7857971,0-8.6671371-3.8806763-8.6671371-8.6684341c0,0-0.6964722-34.9663391,6.875206-35.0649948
			c7.5717239-0.100441,4.4833145-0.1012878,4.4833145-0.1012878
			C108.1140137,91.1602478,109.3044128,126.3265305,109.3044128,126.3265305z"/>
		<path class="st1" d="M108.4045181,121.8661423c0,4.2918701-3.4788589,7.7701035-7.7694321,7.7701035l0,0
			c-4.2905655,0-7.769249-3.4782333-7.769249-7.7701035c0,0-0.6233368-31.3449707,6.1630478-31.4322662
			c6.7872849-0.0907898,4.0195084-0.0907898,4.0195084-0.0907898
			C107.338562,90.3430862,108.4045181,121.8661423,108.4045181,121.8661423z"/>
	</g>
	<g class="st39">
		<path class="st40" d="M79.5622025,139.9049683c1.8873291,2.8331299,5.0071335,4.6088715,8.7983856,5.0138702
			c3.8662567,0.3998108,7.9549332-0.6736908,11.5069275-3.0407715l1.3326721,2.0048218
			c-4.0127716,2.6746368-8.6655807,3.8930664-13.0951385,3.4280548c-4.5038376-0.475235-8.2556839-2.6312103-10.5476685-6.0733032
			L79.5622025,139.9049683z"/>
	</g>
	<g id="_x34__19_">
		<path d="M107.2466354,102.1545181c-0.6158829,0.8492126-1.0049133,1.7231369-1.2032013,2.6051865
			c-1.6218643-0.6115875-3.4488373-0.9520111-5.3815842-0.9441605c-1.9931641,0.0080872-3.8714523,0.3869553-5.5242615,1.0475082
			c-0.1992569-0.8810043-0.5815887-1.7517929-1.1906357-2.5960312l-0.0000229-0.0055923
			c1.9137955-0.9854813,4.218071-1.5705948,6.7021942-1.5806808
			C103.0846939,100.6708603,105.3511429,101.2145844,107.2466354,102.1545181z"/>
		<path class="st41" d="M107.4094925,99.4581833c0,0,3.5453339-5.2161942,16.8959656-5.2124023l6.807579-0.0276337
			c0,0,11.4990692-0.4023438,13.5931244,10.4687881c0,0,2.0421753,15.1293869-12.9419556,19.6249847
			c0,0-7.9173355,3.4011841-20.2654572-10.2666397C111.4987488,114.0452805,103.2029419,105.8621292,107.4094925,99.4581833z"/>
		<g>
			<g>
				<path d="M129.3162842,125.5738297c-3.9433899,0.0160141-10.361824-1.8715134-18.5715714-10.9508133
					c-0.5699615-0.569046-8.6485596-8.8244324-4.1912308-15.612854c0.1622314-0.2403336,3.9599228-5.5946579,17.5246811-5.6497269
					l0.2305145-0.0009308l6.7932968-0.0275803c0.0061798-0.0011673,0.0566406-0.0036011,0.1326904-0.0039062
					c1.2579803-0.0051041,12.3404236,0.2665176,14.4478455,11.2094574l0.0076294,0.0423203
					c0.0218201,0.1587601,1.9573364,15.8705673-13.5661926,20.5589981
					C131.8514862,125.243042,130.883255,125.5674744,129.3162842,125.5738297z M124.0853577,95.1329422
					c-12.3391953,0.0500946-15.8024826,4.745903-15.8346405,4.7934113
					c-3.7792816,5.7555695,3.9057922,13.4462051,3.9821014,13.5239792l0.0344086,0.0371933
					c8.1340027,8.9998703,14.1682968,10.3248367,17.0418701,10.3131714
					c1.3115082-0.0053253,2.0300446-0.2886124,2.0374908-0.2930984l0.1032867-0.0366592
					c13.8191071-4.1474838,12.3451996-18.055687,12.2723236-18.657402
					c-1.8403931-9.4802322-11.3962097-9.7151337-12.4803314-9.7107315l-0.0916138,0.0014572l-6.8411942,0.027771
					L124.0853577,95.1329422z"/>
			</g>
		</g>
		<path class="st41" d="M93.7313538,99.51371c0,0-3.5912704-5.1872177-16.9395065-5.0750351l-6.8076477,0.0276413
			c0,0-11.5010071-0.3089676-13.5064011,10.578804c0,0-1.9208069,15.1454773,13.1008759,19.5192566
			c0,0,7.9437256,3.336792,20.1807785-10.4308395C89.7594528,114.1335373,97.9860611,105.8833084,93.7313538,99.51371z"/>
		<g>
			<g>
				<path d="M69.2250061,125.3941422c-15.559227-4.5622406-13.7532043-20.2892303-13.7314491-20.4481735l0.006073-0.0423737
					c2.0188255-10.9596939,13.0999641-11.3212967,14.3573112-11.3264008
					c0.0778961-0.0003128,0.1270981,0.001709,0.1339951,0.0028229l6.7904205-0.027565l0.2324295-0.000946
					c13.5628433-0.0550613,17.4038849,5.2682495,17.5693359,5.5072479
					c4.5117264,6.7520142-3.4996414,15.0727234-4.0649567,15.6463776
					c-8.1354446,9.1456604-14.5398788,11.0852356-18.4814224,11.1012421
					C70.4669647,125.8127441,69.4977264,125.4961777,69.2250061,125.3941422z M76.7954407,95.3249283l-6.8403091,0.027771
					l-0.0909882-0.0007172c-1.0838013,0.0044022-10.63834,0.3168869-12.4041977,9.8117523
					c-0.0645485,0.6022797-1.4273872,14.5219955,12.4262161,18.5571365l0.1029358,0.0358276
					c0.0075455,0.0044174,0.7286224,0.281868,2.040451,0.2765427c2.8735657-0.011673,8.8962631-1.3855896,16.9550171-10.4511948
					l0.036026-0.0374756c0.0769424-0.0783997,7.6986771-7.8311768,3.8727875-13.5558701
					c-0.0338135-0.0472412-3.535759-4.7147675-15.8723984-4.6646881L76.7954407,95.3249283z"/>
			</g>
		</g>
	</g>
</g>
</svg>
