<?xml version="1.0" encoding="utf-8"?>
<!-- Generator: Adobe Illustrator 20.0.0, SVG Export Plug-In . SVG Version: 6.00 Build 0)  -->
<svg version="1.1" id="Layer_1" xmlns="http://www.w3.org/2000/svg" xmlns:xlink="http://www.w3.org/1999/xlink" x="0px" y="0px"
	 viewBox="0 0 199.7573853 199.7573853" style="enable-background:new 0 0 199.7573853 199.7573853;" xml:space="preserve">
<style type="text/css">
	.st0{fill:#808C93;}
	.st1{fill:#F6E0D1;}
	.st2{opacity:0.43;fill:#432918;}
	.st3{fill:#F1F2F2;}
	.st4{opacity:0.83;fill:#36A9E1;}
	.st5{fill:#736759;}
	.st6{opacity:0.2;fill:#231F20;}
	.st7{fill:#432918;}
	.st8{opacity:0.2;fill:#EDEDED;}
	.st9{clip-path:url(#SVGID_2_);}
	.st10{fill:#F9F7EA;}
</style>
<circle class="st0" cx="100.2175751" cy="99.8835068" r="97.406929"/>
<g>
	<g id="_x34__4_">
		<path class="st1" d="M101.463913,165.5221405c27.8722229,0,38.9558105-51.7303085,38.9558105-51.7303085h0.8603821
			c0.0084076-21.9408264-0.1566925-48.6419601-0.1566925-48.6419601s-3.7310181-30.0967674-41.1352234-30.0967674
			c-37.4032173,0-41.2962303,32.1035652-41.2962303,46.9526863c0,14.8442383,0,35.3128967,0,35.3128967l2.6510277-2.7676163
			C62.1424141,125.9187851,82.3180237,165.5221405,101.463913,165.5221405z"/>
		<path class="st1" d="M65.7216721,110.3413086c0,5.5791931-3.5036469,10.1004639-7.8098412,10.1004639
			c-4.3157959,0-7.8109512-4.5212708-7.8109512-10.1004639c0-5.5767365,3.4951553-10.0954056,7.8109512-10.0954056
			C62.2180252,100.245903,65.7216721,104.7645721,65.7216721,110.3413086z"/>
		<ellipse class="st1" cx="142.7972717" cy="110.3425751" rx="7.8097916" ry="10.0979347"/>
		<path class="st1" d="M61.3429871,114.5510712c0.799427,11.3677139,4.378685,50.9710693,40.1209259,50.9710693
			c36.7837677,0,38.9558105-51.7303085,38.9558105-51.7303085"/>
	</g>
	<path class="st2" d="M141.2672272,100.4422073c-0.0377502-18.1184082-0.1438293-35.2923431-0.1438293-35.2923431
		s-3.7309875-30.0967865-41.135231-30.0967865c-37.4032211,0-41.2961769,32.1035385-41.2961769,46.9526901
		c0,5.7594299,0,12.3622971,0,18.291069c-0.0805779-0.0103607,0.5224915-30.7175217,11.5431786-47.947998
		c6.3171692-9.8766861,20.8031998-9.6824799,28.5222397-10.5860023
		C141.8497009,36.7188225,141.7621918,100.3150787,141.2672272,100.4422073z"/>
	<g id="_x39__3_">
		<path class="st3" d="M74.1741867,90.1708908c0-4.0390549,3.371666-7.3112488,7.5462723-7.3112488
			c4.1600876,0,7.5381088,3.2721939,7.5381088,7.3112488c0,4.0434723-3.3780212,7.3201218-7.5381088,7.3201218
			C77.5458527,97.4910126,74.1741867,94.2143631,74.1741867,90.1708908z"/>
		<path class="st4" d="M79.3619766,90.4171753c0-2.3022614,1.9216766-4.1665649,4.3019333-4.1665649
			c2.3697968,0,4.2941742,1.8643036,4.2941742,4.1665649c0,2.3022232-1.9243774,4.1691818-4.2941742,4.1691818
			C81.2836533,94.5863571,79.3619766,92.7193985,79.3619766,90.4171753z"/>
		<path class="st1" d="M72.7142258,92.6613464c0.2011871,4.5077667,4.0142059,8.1035995,8.718277,8.1035995
			c4.687973,0,8.505722-3.5958328,8.7069168-8.1035995H72.7142258z"/>
		<path class="st1" d="M90.1380692,88.6811905c0,0.0079269,0,0.0079269,0,0.0149994H72.7108459c0-0.0070724,0-0.0070724,0-0.0149994
			c0.008812-0.2040024,0.02491-0.4009933,0.0575333-0.5962143c0.5009232-4.2114182,4.1863861-7.4906769,8.656189-7.4906769
			c4.4860916,0,8.1552734,3.2792587,8.656395,7.4906769C90.1140366,88.2801971,90.1294403,88.4771881,90.1380692,88.6811905z"/>
		<path class="st3" d="M114.2512817,90.1708908c0-4.0390549,3.3721313-7.3112488,7.5472031-7.3112488
			c4.1600876,0,7.5376511,3.2721939,7.5376511,7.3112488c0,4.0434723-3.3775635,7.3201218-7.5376511,7.3201218
			C117.6234131,97.4910126,114.2512817,94.2143631,114.2512817,90.1708908z"/>
		<path class="st4" d="M114.8593979,90.4171295c0-2.3031158,1.9212265-4.1674194,4.3014679-4.1674194
			c2.3698044,0,4.29422,1.8643036,4.29422,4.1674194c0,2.302269-1.9244156,4.1692276-4.29422,4.1692276
			C116.7806244,94.5863571,114.8593979,92.7193985,114.8593979,90.4171295z"/>
		<path class="st1" d="M112.7922516,92.6613464c0.2007294,4.5077667,4.0132828,8.1035995,8.7175827,8.1035995
			c4.687973,0,8.5059586-3.5958328,8.7071609-8.1035995H112.7922516z"/>
		<path class="st1" d="M130.2151642,88.6811905c0,0.0079269,0,0.0079269,0,0.0149994h-17.4265289
			c0-0.0070724,0-0.0070724,0-0.0149994c0.0085907-0.2040024,0.0244522-0.4009933,0.0570679-0.5962143
			c0.5011597-4.2114182,4.1864014-7.4906769,8.6564331-7.4906769c4.4854355,0,8.1548157,3.2792587,8.6563873,7.4906769
			C130.1907196,88.2801971,130.206543,88.4771881,130.2151642,88.6811905z"/>
		<path class="st5" d="M90.1380692,88.6811905H72.7108459c0.008812-0.2040024,0.02491-0.4009933,0.0575333-0.5962143h17.3125839
			C90.1140366,88.2801971,90.1294403,88.4771881,90.1380692,88.6811905z"/>
		<path class="st5" d="M130.2151642,88.6811905h-17.4265289c0.0085907-0.2040024,0.0244522-0.4009933,0.0570679-0.5962143
			h17.3128204C130.1907196,88.2801971,130.206543,88.4771881,130.2151642,88.6811905z"/>
	</g>
	<g id="_x38__2_">
		<path class="st6" d="M108.8975983,106.7050095c-0.7060242,0-1.370369,0.1819992-1.9547119,0.4979248l-1.0902252-12.8758087
			c0-3.6201324-2.178894-6.5561447-4.8673325-6.5561447c-2.6886826,0-4.867836,2.9360123-4.867836,6.5561447l-0.9972763,12.3583527
			c-0.3199997-0.0801926-0.6526871-0.1276093-0.9965134-0.1276093c-2.3143158,0-3.1925049,2.0531006-3.1925049,4.4269867
			s1.8757324,4.2986984,4.1890182,4.2986984c0.6229095,0,1.2124176-0.1429672,1.7431717-0.3933411
			c0.8613586,1.8473663,2.3824005,3.080368,4.1219406,3.080368c1.8811951,0,3.5101852-1.4394226,4.3205338-3.5441208
			c0.6995544,0.5355911,1.5632477,0.8570938,2.5015182,0.8570938c2.3148117,0,4.1892548-1.9248123,4.1892548-4.2986984
			S111.2108841,106.7050095,108.8975983,106.7050095z"/>
		<path class="st1" d="M108.0549393,105.0479965c-0.6196136,0-1.2024002,0.1680679-1.7142715,0.4644699l-1.026413-11.9991913
			c0-3.3746567-1.9114532-6.1091003-4.2701874-6.1091003c-2.3589783,0-4.2699356,2.7344437-4.2699356,6.1091003
			l-0.9389038,11.5068359c-0.281044-0.0746231-0.5730438-0.1178665-0.8755569-0.1178665
			c-2.0291672,0-2.7362671,1.9206009-2.7362671,4.132019c0,2.212822,1.6460037,4.0064774,3.6759186,4.0064774
			c0.546463,0,1.0627289-0.1345749,1.5282745-0.3675232c0.7556305,1.7225342,2.0908661,2.8711319,3.6164703,2.8711319
			c1.6504059,0,3.0802155-1.3417664,3.7904892-3.3021011c0.6132507,0.4986343,1.3713303,0.7984924,2.1954269,0.7984924
			c2.0289307,0,3.674469-1.7936554,3.674469-4.0064774C110.7044525,106.8228455,110.08461,105.0479965,108.0549393,105.0479965z"/>
	</g>
	<path class="st7" d="M135.7160034,50.8463631c-1.3128052,9.0247383-16.80793,1.6319351-35.7298203,1.6319351
		c-17.3099289,0-31.7520828,6.1868744-35.0921631,0.3317871c-0.47715-0.8364449,15.3093796-23.3053818,35.0921631-23.3053818
		S135.7757263,50.4357567,135.7160034,50.8463631z"/>
	<path class="st8" d="M68.1575775,54.5692825c0.6963806-8.750988,8.5060806-14.7279434,8.5060806-14.7279434l-2.65522,5.9609528
		c0,0,6.861824-7.333992,9.2047653-7.8022461s-5.1073151,9.8103447-5.1073151,9.8103447l12.139473-10.9715004
		c0,0-6.0053482,5.9762802-6.5853348,8.8651962c-0.5799789,2.8889122,9.3676758-9.138958,9.3676758-9.138958l-5.7693634,11.2452621
		l9.8428802-11.4762077c0,0-1.9837189,5.47826-1.7847519,9.1175499s4.9621887-6.9614983,4.6697235-8.2421303
		s3.8858261,4.055336,3.9853134,6.972332c0.0994797,2.9169922,2.5865555-4.837944,1.5917282-6.5454559
		c-0.9948349-1.7075081,7.0757599,5.4462509,7.1192703,8.1658134c0.0435104,2.7195587,1.7677155-5.5334015,0.1097488-7.3832054
		c-1.6579666-1.8498001,9.3846588,3.4645004,9.5836258,7.0326462c0.198967,3.5681419,5.8694992-0.5583382,3.6808777-2.6927261
		c-2.1886292-2.1343842,6.4663925,1.636364,6.3669205,4.9802361c-0.0994873,3.3438721-1.3645782,7.4558487-1.3645782,7.4558487
		s1.7625122-4.8234367-0.028183-6.3886528c-1.7906952-1.5652199-7.2620544-0.4281197-7.1627884,2.9169922
		c0.0992661,3.3451157-0.397934-3.5573082-3.7803574-5.3359642c-3.382431-1.778656,0.5968933,7.7970695,0.2984467,8.8076248
		s-3.8798447-6.4598007-4.7751923-7.8827248s-2.7730637,4.7667961-2.9285202,6.118576
		c-0.1554565,1.3517761-2.0456314-5.47826-3.5378799-8.1818161s-3.0075912,8.4669266-2.9960403,8.1465073
		c0.0115433-0.3204231-0.4858704-7.1504593-1.0827713-7.1504593c-0.5968933,0-5.9646149,8.0600967-6.4642181,6.9826164
		c-0.4995956-1.0774803,1.3845978-7.425499,1.3845978-7.425499s-8.5495605,5.8499947-9.1464615,7.1306267
		s3.8798447-4.9090881,3.3824234-4.9090881c-0.4974136,0-8.7873077,4.9647102-9.9647064,6.1819572
		s3.3988266-4.6167412,4.5926208-5.5416412c1.1937943-0.9249039-10.9431458,3.9130402-11.739006,5.7628441
		c-0.7958679,1.8498001,2.5865555-4.837944,5.0736389-5.549408c2.4870758-0.7114601-10.1472778,3.4861679-10.6446991,5.4071159
		c-0.4974136,1.920948,0.7823944-4.1264839,2.231636-5.7628479c1.4492416-1.6363602-4.5197449,5.833992-4.5197449,5.833992
		L68.1575775,54.5692825z"/>
	<g>
		
			<rect x="80.3777695" y="71.5723724" transform="matrix(0.001722 -0.9999985 0.9999985 0.001722 -1.4849879 164.7389679)" class="st7" width="2.7823732" height="23.0817738"/>
	</g>
	<g>
		
			<rect x="118.6023865" y="71.5723724" transform="matrix(0.001722 -0.9999985 0.9999985 0.001722 36.6738091 202.9635315)" class="st7" width="2.7823732" height="23.0817738"/>
	</g>
</g>
<g>
	<g>
		<defs>
			<path id="SVGID_1_" d="M75.9215393,107.203804c0.6695938,15.1960831,11.8485184,27.2842941,25.5432892,27.2842941
				c13.6934128,0,24.8732376-12.0882111,25.5414734-27.2842941H75.9215393z"/>
		</defs>
		<clipPath id="SVGID_2_">
			<use xlink:href="#SVGID_1_"  style="overflow:visible;"/>
		</clipPath>
		<g id="_x35__3_" class="st9">
			<path class="st10" d="M118.3963165,127.7501068l0.0207596,2.6691437
				c0.0139389,1.5749207-1.2511978,2.8683472-2.8442459,2.8834534c-1.4032288,0.0083008-2.5789566-1.0097046-2.8313751-2.3491821
				c-0.2146683,1.3402405-1.3835983,2.3771057-2.7962875,2.3906708c-1.4081345,0.0060272-2.5898895-1.0021362-2.8430786-2.3499146
				c-0.211647,1.3553162-1.3722763,2.3800964-2.7872467,2.3883972c-1.5824661,0.0128326-2.8698578-1.2602234-2.8838043-2.8396759
				c0.0139465,1.5794525-1.2700348,2.8691254-2.8475876,2.8827209c-1.4127045,0.0105438-2.5899353-1.005188-2.8314209-2.3469391
				c-0.2278748,1.3432617-1.3768005,2.377121-2.7977982,2.3861542c-1.3420944,0.0128326-2.4502945-0.8980103-2.783844-2.1212616
				c-0.3044662,1.2270508-1.4126511,2.1575012-2.7476044,2.1635284c-1.5813446,0.0128326-2.8770447-1.259491-2.8883667-2.8396759
				l-0.0173492-2.66539L118.3963165,127.7501068z"/>
		</g>
	</g>
</g>
</svg>
