<?xml version="1.0" encoding="utf-8"?>
<!-- Generator: Adobe Illustrator 20.0.0, SVG Export Plug-In . SVG Version: 6.00 Build 0)  -->
<svg version="1.1" id="Laag_1" xmlns="http://www.w3.org/2000/svg" xmlns:xlink="http://www.w3.org/1999/xlink" x="0px" y="0px"
	 viewBox="0 0 31.2 31.2" style="enable-background:new 0 0 31.2 31.2;" xml:space="preserve">
<style type="text/css">
	.st0{fill:#FFFFFF;stroke:#3C3C3B;stroke-width:0.5;stroke-miterlimit:10;}
	.st1{fill:#03587B;}
	.st2{fill:#FFFFFF;}
	.st3{fill:#12100B;}
	.st4{fill:#FAB609;}
	.st5{fill:#EA5B0C;}
	.st6{fill:#F5DFD0;}
	.st7{opacity:0.61;}
	.st8{fill:#221E20;}
	.st9{fill:#726658;}
	.st10{opacity:0.2;}
	.st11{fill:#3C3C3B;}
	.st12{fill:#CABA9F;}
	.st13{opacity:0.35;clip-path:url(#SVGID_2_);}
	.st14{fill:#DBDBDB;}
	.st15{opacity:0.33;clip-path:url(#SVGID_2_);}
	.st16{fill:#2CAAE1;}
	.st17{fill:#DEDBAE;}
	.st18{opacity:0.33;}
	.st19{fill:#F0F1F1;}
	.st20{fill:#35A8E0;}
	.st21{opacity:0.2;fill:#221E20;}
	.st22{fill:#1D1D1B;}
	.st23{opacity:0.55;fill:#D9D9D9;}
	.st24{clip-path:url(#SVGID_4_);}
	.st25{fill:#F8F6E9;}
	.st26{fill:#AFABAD;}
	.st27{fill:#DEDBAE;stroke:#CABA9F;stroke-width:0.05217;stroke-miterlimit:10;}
</style>
<g id="Laag_3">
	<path class="st0" d="M15.8,29.3L15.8,29.3C8.2,29.3,2,23.1,2,15.6l0,0C2,8,8.2,1.8,15.8,1.8l0,0c7.6,0,13.8,6.2,13.8,13.8l0,0
		C29.5,23.1,23.3,29.3,15.8,29.3z"/>
	<path class="st1" d="M15.8,27.6L15.8,27.6c-6.6,0-12-5.4-12-12l0,0c0-6.6,5.4-12,12-12l0,0c6.6,0,12,5.4,12,12l0,0
		C27.8,22.2,22.4,27.6,15.8,27.6z"/>
	<g id="STEAMING_SAUSAGE_ON_FORK">
		<g id="fork_1_">
			<path class="st2" d="M15.8,29.1c-0.4,0-0.8-0.3-0.8-0.8v-4.6c-0.5-0.1-0.9-0.5-1.3-0.9c-0.4-0.6-0.6-1.3-0.6-2.1v-2.1h0.3
				c0.3,0,0.7,0.1,1,0.1h0.2v1.5H15v-1.5c0,0,0.6,0,0.8,0s0.8,0,0.8,0v1.5H17v-1.5h0.2c0.3,0,0.7-0.1,1-0.1h0.3v2.1
				c0,0.8-0.2,1.5-0.6,2.1c-0.3,0.5-0.8,0.8-1.3,0.9v4.6C16.6,28.8,16.2,29.1,15.8,29.1z"/>
			<path class="st3" d="M18.2,18.9v1.8c0,0.7-0.2,1.4-0.6,2c-0.3,0.5-0.8,0.8-1.3,0.9v4.8c0,0.3-0.2,0.5-0.5,0.5
				c-0.3,0-0.5-0.2-0.5-0.5v-4.8c-0.5-0.1-1-0.4-1.3-0.9c-0.4-0.5-0.6-1.2-0.6-2v-1.8c0.3,0,0.7,0.1,1,0.1v1.5h0.9v-1V19
				c0.2,0,0.3,0,0.5,0s0.3,0,0.5,0v0.5v1h0.9V19C17.5,18.9,17.9,18.9,18.2,18.9 M18.7,18.3l-0.6,0.1c-0.3,0-0.6,0.1-1,0.1h-0.4h-0.4
				c-0.2,0-0.3,0-0.5,0c-0.2,0-0.3,0-0.5,0h-0.4h-0.4c-0.3,0-0.7-0.1-1-0.1l-0.6-0.1v0.6v1.8c0,0.8,0.2,1.7,0.7,2.3
				c0.3,0.5,0.7,0.8,1.2,1v4.5c0,0.6,0.4,1,1,1s1-0.4,1-1V24c0.5-0.2,0.9-0.5,1.2-1c0.4-0.6,0.7-1.4,0.7-2.3v-1.8L18.7,18.3
				L18.7,18.3z"/>
		</g>
		<g id="sausage_2_">
			<path class="st4" d="M23.8,15.3c0-1.2-1-2.1-2.1-2.1c-0.5,0-1,0.2-1.4,0.5c-0.2,0.1-0.5,0.2-0.7,0.3c0,0,0,0-0.1,0
				c-0.6,0-1.1,0.2-1.5,0.6c-0.1,0-0.1,0-0.2,0c-0.6,0-1.1,0.2-1.4,0.6c-0.3-0.2-0.8-0.4-1.2-0.4c-0.2,0-0.4,0-0.6,0.1
				c-0.4-0.3-0.8-0.4-1.3-0.4c-0.2,0-0.3,0-0.5,0.1C12.4,14.2,12,14,11.4,14c-0.4-0.4-0.9-0.7-1.6-0.7c-1.2,0-2.1,1-2.1,2.1
				s0.9,2,2,2.1c0.4,0.4,0.9,0.7,1.6,0.7c0.2,0,0.3,0,0.5-0.1c0.4,0.4,0.9,0.6,1.5,0.6c0.2,0,0.4,0,0.6-0.1c0.4,0.3,0.8,0.4,1.3,0.4
				c0.6,0,1.1-0.2,1.4-0.6c0.3,0.2,0.8,0.4,1.2,0.4c0.6,0,1.1-0.2,1.5-0.6c0.1,0,0.1,0,0.2,0c0.5,0,0.9-0.2,1.2-0.4c0,0,0,0,0.1,0
				c0.5,0,1-0.2,1.4-0.5C23.1,17.1,23.8,16.3,23.8,15.3z"/>
			<path id="sausage_11_" class="st3" d="M24.3,13.7c0.1-0.4,0.1-0.8-0.1-0.9c-0.1,0-0.2,0-0.3,0.1l-0.3,0.6l-0.1,0.1l0,0
				c-0.4-0.6-1.1-1-1.8-1c-0.1,0-0.2,0-0.2,0c-0.7,0-1.2,0.3-1.9,0.7c-1,0.5-2.1,1.1-3.8,1.1S13,13.8,12,13.3
				c-0.7-0.4-1.3-0.7-1.9-0.7c-0.1,0-0.2,0-0.2,0c-0.8,0-1.4,0.4-1.8,1l0,0L8,13.5l-0.3-0.6c0-0.1-0.2-0.2-0.3-0.1
				c-0.2,0.1-0.2,0.5-0.1,0.9c-0.4,0.1-0.8,0.2-0.8,0.4c0,0.1,0.1,0.2,0.2,0.2h0.5h0.4c-0.1,0.2-0.1,0.5-0.1,0.8s0.1,0.8,0.1,0.8
				c0.4,1.1,1.5,2,3.3,2.6c1.4,0.4,3.2,0.7,4.9,0.7s3.5-0.3,4.9-0.7c1.8-0.6,2.9-1.5,3.3-2.6c0.1-0.3,0.1-0.6,0.1-0.8
				c0-0.3,0-0.5-0.1-0.8h0.4h0.5c0.1,0,0.2-0.1,0.2-0.2C25.1,13.9,24.7,13.8,24.3,13.7z M23.3,15.7L23.3,15.7
				c-0.4,1.1-1.7,1.8-2.8,2.1c-1.3,0.4-3,0.7-4.7,0.7s-3.3-0.2-4.7-0.7c-1.1-0.3-2.4-1-2.8-2.1c0-0.2-0.1-0.5-0.1-0.6
				c0-0.9,0.7-1.6,1.6-1.6c0.1,0,0.1,0,0.2,0l0,0l0,0c0.2,0,0.5,0.1,0.7,0.2L10,15.2c-0.1,0.2,0,0.4,0.2,0.5c0.1,0,0.1,0,0.2,0
				c0.1,0,0.3-0.1,0.3-0.2l0.7-1.5c0.1,0,0.1,0.1,0.2,0.1c0.4,0.2,0.9,0.5,1.4,0.7l0,0l-0.4,1.4c-0.1,0.2,0.1,0.4,0.3,0.5H13
				c0.2,0,0.3-0.1,0.4-0.3l0.4-1.4l0,0c0.5,0.1,1.1,0.2,1.7,0.3v1.2v0.3c0,0.2,0.2,0.4,0.4,0.4s0.4-0.2,0.4-0.4v-0.3v-1.2
				c0.6,0,1.2-0.1,1.7-0.3l0.4,1.4c0,0.2,0.2,0.3,0.4,0.3h0.1c0.2-0.1,0.3-0.3,0.3-0.5l-0.4-1.4l0,0c0.5-0.2,1-0.5,1.4-0.7
				c0.1,0,0.1-0.1,0.2-0.1l0.7,1.5c0.1,0.1,0.2,0.2,0.3,0.2c0.1,0,0.1,0,0.2,0c0.2-0.1,0.3-0.3,0.2-0.5l-0.7-1.5
				c0.2-0.1,0.5-0.2,0.7-0.2l0,0l0,0c0.1,0,0.1,0,0.2,0c0.9,0,1.6,0.7,1.6,1.6C23.4,15.3,23.3,15.5,23.3,15.7z"/>
			<g id="steam_2_">
				<path class="st3" d="M17.1,9.8c-0.3-0.2-0.5-0.5-0.5-0.8c0-0.4,0.1-0.8,0.4-1.1V7.8c0,0,0-0.1-0.1-0.1l0,0l0,0l0,0l0,0l0,0
					c-0.8,0.4-1.2,0.9-1.2,1.4c0,0.4,0.3,0.9,1,1.3c0.6,0.4,0.9,0.8,0.9,1.2c0,0.5-0.3,0.8-0.4,1v0.1c0,0,0,0.1,0.1,0.1l0,0l0,0l0,0
					l0,0l0,0c0.6-0.4,1.3-0.8,1.3-1.3C18.5,11,18,10.5,17.1,9.8z"/>
				<path class="st3" d="M14.6,9.8c-0.3-0.2-0.5-0.5-0.5-0.8c0-0.4,0.1-0.8,0.4-1.1V7.8c0,0,0-0.1-0.1-0.1l0,0l0,0l0,0l0,0l0,0
					c-0.8,0.4-1.2,0.9-1.2,1.4c0,0.4,0.3,0.9,1,1.3c0.6,0.4,0.9,0.8,0.9,1.2c0,0.5-0.3,0.8-0.4,1v0.1c0,0,0,0.1,0.1,0.1l0,0l0,0l0,0
					l0,0l0,0c0.6-0.4,1.3-0.8,1.3-1.3C16,11,15.6,10.5,14.6,9.8z"/>
			</g>
		</g>
	</g>
	<path class="st2" d="M15.9,1.8C8.3,1.8,2.1,8,2.1,15.6s6.2,13.7,13.7,13.7s13.7-6.2,13.7-13.7S23.4,1.8,15.9,1.8z M15.9,27.6
		c-6.6,0-12-5.4-12-12s5.4-12,12-12s12,5.4,12,12S22.5,27.6,15.9,27.6z"/>
</g>
<g id="Laag_2">
</g>
<g>
	<circle class="st5" cx="15.82115" cy="15.52061" r="14.06821"/>
</g>
<g>
	<g>
		<g id="_x34__8_">
			<g>
				<path class="st6" d="M14.69043,25.64245c0.24072,0.02313,0.48384,0.0389,0.72637,0.04695
					c0.11959,0.00101,0.24086-0.00034,0.36545-0.00604c6.5578-0.30826,5.80123-7.78776,5.80123-7.78776H21.707
					c0.00121-3.08431-0.0225-6.8378-0.0225-6.8378s-0.53564-4.23083-5.90558-4.23083c-5.3698,0-5.36436,4.58103-5.9287,6.60033
					c0,2.08672,0,4.96408,0,4.96408v0.54004C9.96499,20.52944,10.64726,25.12286,14.69043,25.64245z"/>
			</g>
			<g>
				<ellipse class="st6" cx="9.83525" cy="17.41074" rx="1.10147" ry="1.33503"/>
			</g>
			<g>
				<ellipse class="st6" cx="21.9707" cy="17.41074" rx="1.10138" ry="1.33503"/>
			</g>
		</g>
		<g id="_x39__8_" class="st7">
			<g>
				<path class="st8" d="M14.06551,15.17433h-2.01394c0.00102-0.03025,0.00288-0.05945,0.00665-0.08839h2.00069
					C14.06273,15.11489,14.06451,15.14409,14.06551,15.17433z"/>
				<path class="st9" d="M14.14469,15.25102h-2.17247l0.00275-0.07934c0.00113-0.03272,0.00317-0.06439,0.00733-0.09577
					l0.00875-0.06664h2.1351l0.00875,0.06664c0.00416,0.03145,0.00613,0.06312,0.00719,0.09598L14.14469,15.25102z"/>
			</g>
			<g>
				<path class="st8" d="M19.61612,15.17433h-2.01386c0.00099-0.03025,0.00283-0.05945,0.0066-0.08839h2.00072
					C19.61329,15.11489,19.61512,15.14409,19.61612,15.17433z"/>
				<path class="st9" d="M19.69534,15.25102h-2.17226l0.00261-0.07912c0.00106-0.03279,0.0031-0.06439,0.00712-0.09577
					l0.00867-0.06685h2.13545l0.00867,0.06685c0.00402,0.03138,0.00607,0.06298,0.00712,0.09577L19.69534,15.25102z"/>
			</g>
		</g>
		<g id="_x38__6_">
			<g class="st10">
				<path class="st8" d="M17.2743,16.71573c-0.12101,0-0.23487,0.02591-0.33502,0.07089l-0.18686-1.83308
					c0-0.51539-0.37345-0.93337-0.83422-0.93337c-0.46082,0-0.83431,0.41799-0.83431,0.93337l-0.17093,1.75942
					c-0.05484-0.01142-0.11187-0.01817-0.17079-0.01817c-0.39666,0-0.54717,0.29229-0.54717,0.63025
					c0,0.33796,0.32149,0.61199,0.71797,0.61199c0.10676,0,0.2078-0.02036,0.29877-0.056
					c0.14763,0.263,0.40833,0.43854,0.70647,0.43854c0.32242,0,0.60162-0.20493,0.74051-0.50456
					c0.1199,0.07625,0.26793,0.12202,0.42874,0.12202c0.39674,0,0.71801-0.27403,0.71801-0.61199
					C17.80545,16.98707,17.67078,16.71573,17.2743,16.71573z"/>
			</g>
			<g>
				<path class="st6" d="M17.20011,16.47982c-0.1128,0-0.2189,0.02393-0.31208,0.06613l-0.18686-1.70828
					c0-0.48044-0.34798-0.86973-0.77738-0.86973c-0.42945,0-0.77734,0.38929-0.77734,0.86973l-0.17093,1.63819
					c-0.05116-0.01062-0.10432-0.01678-0.15939-0.01678c-0.36941,0-0.49813,0.27343-0.49813,0.58826
					c0,0.31503,0.29965,0.57039,0.6692,0.57039c0.09948,0,0.19347-0.01916,0.27822-0.05232
					c0.13756,0.24523,0.38064,0.40875,0.65837,0.40875c0.30045,0,0.56075-0.19102,0.69005-0.47011
					c0.11164,0.07099,0.24965,0.11368,0.39968,0.11368c0.36936,0,0.66893-0.25536,0.66893-0.57039
					C17.68245,16.7325,17.5696,16.47982,17.20011,16.47982z"/>
			</g>
		</g>
		<g>
			<g>
				<g>
					<path class="st11" d="M19.61274,14.07536c-0.08052-0.26336-0.28638-0.47548-0.57993-0.59691
						c-0.30017-0.12409-0.65483-0.1393-0.99847-0.04255l-0.0571-0.18631c0.38916-0.10915,0.7925-0.09142,1.13567,0.05079
						c0.34976,0.14475,0.59645,0.40059,0.69386,0.72042L19.61274,14.07536z"/>
					<path class="st12" d="M19.61029,14.07988l-0.00106-0.00346c-0.08032-0.26248-0.28547-0.47362-0.57785-0.59449
						c-0.2995-0.12391-0.65324-0.13907-0.99604-0.04245l-0.00345,0.00092l-0.05931-0.1933l0.00367-0.00106
						c0.39033-0.10952,0.79463-0.09147,1.13807,0.05099c0.35112,0.1452,0.5983,0.4019,0.69597,0.7227l0.00113,0.0036
						l-0.00367,0.00106L19.61029,14.07988z M18.48329,13.36924c0.19316,0,0.38067,0.0354,0.55091,0.10578
						c0.29316,0.1213,0.49936,0.33279,0.58102,0.59583l0.18688-0.05261c-0.09774-0.31692-0.34287-0.57059-0.69061-0.71438
						c-0.34097-0.14132-0.74174-0.15973-1.12961-0.05169l0.05494,0.17919C18.18534,13.38983,18.33597,13.36924,18.48329,13.36924z"
						/>
				</g>
			</g>
			<g>
				<g>
					<path class="st11" d="M11.97964,14.14105l-0.19583-0.04889c0.08747-0.3225,0.32592-0.58535,0.67081-0.74032
						c0.33877-0.1518,0.74135-0.18141,1.13365-0.08341l-0.05085,0.18758c-0.34684-0.08652-0.70083-0.06116-0.99709,0.07173
						C12.25077,13.65769,12.05184,13.87546,11.97964,14.14105z"/>
					<path class="st12" d="M11.98223,14.14546l-0.00353-0.00085l-0.1995-0.04979l0.00099-0.00367
						c0.0878-0.32334,0.32672-0.58716,0.67284-0.74273c0.33963-0.15226,0.74301-0.18187,1.13616-0.08357l0.00367,0.00092
						l-0.05282,0.19464l-0.00353-0.00085c-0.34633-0.08639-0.69943-0.06086-0.9947,0.07158
						c-0.28829,0.12934-0.48667,0.34626-0.5586,0.61085L11.98223,14.14546z M11.78837,14.08947l0.18864,0.04711
						c0.07334-0.26516,0.27271-0.4825,0.56184-0.61219c0.29569-0.13265,0.64922-0.15867,0.99597-0.07285l0.04887-0.18039
						c-0.39026-0.09683-0.79047-0.06699-1.12763,0.08406C12.11333,13.50929,11.87631,13.76994,11.78837,14.08947z"/>
				</g>
			</g>
		</g>
	</g>
	<g>
		<path class="st11" d="M9.91295,16.35801c-0.4458-2.85861-0.6749-3.71903,0.33885-5.35692
			C6.89614,5.3815,20.92217,2.21414,21.7365,11.26105c1.45122-0.00957,0,4.6388,0,4.6388l-0.48977-4.86326
			c0,0-9.91333-1.36445-10.64961,0.26187C9.8999,12.8385,9.91295,16.35801,9.91295,16.35801z"/>
		<path class="st12" d="M9.9092,16.35855c-0.03032-0.19443-0.05945-0.37842-0.08766-0.55641
			c-0.19351-1.22255-0.32136-2.0303-0.28491-2.73713c0.0366-0.70895,0.24252-1.30704,0.71071-2.06401
			C9.87478,10.37639,9.70208,9.757,9.73409,9.16011c0.02962-0.55197,0.23251-1.07474,0.60303-1.55365
			c0.32031-0.4141,0.75507-0.78187,1.29223-1.09308c0.52291-0.30296,1.11861-0.53871,1.77057-0.70077
			c1.35591-0.33716,2.80829-0.31636,4.08902,0.05776c0.55267,0.16156,1.06776,0.38744,1.5308,0.6715
			c0.49245,0.30204,0.92827,0.67143,1.29554,1.09787c0.81374,0.94505,1.29307,2.16218,1.42467,3.61752
			c0.00028,0,0.00063,0,0.00099,0c0.17842,0,0.32179,0.07151,0.4263,0.21255c0.15367,0.20754,0.22673,0.56981,0.21721,1.07679
			c-0.00762,0.40507-0.0677,0.90309-0.17856,1.48017c-0.18871,0.98243-0.46304,1.86542-0.46579,1.87424l-0.0055,0.01763
			l-0.00183-0.01841l-0.48949-4.86031c-0.09943-0.01354-2.5444-0.34435-5.0455-0.47849
			c-1.49209-0.07983-2.71196-0.07525-3.6257,0.01375c-1.14082,0.11135-1.80414,0.35522-1.97149,0.72482
			c-0.35994,0.79506-0.52672,2.12783-0.60324,3.10596c-0.08293,1.06-0.08068,1.94321-0.08061,1.95202L9.9092,16.35855z
			 M15.35829,5.58152c-0.65486,0-1.31635,0.07934-1.95654,0.23843c-0.65126,0.16185-1.24632,0.39739-1.7686,0.69999
			c-0.53631,0.31072-0.97037,0.67778-1.29011,1.0911c-0.36946,0.47771-0.57186,0.99907-0.6014,1.54949
			c-0.03195,0.59597,0.14076,1.21458,0.51339,1.83863l0.0012,0.00197l-0.0012,0.0019
			c-0.46833,0.75669-0.67425,1.35422-0.71085,2.06239c-0.03646,0.70606,0.0914,1.51345,0.28483,2.73551
			c0.02588,0.1634,0.05254,0.33187,0.08018,0.50881c0.00085-0.19859,0.00867-0.98497,0.08061-1.90428
			c0.07659-0.97876,0.24351-2.31253,0.60387-3.10857c0.16854-0.37228,0.83391-0.61762,1.97769-0.72919
			c0.91402-0.08921,2.13432-0.09379,3.62683-0.01382c2.54116,0.13625,5.02427,0.47559,5.04903,0.47898l0.00296,0.00042
			l0.00028,0.00296l0.48793,4.84466c0.03977-0.13011,0.28625-0.9507,0.46008-1.85562c0.11079-0.57665,0.1708-1.07425,0.17842-1.4789
			c0.00952-0.50521-0.06312-0.86593-0.21579-1.07206c-0.10289-0.139-0.24429-0.20952-0.42024-0.20952
			c-0.00141,0-0.00289,0-0.00437,0.00007h-0.00346l-0.00028-0.00346c-0.13103-1.45534-0.60987-2.67211-1.42326-3.61674
			c-0.36671-0.42588-0.80197-0.7947-1.29371-1.09632c-0.46248-0.28371-0.97693-0.50937-1.52897-0.67073
			C16.81194,5.68046,16.08931,5.58152,15.35829,5.58152z"/>
	</g>
	<g>
		<defs>
			<path id="SVGID_1_" d="M9.91295,16.35801c-0.4458-2.85861-0.6749-3.71903,0.33885-5.35692
				C6.89614,5.3815,20.92217,2.21414,21.7365,11.26105c1.45122-0.00957,0,4.6388,0,4.6388l-0.48977-4.86326
				c0,0-9.91333-1.36445-10.64961,0.26187C9.8999,12.8385,9.91295,16.35801,9.91295,16.35801z"/>
		</defs>
		<clipPath id="SVGID_2_">
			<use xlink:href="#SVGID_1_"  style="overflow:visible;"/>
		</clipPath>
		<g class="st13">
			<path class="st14" d="M21.57182,12.03324c0.20519-0.04215,0.44007-0.08549,0.70846-0.12786
				c0.23506-0.03722,0.44679-0.07707,0.63788-0.12046l0.36551,0.15582c0,0-0.38136,0.34043-0.5172,0.37116
				c-0.13561,0.031,0.37314,0.05248,0.44969,0.0167c0.07703-0.03585-0.06946,0.27537-0.37892,0.40419
				c-0.30418,0.12635-0.99061,0.28463-1.01328,0.29007c0.02033,0.00157,0.62371,0.04349,0.77514,0.00019
				c-0.09833,0.06401-0.37041,0.24549-0.54953,0.28983c-0.24089,0.05912-0.31784,0.07025-0.31784,0.07025
				s0.35491,0.09334,0.47037,0.06405c0.11546-0.02936-0.41471,0.20601-0.41471,0.20601s0.47241,0.0538,0.76201-0.04879
				c0.26717-0.09486,0.03208,0.13317-0.11999,0.19324c0.04431-0.01103,0.11163-0.02782,0.18289-0.04523
				c-0.58109,0.33916-1.11491,0.42915-1.57673,0.38943l0.47501-0.12743c-0.02447-0.00329-0.41781-0.05057-0.57663-0.09911
				c-0.16463-0.04984-0.27621-0.08995-0.27621-0.08995s0.44754-0.07138,0.6252-0.16469
				c0.17813-0.09296,0.04637-0.10668-0.09781-0.13377c-0.14371-0.02729-0.2394-0.09774-0.2394-0.09774
				s0.42724-0.06994,0.53845-0.17718c0.11057-0.10707-0.39167-0.06059-0.62907-0.14371
				c-0.23737-0.08328,0.54265-0.07436,0.80736-0.27805c0.26447-0.20318,0.21375-0.22342-0.16897-0.22594
				c-0.38324-0.00212,0.15903-0.17493,0.28004-0.28295C21.86687,12.238,21.66791,12.09489,21.57182,12.03324z"/>
		</g>
		<g class="st13">
			<path class="st14" d="M9.80634,12.03324c0.20519-0.04215,0.44007-0.08549,0.70846-0.12786
				c0.23506-0.03722,0.4468-0.07707,0.63788-0.12046l0.36551,0.15582c0,0-0.38136,0.34043-0.5172,0.37116
				c-0.13561,0.031,0.37314,0.05248,0.44969,0.0167c0.07703-0.03585-0.06946,0.27537-0.37892,0.40419
				c-0.30418,0.12635-0.99061,0.28463-1.01327,0.29007c0.02033,0.00157,0.62371,0.04349,0.77515,0.00019
				c-0.09833,0.06401-0.37042,0.24549-0.54953,0.28983c-0.24089,0.05912-0.31784,0.07025-0.31784,0.07025
				s0.35491,0.09334,0.47037,0.06405c0.11546-0.02936-0.41471,0.20601-0.41471,0.20601s0.47241,0.0538,0.76201-0.04879
				c0.26717-0.09486,0.03208,0.13317-0.11999,0.19324c0.0443-0.01103,0.11163-0.02782,0.18289-0.04523
				c-0.58109,0.33916-1.11491,0.42915-1.57673,0.38943l0.47501-0.12743c-0.02446-0.00329-0.41781-0.05057-0.57663-0.09911
				c-0.16463-0.04984-0.27621-0.08995-0.27621-0.08995s0.44754-0.07138,0.6252-0.16469
				c0.17813-0.09296,0.04637-0.10668-0.09781-0.13377c-0.14371-0.02729-0.23941-0.09774-0.23941-0.09774
				s0.42724-0.06994,0.53845-0.17718c0.11057-0.10707-0.39167-0.06059-0.62907-0.14371
				c-0.23737-0.08328,0.54265-0.07436,0.80736-0.27805c0.26447-0.20318,0.21376-0.22342-0.16897-0.22594
				c-0.38324-0.00212,0.15903-0.17493,0.28004-0.28295C10.10139,12.238,9.90243,12.09489,9.80634,12.03324z"/>
		</g>
		<g class="st15">
			<path class="st14" d="M13.73916,6.28761c0.71071,2.08079,2.01231,2.92497,2.01231,2.92497s-0.9187-0.14149-1.11278-0.33627
				c-0.19423-0.19396,0.33179,0.75344,0.46831,0.83376c0.13716,0.08107-0.48114,0.31456-1.0098-0.03541
				c-0.51924-0.34442-1.5044-1.324-1.53723-1.356c0.01997,0.039,0.61965,1.18883,0.84932,1.39157
				c-0.20192-0.07438-0.76706-0.27328-1.0286-0.52403C12.02971,8.84811,11.929,8.72776,11.929,8.72776
				s0.25172,0.78589,0.42134,0.94641c0.16973,0.16041-0.75755-0.41574-0.75755-0.41574s0.43865,0.93372,0.90695,1.28987
				c0.43236,0.32823-0.16072,0.27-0.41573,0.09286c0.06479,0.06192,0.16327,0.15598,0.26698,0.25611
				c-1.13574-0.502-1.85319-1.31658-2.30094-2.20885l0.70806,0.64931c-0.02197-0.04916-0.38356-0.83057-0.48624-1.19305
				c-0.10714-0.37498-0.17044-0.63922-0.17044-0.63922s0.59552,0.68941,0.92748,0.85945
				C11.36087,8.53638,11.23663,8.278,11.11845,7.976c-0.11738-0.30146-0.11865-0.58559-0.11865-0.58559
				s0.57115,0.65528,0.85077,0.68383c0.27868,0.02767-0.34017-0.79962-0.47812-1.35831
				c-0.13768-0.55887,0.70414,0.85537,1.29386,1.00558c0.58871,0.15061,0.56289,0.0273,0.14713-0.66366
				c-0.41694-0.69125,0.4316,0.00642,0.72311,0.05131C13.76138,7.14379,13.7538,6.55842,13.73916,6.28761z"/>
		</g>
	</g>
	<g>
		<path class="st2" d="M12.64125,19.80267h6.71795c0,0,0.13625,3.1308-3.35859,3.16835
			C12.505,23.00734,12.64125,19.80267,12.64125,19.80267z"/>
	</g>
</g>
<circle class="st16" cx="15.85233" cy="15.57589" r="14.1235"/>
<g>
	<g>
		<path class="st17" d="M21.85397,13.24077c-0.01822,0.41181-0.03645,0.82361-0.05467,1.23542
			c0.04802-0.22108,0.09603-0.44216,0.14405-0.66324c-0.11335,0.29186-0.2267,0.58372-0.34006,0.87559
			c0.07117-0.20613,0.14233-0.41226,0.2135-0.61839c-0.0012,0.05989-0.0024,0.11977-0.0036,0.17966"/>
		<g>
			<path class="st12" d="M21.81614,13.24077c-0.01822,0.41181-0.03645,0.82361-0.05467,1.23542
				c-0.00187,0.04221,0.06519,0.05195,0.07429,0.01005c0.04802-0.22108,0.09603-0.44216,0.14405-0.66324
				c0.0105-0.04834-0.05552-0.06497-0.07294-0.02011c-0.11335,0.29186-0.2267,0.58372-0.34006,0.87559
				c0.02431,0.0067,0.04863,0.01341,0.07294,0.02011c0.07117-0.20613,0.14233-0.41226,0.2135-0.61839
				c-0.02477-0.00335-0.04953-0.0067-0.07429-0.01005c-0.0012,0.05989-0.0024,0.11977-0.0036,0.17966
				c-0.00097,0.0487,0.07467,0.04869,0.07565,0c0.0012-0.05989,0.0024-0.11977,0.0036-0.17966
				c0.00089-0.04429-0.0608-0.04915-0.07429-0.01005c-0.07117,0.20613-0.14233,0.41226-0.2135,0.61839
				c-0.01609,0.0466,0.05563,0.06468,0.07294,0.02011c0.11335-0.29186,0.22671-0.58372,0.34006-0.87559
				c-0.02431-0.0067-0.04863-0.01341-0.07294-0.02011c-0.04802,0.22108-0.09603,0.44216-0.14405,0.66324
				c0.02477,0.00335,0.04953,0.0067,0.07429,0.01005c0.01822-0.41181,0.03645-0.82361,0.05467-1.23542
				C21.89394,13.19209,21.81829,13.1922,21.81614,13.24077L21.81614,13.24077z"/>
		</g>
	</g>
	<g>
		<g id="_x35__5_">
			<ellipse class="st6" cx="9.56847" cy="17.12714" rx="1.05939" ry="1.29727"/>
			<ellipse class="st6" cx="22.13649" cy="17.12714" rx="1.05924" ry="1.29727"/>
			<path class="st6" d="M14.70844,25.27374c0.23855,0.02283,0.47947,0.0384,0.7198,0.04635
				c0.11851,0.001,0.23868-0.00034,0.36215-0.00597c6.49854-0.30428,5.74881-7.68714,5.74881-7.68714h0.12241
				c0.0012-3.04446-0.02229-6.74945-0.02229-6.74945s-0.5308-4.17616-5.85222-4.17616c-5.32127,0-5.87512,4.45462-5.87512,6.51506
				c0,2.05976,0,4.89994,0,4.89994v0.53307C10.02571,20.22679,10.70181,24.76087,14.70844,25.27374z"/>
		</g>
		<g id="_x36__4_" class="st18">
			<path class="st8" d="M12.34997,19.30537c0.09709,2.20335,1.71797,3.01911,3.70365,3.01911
				c1.98548,0,3.60649-0.81575,3.70338-3.01911c0,0-1.23955-0.38487-3.79361,0.5985
				C13.89579,19.27517,12.34997,19.30537,12.34997,19.30537z"/>
		</g>
		<g id="_x31_8_3_">
			<circle class="st19" cx="13.18746" cy="15.20694" r="0.83712"/>
			<circle class="st19" cx="18.51773" cy="15.20694" r="0.8371"/>
			<circle class="st20" cx="13.30791" cy="15.21932" r="0.47696"/>
			<circle class="st20" cx="18.37329" cy="15.22791" r="0.477"/>
		</g>
		<g>
			<g>
				<path class="st17" d="M13.62464,13.17713c-0.14985-0.23251-0.40132-0.38116-0.70821-0.41814
					c-0.31379-0.03773-0.64703,0.0447-0.93809,0.23234l-0.10614-0.16445c0.32973-0.21209,0.70883-0.30543,1.06767-0.26195
					c0.36567,0.04412,0.66748,0.22385,0.84912,0.50632L13.62464,13.17713z"/>
			</g>
			<g>
				<path class="st17" d="M18.35835,13.18436l-0.16627-0.10316c0.17707-0.2854,0.47576-0.47013,0.84056-0.52053
					c0.3582-0.0491,0.73884,0.0377,1.07189,0.24442l-0.10296,0.16601c-0.2945-0.18263-0.629-0.25961-0.94228-0.21654
					C18.75307,12.79671,18.50433,12.94937,18.35835,13.18436z"/>
			</g>
		</g>
		<path class="st8" d="M17.3502,21.6629"/>
		<g id="_x38__4_">
			<path class="st21" d="M17.24524,17.70354c-0.11701,0-0.22711,0.02611-0.32395,0.07145l-0.18068-1.84752
				c0-0.51945-0.3611-0.94073-0.80666-0.94073c-0.44559,0-0.80674,0.42128-0.80674,0.94073l-0.16528,1.77327
				c-0.05303-0.01151-0.10817-0.01831-0.16515-0.01831c-0.38355,0-0.52909,0.2946-0.52909,0.63522s0.31086,0.61681,0.69424,0.61681
				c0.10323,0,0.20093-0.02051,0.28889-0.05644c0.14275,0.26508,0.39483,0.442,0.68312,0.442
				c0.31177,0,0.58174-0.20654,0.71604-0.50854c0.11594,0.07685,0.25908,0.12298,0.41457,0.12298
				c0.38363,0,0.69428-0.27619,0.69428-0.61681S17.62862,17.70354,17.24524,17.70354z"/>
			<path class="st6" d="M17.1735,17.46578c-0.10907,0-0.21166,0.02411-0.30177,0.06664l-0.18068-1.72174
				c0-0.48422-0.33648-0.87658-0.75169-0.87658c-0.41526,0-0.75165,0.39236-0.75165,0.87658l-0.16528,1.65109
				c-0.04947-0.01071-0.10087-0.01691-0.15413-0.01691c-0.3572,0-0.48167,0.27558-0.48167,0.59289
				c0,0.31751,0.28975,0.57488,0.64708,0.57488c0.0962,0,0.18708-0.01931,0.26903-0.05273
				c0.13301,0.24716,0.36806,0.41197,0.63662,0.41197c0.29053,0,0.54222-0.19253,0.66725-0.47381
				c0.10795,0.07155,0.2414,0.11457,0.38647,0.11457c0.35716,0,0.64683-0.25737,0.64683-0.57488
				C17.6399,17.72045,17.53078,17.46578,17.1735,17.46578z"/>
		</g>
	</g>
	<g id="_x34__6_">
		<path class="st22" d="M16.73204,14.72627c-0.08059,0.11113-0.1315,0.22548-0.15745,0.34091
			c-0.21223-0.08003-0.45131-0.12458-0.70422-0.12355c-0.26082,0.00106-0.50661,0.05064-0.72289,0.13708
			c-0.02608-0.11529-0.07611-0.22924-0.1558-0.33971l0-0.00073c0.25043-0.12896,0.55197-0.20552,0.87703-0.20684
			C16.18741,14.53212,16.484,14.60327,16.73204,14.72627z"/>
		<path class="st23" d="M16.75335,14.37343c0,0,0.46393-0.68258,2.21097-0.68208l0.89083-0.00362
			c0,0,1.50474-0.05265,1.77877,1.36992c0,0,0.26723,1.9798-1.69356,2.56808c0,0-1.03605,0.44507-2.65189-1.34347
			C17.28846,16.28227,16.20289,15.21144,16.75335,14.37343z"/>
		<g>
			<path class="st22" d="M19.62002,17.79087c-0.51602,0.00209-1.35593-0.2449-2.43023-1.433
				c-0.07458-0.07446-1.13173-1.15475-0.54846-2.04306c0.02123-0.03145,0.51819-0.7321,2.29324-0.73931l0.03016-0.00012
				l0.88896-0.00361c0.00081-0.00015,0.00741-0.00047,0.01736-0.00051c0.16462-0.00067,1.61484,0.03488,1.89061,1.46685
				l0.001,0.00554c0.00286,0.02077,0.25613,2.07679-1.77524,2.6903C19.95177,17.74758,19.82508,17.79004,19.62002,17.79087z
				 M18.93552,13.80744c-1.61468,0.00656-2.06788,0.62104-2.07209,0.62726c-0.49455,0.75316,0.5111,1.75954,0.52109,1.76972
				l0.0045,0.00487c1.0644,1.1777,1.85403,1.35109,2.23006,1.34956c0.17162-0.0007,0.26565-0.03777,0.26662-0.03835l0.01351-0.0048
				c1.80834-0.54273,1.61547-2.36273,1.60593-2.44147c-0.24083-1.24056-1.49128-1.2713-1.63315-1.27072l-0.01199,0.00019
				l-0.89522,0.00363L18.93552,13.80744z"/>
		</g>
		<path class="st23" d="M14.96346,14.3807c0,0-0.46995-0.67879-2.21667-0.66411l-0.89083,0.00362c0,0-1.505-0.04043-1.76742,1.38432
			c0,0-0.25135,1.9819,1.71435,2.55425c0,0,1.0395,0.43665,2.64081-1.36496C14.4437,16.29382,15.52022,15.21421,14.96346,14.3807z"
			/>
		<g>
			<path class="st22" d="M11.75661,17.76736c-2.03605-0.59701-1.79971-2.655-1.79687-2.6758l0.00079-0.00555
				c0.26418-1.43416,1.71423-1.48148,1.87877-1.48215c0.01019-0.00004,0.01663,0.00022,0.01753,0.00037l0.88858-0.00361
				l0.03041-0.00012c1.77481-0.00721,2.27743,0.68939,2.29909,0.72067c0.59039,0.88355-0.45796,1.97238-0.53193,2.04745
				c-1.06459,1.19678-1.90266,1.45059-2.41844,1.45268C11.91913,17.82213,11.7923,17.78071,11.75661,17.76736z M12.74726,13.83257
				l-0.89511,0.00363l-0.01191-0.00009c-0.14182,0.00058-1.39211,0.04147-1.62319,1.28394
				c-0.00845,0.07881-0.18678,1.90032,1.62607,2.42834l0.01347,0.00469c0.00099,0.00058,0.09535,0.03688,0.26701,0.03619
				c0.37603-0.00153,1.16415-0.18131,2.2187-1.36762l0.00471-0.0049c0.01007-0.01026,1.00743-1.02477,0.50679-1.77389
				c-0.00443-0.00618-0.46268-0.61696-2.07703-0.61041L12.74726,13.83257z"/>
		</g>
	</g>
	<g>
		<defs>
			<path id="SVGID_3_" d="M12.34997,19.30537c0.09709,2.20335,1.71797,3.01911,3.70365,3.01911
				c1.98548,0,3.60649-0.81575,3.70338-3.01911c0,0-1.23955-0.38487-3.79361,0.5985
				C13.89579,19.27517,12.34997,19.30537,12.34997,19.30537z"/>
		</defs>
		<use xlink:href="#SVGID_3_"  style="overflow:visible;fill:#B1B1B1;"/>
		<clipPath id="SVGID_4_">
			<use xlink:href="#SVGID_3_"  style="overflow:visible;"/>
		</clipPath>
		<g class="st24">
			<path class="st25" d="M19.44258,17.34043l0.01031,2.55206c0.0041,0.46152,0.03106,0.83982-0.57268,0.83784
				c-0.57349-0.00188-0.57198,0.20554-0.57589-1.51109c0.00408,1.7893,0.09226,1.52138-0.56152,1.51923
				c-0.58965-0.00194-0.57391,0.30039-0.57803-1.51001c0.00394,1.72865,0.0026,1.52108-0.56145,1.51923
				c-0.54989-0.0018-0.58151,0.27378-0.58591-1.65661c0.00417,1.8282,0.17604,1.66735-0.57171,1.6649
				c-0.51932-0.00171-0.57145,0.1391-0.57521-1.51174c0.00382,1.67809,0.14102,1.52263-0.56152,1.52032
				c-0.62126-0.00204-0.56369,0.23128-0.56752-1.44821c0.00385,1.68857,0.06218,1.45798-0.55129,1.45596
				c-0.61347-0.00201-0.58153-0.36693-0.5854-0.82846l-0.00864-2.55182L19.44258,17.34043z"/>
			<path class="st26" d="M13.50245,20.82935c-0.03561,0-0.07519-0.0022-0.11944-0.00467
				c-0.05536-0.00311-0.1193-0.00673-0.193-0.00701c-0.62678-0.00198-0.62833-0.37311-0.63025-0.80278l-0.0092-2.66789
				l6.93724-0.05232l0.01097,2.64757c0.00311,0.2856,0.00574,0.53226-0.14754,0.68674
				c-0.09799,0.09869-0.25056,0.14669-0.46635,0.14669c-0.00411,0-0.00821,0.00007-0.01246,0
				c-0.05798,0-0.10995,0.00212-0.15653,0.00404c-0.14436,0.00573-0.24893,0.01005-0.32319-0.0611
				c-0.02648-0.02534-0.04765-0.05862-0.06457-0.10421c-0.01423,0.06237-0.0354,0.10358-0.06641,0.13282
				c-0.06535,0.06181-0.15809,0.05551-0.29891,0.04602c-0.06174-0.00418-0.13452-0.00913-0.22018-0.00941
				c-0.08078,0.00042-0.15278,0.00559-0.21452,0.01069c-0.1268,0.01062-0.2182,0.0182-0.28581-0.04389
				c-0.03653-0.03356-0.06202-0.08453-0.07986-0.16687c-0.01869,0.07356-0.04446,0.12184-0.07986,0.15569
				c-0.07356,0.07023-0.17615,0.06535-0.31874,0.05869c-0.04765-0.00227-0.10096-0.00482-0.16064-0.00503
				c-0.06641-0.00142-0.1263,0.00382-0.17848,0.00729c-0.12751,0.0085-0.22811,0.01536-0.30174-0.05345
				c-0.02797-0.02612-0.05076-0.06096-0.06924-0.11094c-0.01317,0.04305-0.03172,0.07533-0.05728,0.10096
				c-0.07406,0.0742-0.19073,0.07172-0.38451,0.06705c-0.04963-0.00113-0.10485-0.00241-0.16638-0.00262
				c-0.04-0.00028-0.07745,0.00057-0.11229,0.00127c-0.15455,0.00326-0.26663,0.00524-0.34875-0.07519
				c-0.03051-0.02981-0.05522-0.06903-0.07519-0.12354c-0.01331,0.06591-0.03476,0.1108-0.06811,0.14393
				c-0.07257,0.07221-0.184,0.06917-0.36935,0.06485c-0.0485-0.0012-0.10266-0.00255-0.16305-0.00276
				c-0.07717-0.00134-0.14117,0.00304-0.19774,0.00588c-0.14535,0.00729-0.241,0.01196-0.30896-0.05281
				c-0.02308-0.02188-0.04113-0.05027-0.05522-0.0885c-0.01444,0.0439-0.03349,0.07554-0.05855,0.0994
				C13.64179,20.81824,13.58217,20.82935,13.50245,20.82935z M12.64162,17.43705l0.00899,2.57748
				c0.00184,0.4279,0.00304,0.7106,0.53969,0.71237c0.07554,0.00021,0.14103,0.00389,0.19781,0.00708
				c0.12368,0.00687,0.19873,0.01126,0.23767-0.02591c0.05331-0.05062,0.0691-0.19335,0.07257-0.48858
				c-0.00255-0.13657-0.00241-0.30535-0.0022-0.51477c0.00014-0.11646,0.00021-0.24546-0.00007-0.38833l0,0l0.09076-0.00014
				c0.00035,0.14953,0.00113,0.28411,0.00184,0.40504c0.00113,0.20107,0.00205,0.36447,0.00043,0.49778
				c0.00524,0.28744,0.0223,0.42741,0.07561,0.47817c0.03979,0.03802,0.1159,0.0342,0.24178,0.02789
				c0.05805-0.00283,0.12319-0.00665,0.20262-0.00595c0.0611,0.00014,0.1159,0.00156,0.16503,0.00276
				c0.16064,0.00375,0.25799,0.0063,0.30309-0.03844c0.06726-0.0669,0.06528-0.26896,0.05706-0.70678
				c-0.00623-0.19243-0.00857-0.43222-0.0092-0.7322c0-0.00007,0-0.00014,0-0.00021l0,0l0.09076-0.00014
				c0.00064,0.27873,0.00496,0.50691,0.0085,0.69347c0.00007,0.00354,0.00014,0.00708,0.00021,0.01055
				c0.01359,0.44065,0.04651,0.6391,0.12347,0.71435c0.05494,0.05381,0.14627,0.05197,0.28348,0.04935
				c0.0354-0.00071,0.07441-0.00134,0.11434-0.00127c0.06216,0.00021,0.11802,0.00149,0.16815,0.00262
				c0.16942,0.00404,0.27158,0.0063,0.31817-0.04043c0.05267-0.05274,0.0623-0.19335,0.05905-0.45127
				c-0.01444-0.24687-0.01798-0.60476-0.01919-1.13029c0-0.00007,0-0.00007,0-0.00014l0,0l0.09076-0.00014
				c0.00085,0.34755,0.00765,0.62154,0.0131,0.84172c0.00276,0.10896,0.0051,0.20347,0.00616,0.28567
				c0.01628,0.27158,0.04637,0.40943,0.10287,0.46217c0.04305,0.04007,0.10959,0.03774,0.23371,0.02924
				c0.05423-0.00361,0.11646-0.0068,0.18485-0.00743c0.06117,0.00021,0.11583,0.00276,0.16461,0.0051
				c0.12468,0.00602,0.20645,0.00984,0.25169-0.03363c0.09629-0.09204,0.10145-0.44497,0.09997-1.27557
				c-0.00007-0.0126-0.00007-0.0252-0.00007-0.03802l-0.00028-0.13169l0,0l0.09076-0.00014
				c0.00014,0.06152,0.00028,0.1205,0.00043,0.17721c0.0017,0.84434,0.00404,1.19628,0.09317,1.27812
				c0.0366,0.0337,0.09947,0.03009,0.21686,0.02032c0.06365-0.00524,0.13756-0.01069,0.22231-0.01097
				c0.08793,0.00028,0.16262,0.00531,0.22599,0.00956c0.11717,0.008,0.19399,0.01324,0.23052-0.02145
				c0.06117-0.0577,0.06783-0.2587,0.06506-0.67761c-0.00425-0.19972-0.00481-0.45283-0.00552-0.7751c0-0.00304,0-0.00609,0-0.00913
				l0.09076-0.00014c0,0.00057,0,0.00113,0,0.0017c0.0005,0.21714,0.00227,0.40391,0.00375,0.56455
				c0.00071,0.07802,0.00142,0.14988,0.00184,0.21601c0.0085,0.40341,0.03165,0.586,0.10018,0.65163
				c0.0463,0.04439,0.13027,0.04106,0.25671,0.0359c0.04984-0.00198,0.10669-0.00319,0.16815-0.00404
				c0.19753,0.0017,0.32574-0.03852,0.40645-0.11993c0.12652-0.12751,0.12404-0.35654,0.12121-0.62175l-0.0005-0.05034
				l-0.01019-2.50675L12.64162,17.43705z"/>
		</g>
		<g class="st24">
			<path class="st25" d="M12.61086,24.22135l-0.01031-2.55206c-0.0041-0.46152-0.03106-0.83982,0.57268-0.83784
				c0.57349,0.00188,0.57198-0.20554,0.57589,1.51109c-0.00408-1.7893-0.09226-1.52138,0.56152-1.51923
				c0.58965,0.00194,0.5739-0.30039,0.57803,1.51001c-0.00394-1.72865-0.0026-1.52108,0.56145-1.51923
				c0.54989,0.0018,0.58151-0.27378,0.58591,1.65661c-0.00416-1.8282-0.17603-1.66735,0.57171-1.6649
				c0.51932,0.00171,0.57146-0.1391,0.57521,1.51174c-0.00382-1.67809-0.14102-1.52263,0.56152-1.52032
				c0.62126,0.00204,0.56369-0.23128,0.56752,1.44821c-0.00385-1.68857-0.06218-1.45798,0.55129-1.45596
				c0.61347,0.00201,0.58153,0.36693,0.5854,0.82846l0.00864,2.55182L12.61086,24.22135z"/>
			<path class="st26" d="M12.56565,24.26711l-0.01097-2.64757c-0.00311-0.2856-0.00573-0.53226,0.14754-0.68674
				c0.09798-0.09869,0.25056-0.14669,0.46635-0.14669c0.00432,0.00014,0.00835,0,0.01239,0
				c0.05805,0,0.11002-0.00212,0.15661-0.00403c0.14443-0.00559,0.24893-0.01012,0.32319,0.0611
				c0.02648,0.02535,0.04765,0.05862,0.0645,0.10422c0.0143-0.06237,0.03547-0.10365,0.06641-0.13282
				c0.06549-0.06166,0.15845-0.05544,0.29891-0.04602c0.06181,0.00418,0.13452,0.00913,0.22018,0.00942
				c0.08036,0.00057,0.15278-0.00552,0.21452-0.01069c0.12666-0.01069,0.2182-0.01813,0.28588,0.04389
				c0.03653,0.03356,0.06202,0.08446,0.07986,0.1668c0.01869-0.07349,0.04446-0.12177,0.07986-0.15561
				c0.07349-0.07023,0.17615-0.06535,0.31873-0.05869c0.04765,0.00227,0.10096,0.00481,0.16064,0.00503
				c0.06804,0.0005,0.12623-0.00375,0.17848-0.00729c0.12751-0.00857,0.22811-0.01529,0.30174,0.05345
				c0.02797,0.02612,0.05076,0.06096,0.06924,0.11087c0.01317-0.04297,0.03165-0.07526,0.05728-0.10089
				c0.07413-0.07413,0.19137-0.07143,0.38451-0.06705c0.04963,0.00113,0.10485,0.00241,0.16638,0.00262
				c0.04,0.00014,0.07752-0.00057,0.11229-0.00127c0.15469-0.00297,0.26663-0.00524,0.34875,0.07519
				c0.03051,0.02981,0.05522,0.06903,0.07519,0.12354c0.01331-0.06591,0.03476-0.1108,0.06811-0.14393
				c0.07264-0.07221,0.18415-0.06917,0.36935-0.06485c0.0485,0.0012,0.10266,0.00255,0.16305,0.00276
				c0.07653-0.00043,0.1411-0.00311,0.19774-0.00588c0.14514-0.00758,0.24079-0.01211,0.30896,0.05282
				c0.02308,0.02188,0.04113,0.05027,0.05522,0.0885c0.01444-0.0439,0.03349-0.07554,0.05855-0.0994
				c0.0674-0.064,0.1622-0.05876,0.30535-0.05076c0.05536,0.00311,0.1193,0.00673,0.193,0.00701
				c0.62678,0.00198,0.62833,0.37304,0.63025,0.80271l0.00913,2.66796L12.56565,24.26711z M13.1685,20.87686
				c-0.19031,0-0.32178,0.03922-0.40185,0.11993c-0.12652,0.12751-0.12404,0.35654-0.12121,0.62175l0.0005,0.05034l0.01019,2.50676
				l6.75564-0.05091l-0.00892-2.57748c-0.00184-0.4279-0.00304-0.7106-0.5397-0.71237
				c-0.07554-0.00021-0.14103-0.00389-0.19781-0.00708c-0.12397-0.00701-0.1988-0.0114-0.23767,0.02591
				c-0.05331,0.05062-0.0691,0.19335-0.07257,0.48865c0.00255,0.1365,0.00241,0.30528,0.00219,0.5147
				c-0.00014,0.11646-0.00021,0.24546,0.00007,0.38833l0,0l-0.09076,0.00014c0-0.00007,0-0.00014,0-0.00021
				c-0.00035-0.14953-0.00113-0.2839-0.00184-0.40483c-0.00113-0.20107-0.00205-0.36454-0.00042-0.49778
				c-0.00524-0.28744-0.0223-0.42741-0.07561-0.47817c-0.04-0.03816-0.11604-0.03434-0.24178-0.02789
				c-0.05806,0.00283-0.12666,0.00595-0.20263,0.00595c-0.0611-0.00021-0.1159-0.00156-0.16503-0.00276
				c-0.161-0.00396-0.25813-0.0063-0.30309,0.03844c-0.06726,0.0669-0.06528,0.26896-0.05706,0.70678
				c0.00623,0.1925,0.00857,0.43229,0.0092,0.73241l-0.09076,0.00014c-0.00064-0.27873-0.00496-0.50692-0.0085-0.69347
				c-0.00007-0.00361-0.00014-0.00708-0.00021-0.01062c-0.01359-0.44065-0.04651-0.63902-0.12347-0.71428
				c-0.05501-0.05388-0.14627-0.05232-0.28348-0.04935c-0.03533,0.00071-0.07236,0.00191-0.11434,0.00127
				c-0.06216-0.00021-0.11802-0.00149-0.16815-0.00262c-0.16928-0.00389-0.27144-0.00623-0.31824,0.04043
				c-0.0526,0.05274-0.06223,0.19328-0.05905,0.45098c0.01451,0.24694,0.01805,0.6049,0.01926,1.13072l-0.09076,0.00014
				c-0.00085-0.34762-0.00765-0.62168-0.01317-0.84193c-0.00269-0.10896-0.00503-0.20347-0.00616-0.28574
				c-0.01621-0.27144-0.0463-0.40914-0.1028-0.46189c-0.0429-0.04-0.10931-0.03759-0.23371-0.02924
				c-0.05409,0.00361-0.11229,0.00665-0.18485,0.00743c-0.06117-0.00021-0.11583-0.00276-0.16461-0.0051
				c-0.12411-0.00574-0.20623-0.00977-0.25176,0.03363c-0.09544,0.09126-0.10131,0.43859-0.0999,1.25306
				c0,0.01989,0.00007,0.04007,0.00007,0.06053l0.00028,0.13161c0,0.00007,0,0.00007,0,0.00007l-0.09076,0.00014
				c-0.00021-0.06959-0.00035-0.13593-0.00042-0.1993c-0.00177-0.82834-0.00481-1.1749-0.09317-1.25603
				c-0.03653-0.03356-0.0994-0.02988-0.21693-0.02032c-0.06365,0.00538-0.13416,0.01381-0.22231,0.01097
				c-0.08793-0.00028-0.16262-0.00531-0.22599-0.00956c-0.11675-0.00793-0.19385-0.01317-0.23045,0.02145
				c-0.06117,0.0577-0.06783,0.25863-0.06506,0.67761c0.00418,0.19916,0.00482,0.45155,0.00552,0.77269
				c0,0.00382,0,0.00765,0,0.01154l-0.09076,0.00014c0-0.00043,0-0.00085,0-0.00135c-0.0005-0.21728-0.00227-0.40419-0.00375-0.5649
				c-0.00071-0.07809-0.00142-0.14995-0.00184-0.21608c-0.0085-0.40341-0.03165-0.58593-0.10018-0.65156
				c-0.04637-0.04439-0.1302-0.04106-0.25671-0.03589c-0.04977,0.00198-0.1057,0.00404-0.16815,0.00404
				C13.17161,20.87686,13.17006,20.87686,13.1685,20.87686z"/>
		</g>
	</g>
	<path class="st27" d="M9.95002,15.917c-0.44158-2.89011-0.66851-3.76002,0.33564-5.41596
		c-3.32389-5.68152,10.56938-8.88379,11.37599,0.26283c1.43748-0.00967,0,4.68992,0,4.68992l-0.48513-4.91686
		c0,0-9.8195-1.37949-10.54881,0.26475C9.93709,12.3587,9.95002,15.917,9.95002,15.917z"/>
</g>
</svg>
