<?xml version="1.0" encoding="utf-8"?>
<!-- Generator: Adobe Illustrator 20.1.0, SVG Export Plug-In . SVG Version: 6.00 Build 0)  -->
<svg version="1.1" id="Layer_1" xmlns="http://www.w3.org/2000/svg" xmlns:xlink="http://www.w3.org/1999/xlink" x="0px" y="0px"
	 viewBox="0 0 199.8 199.8" style="enable-background:new 0 0 199.8 199.8;" xml:space="preserve">
<style type="text/css">
	.st0{fill:#E84480;}
	.st1{fill:#F5DFD0;}
	.st2{opacity:0.2;fill:#221E20;}
	.st3{fill:#F0F1F1;}
	.st4{opacity:0.83;fill:#35A8E0;}
	.st5{fill:#726658;}
	.st6{opacity:0.3;}
	.st7{fill:#221E20;}
	.st8{opacity:0.12;fill:#221E20;}
	.st9{fill:#F8F6E9;}
	.st10{fill:#826B52;}
	.st11{opacity:0.76;}
	.st12{fill:#404041;}
</style>
<circle class="st0" cx="99.9" cy="101.2" r="97.5"/>
<g>
	<g>
		<g id="_x34__1_">
			<path class="st1" d="M90.9,169.6c1.9,0.2,3.9,0.3,5.8,0.4c1,0,1.9,0,2.9,0c52.8-2.3,46.7-58.8,46.7-58.8h1c0-23.3-5-52-5-52
				s0.5-21.5-42.7-21.5c-28.4,0-38.1,14.7-42.8,26.3C54.4,69.9,52,72,52,77.4c0,15.8,0,37.5,0,37.5v4.1
				C52.9,131,58.4,165.7,90.9,169.6z"/>
			<path class="st1" d="M61.2,107.4c0,5.6-3.5,10.1-7.9,10.1c-4.4,0-7.9-4.5-7.9-10.1c0-5.6,3.5-10.1,7.9-10.1
				C57.7,97.4,61.2,101.9,61.2,107.4z"/>
			<ellipse class="st1" cx="147.1" cy="107.5" rx="7.9" ry="10.1"/>
		</g>
		<g id="_x38__1_">
			<path class="st2" d="M109.3,109.9c-0.9,0-1.7,0.2-2.4,0.5L105.6,97c0-3.8-2.7-6.9-6-6.9c-3.3,0-6,3.1-6,6.9l-1.2,12.9
				c-0.4-0.1-0.8-0.1-1.2-0.1c-2.8,0-3.9,2.1-3.9,4.6c0,2.5,2.3,4.5,5.1,4.5c0.8,0,1.5-0.1,2.1-0.4c1.1,1.9,2.9,3.2,5.1,3.2
				c2.3,0,4.3-1.5,5.3-3.7c0.9,0.6,1.9,0.9,3.1,0.9c2.8,0,5.1-2,5.1-4.5C113.1,111.9,112.1,109.9,109.3,109.9z"/>
			<path class="st1" d="M108.8,108.2c-0.8,0-1.6,0.2-2.2,0.5l-1.3-12.5c0-3.5-2.5-6.4-5.6-6.4c-3.1,0-5.6,2.9-5.6,6.4l-1.2,12
				c-0.4-0.1-0.7-0.1-1.1-0.1c-2.6,0-3.6,2-3.6,4.3c0,2.3,2.1,4.2,4.8,4.2c0.7,0,1.4-0.1,2-0.4c1,1.8,2.7,3,4.7,3
				c2.1,0,4-1.4,4.9-3.5c0.8,0.5,1.8,0.8,2.9,0.8c2.6,0,4.8-1.9,4.8-4.2C112.2,110,111.4,108.2,108.8,108.2z"/>
		</g>
		<g id="_x39__1_">
			<path class="st3" d="M131,88.3c0,4.4-3.6,8-8.1,8c-4.5,0-8.1-3.6-8.1-8c0-4.4,3.6-8,8.1-8C127.4,80.3,131,83.9,131,88.3z"/>
			<path class="st4" d="M125.4,88c0,2.5-2.1,4.5-4.6,4.5c-2.5,0-4.6-2-4.6-4.5c0-2.5,2.1-4.5,4.6-4.5
				C123.4,83.5,125.4,85.5,125.4,88z"/>
			<path class="st1" d="M113.9,89.9C113.9,89.9,113.9,89.9,113.9,89.9l18.7,0c0,0,0,0,0,0c0,0.2,0,0.4-0.1,0.6
				c-0.5,4.6-4.5,8.2-9.3,8.2c-4.8,0-8.7-3.6-9.3-8.2C113.9,90.3,113.9,90.1,113.9,89.9z"/>
			<path class="st3" d="M88,88.3c0,4.4-3.6,8-8.1,8c-4.5,0-8.1-3.6-8.1-8c0-4.4,3.6-8,8.1-8C84.4,80.3,88,83.9,88,88.3z"/>
			<path class="st4" d="M87.3,88c0,2.5-2.1,4.5-4.6,4.5c-2.5,0-4.6-2-4.6-4.5c0-2.5,2.1-4.5,4.6-4.5C85.3,83.5,87.3,85.5,87.3,88z"
				/>
			<path class="st1" d="M70.9,89.9C70.9,89.9,70.9,89.9,70.9,89.9l18.7,0c0,0,0,0,0,0c0,0.2,0,0.4-0.1,0.6c-0.5,4.6-4.5,8.2-9.3,8.2
				c-4.8,0-8.7-3.6-9.3-8.2C70.9,90.3,70.9,90.1,70.9,89.9z"/>
			<path class="st5" d="M113.9,89.9h18.7c0,0.2,0,0.4-0.1,0.6h-18.6C113.9,90.3,113.9,90.1,113.9,89.9z"/>
			<path class="st5" d="M70.9,89.9h18.7c0,0.2,0,0.4-0.1,0.6H70.9C70.9,90.3,70.9,90.1,70.9,89.9z"/>
		</g>
	</g>
	<g>
		<g id="_x36__1_" class="st6">
			<path class="st7" d="M120.8,147.4c-3.3-16-11.2-22.7-23.2-20.2c-12,2.5-16.3,9.7-12.6,27.6L120.8,147.4z"/>
		</g>
		<g id="_x35__1_">
			<path class="st8" d="M84.9,154.3l-0.6-2.8c-0.4-1.7,0.7-3.3,2.4-3.7c1.5-0.3,2.9,0.5,3.5,1.9c-0.1-1.5,0.9-2.8,2.4-3.1
				c1.5-0.3,3,0.5,3.5,1.9c-0.1-1.5,0.9-2.8,2.4-3.1c1.7-0.4,3.3,0.7,3.7,2.4c-0.4-1.7,0.7-3.3,2.4-3.7c1.5-0.3,3,0.5,3.5,1.9
				c0-1.5,0.9-2.8,2.4-3.1c1.4-0.3,2.8,0.4,3.4,1.6c0.1-1.4,1-2.6,2.4-2.9c1.7-0.4,3.3,0.7,3.7,2.4l0.6,2.8L84.9,154.3z"/>
			<path class="st9" d="M85,154.9l-0.6-2.8c-0.4-1.7,0.7-3.3,2.4-3.7c1.5-0.3,2.9,0.5,3.5,1.9c-0.1-1.5,0.9-2.8,2.4-3.1
				c1.5-0.3,3,0.5,3.5,1.9c-0.1-1.5,0.9-2.8,2.4-3.1c1.7-0.4,3.3,0.7,3.7,2.4c-0.4-1.7,0.7-3.3,2.4-3.7c1.5-0.3,3,0.5,3.5,1.9
				c0-1.5,0.9-2.8,2.4-3.1c1.4-0.3,2.8,0.4,3.4,1.6c0.1-1.4,1-2.6,2.4-2.9c1.7-0.4,3.3,0.7,3.7,2.4l0.6,3L85,154.9z"/>
		</g>
	</g>
	<path class="st10" d="M52,101.4c1.2,0,6.3,0.3,6,0c-0.3-0.3-2.3-6.9-2.1-12.2s1.9-11.9,3.2-12.9c1.3-1,1.5-35.9,42.7-24.8
		c7-1.9,40.1-9.1,40.1,24.9c3.5,6,1.4,23.5,1.4,23.5l5.1-0.3c0,0-1.2-40.1-4.6-54.2c-2.7-1.2-4.9-1.8-2.3-3.7
		c-2.9-3.1-11.9-6.5-17.6-4.9c0,0,0.9-3.1,5.3-5.4c-10-1-21.1-1.4-27,1.2c3.5-4,2.8-4.9,6.2-6.4c-13.2,1.7-26.9,5.9-39.6,16.1
		c-0.9-4-0.9-2.6-0.9-4c0-1.4-12.2,9.9-12.6,25.5L52,61.5V101.4z"/>
	<g class="st11">
		<polygon class="st12" points="76.9,75.1 73.4,74.1 70.4,75.8 71.5,77.9 73.8,76.7 91.5,81.8 92.2,79.5 76.9,75.1 		"/>
		<polygon class="st12" points="131.3,75.8 128.4,74.1 128.4,74.1 128.4,74.1 128.4,74.1 124.9,75.1 124.9,75.1 109.6,79.5 
			110.3,81.8 127.9,76.7 130.1,77.9 		"/>
	</g>
</g>
</svg>
