<?xml version="1.0" encoding="utf-8"?>
<!-- Generator: Adobe Illustrator 20.0.0, SVG Export Plug-In . SVG Version: 6.00 Build 0)  -->
<svg version="1.1" id="Layer_1" xmlns="http://www.w3.org/2000/svg" xmlns:xlink="http://www.w3.org/1999/xlink" x="0px" y="0px"
	 viewBox="0 0 199.7573853 199.7573853" style="enable-background:new 0 0 199.7573853 199.7573853;" xml:space="preserve">
<style type="text/css">
	.st0{fill:#F39200;}
	.st1{fill:#F6E0D1;}
	.st2{fill:#715E4B;}
	.st3{fill:#3A2A1B;}
	.st4{opacity:0.2;}
	.st5{fill:#231F20;}
	.st6{opacity:0.2;fill:#231F20;}
	.st7{fill:#F1F2F2;}
	.st8{fill:#432918;}
	.st9{fill:#736759;}
</style>
<circle class="st0" cx="99.8786926" cy="99.8786926" r="97.406929"/>
<g id="_x32__13_">
	<path class="st1" d="M150.9197083,108.7993011c0.6038208-1.3616409,0.9466858-2.9262314,0.9466858-4.5887146
		c0-5.3184891-3.5231323-9.6272583-7.869278-9.6272583c-0.3287659,0-0.6528931,0.0325851-0.9747314,0.0815353
		c-0.5735016-26.7787857-1.5015564-46.3480759-43.743721-45.7511787
		c-39.2088432,0.5502243-42.3332481,27.8233223-41.3784523,46.376133c-0.5957031-0.1748962-1.2112236-0.2775574-1.8489532-0.2775574
		c-4.3432732,0-7.8628235,4.3112793-7.8628235,9.6297607c0,2.7746277,0.9629135,5.2694244,2.5000496,7.0251465
		c-2.9663506,4.5513458-4.7011757,9.9747696-4.7011757,15.8131561c0,11.7165298,6.9617615,21.7774887,16.9644585,26.3567734
		c8.1548309,4.8615112,22.8593063,8.1048126,39.6448135,8.1048126c20.8027573,0,38.4043503-4.9804077,44.312706-11.8447418
		c6.617218-5.320755,10.8607941-13.4674683,10.8607941-22.6168442
		C157.7700806,120.3525162,155.1841888,113.8448868,150.9197083,108.7993011z"/>
</g>
<g id="_x33__11_">
	<path class="st2" d="M76.1362228,119.5596771c-0.0094528,0.1001358-0.0216522,0.1994629-0.0092773,0.2982483
		c0.2821426,2.1638565,6.0725098,3.194931,12.9347305,2.3042221c6.8616486-0.8900375,12.1972733-3.366478,11.9170761-5.5302887
		c-0.0126724-0.09729-0.0493317-0.1917572-0.0850372-0.2861938L76.1362228,119.5596771z"/>
	<path class="st2" d="M127.6356812,121.6633301c-0.0220871,0.0996246-0.043129,0.1985931-0.0882874,0.2950211
		c-0.9762344,2.1124573-7.0240479,2.6599579-13.5080719,1.2240829c-6.4831848-1.4351425-10.9484177-4.3119278-9.970192-6.4243393
		c0.0449219-0.0949326,0.1106491-0.1852264,0.1764221-0.2755127L127.6356812,121.6633301z"/>
</g>
<path id="_x32__11_" class="st2" d="M126.2814941,123.0100555v16.0673218c0,8.1128998-8.6579132,14.6903229-19.3385696,14.6903229
	h-9.6700287c-10.6790009,0-19.336998-6.5774231-19.336998-14.6903229v-16.5950165
	c-2.1759949,2.3753662-3.453331,5.259819-3.453331,8.3737946v18.8901062c0,8.1128387,8.6579132,14.6903229,19.3370056,14.6903229
	h16.116684c10.6790848,0,19.3385696-6.5774841,19.3385696-14.6903229v-18.8901062
	C129.274826,127.9693756,128.1722565,125.2806244,126.2814941,123.0100555z"/>
<path class="st3" d="M58.2718315,96.958046c0,0,0.2679939-13.9131546-4.6090469-25.1913452
	c-4.8739777-11.2764168,1.1910553-21.7773781,7.7532501-26.6549187c6.5558281-4.8749237,11.2422295-7.0802879,11.2422295-7.0802879
	s-0.7330093,5.2173615,3.0800552,7.5087585c3.8062515,2.2941513,2.2496262,1.279541,2.2496262,1.279541
	S74.059639,38.6796074,80.2281494,34.50354c6.1817398-4.1770611,8.6615524-4.1996498,8.6615524-4.1996498
	s-1.4739304,6.1438789,5.0993195,10.0947876c6.5811768,3.9485016,2.2621613,1.0401573,2.2621613,1.0401573
	s-4.0134735-6.1172829-2.8600922-8.4566078c1.1513214-2.3439255,1.1513214-2.3439255,1.1513214-2.3439255
	s-0.3478851,4.4007492,8.3953476,7.2402229c8.7434082,2.8409882,19.4183578,5.9943886,24.0896683,8.9132271
	c4.6689682,2.9216118,4.1207047,3.3788071,4.1207047,3.3788071l-2.3938751-6.890934c0,0,14.4171753,7.2341194,15.7514191,13.9608765
	c1.331955,6.7340508,3.9363098,17.4452286,0.3881378,26.8465424c-3.5496826,9.4115067-3.2582855,15.7407455-3.2582855,15.7407455
	s-0.5969696-21.3708801-6.6958923-28.5230484c-6.0989838-7.1506729-6.0989838-7.1506729-6.0989838-7.1506729
	s-35.064476,9.5082245-47.6335449,4.9727478c-12.5723572-4.5371094-10.4571381-4.3368301-10.4571381-4.3368301
	s-7.806057,5.1845169-9.0953255,15.5125732C60.3740921,90.6307907,58.2718315,96.958046,58.2718315,96.958046z"/>
<g>
	<g>
		<path class="st2" d="M110.5615616,73.9714432c0.2274246,1.7887039,1.2882004,3.3699951,2.9889526,4.4503937
			c1.7391968,1.1042557,3.9306641,1.5565643,6.1699295,1.271553l0.1617508,1.2655258
			c-2.5354156,0.3200531-5.0272598-0.1970978-7.015213-1.4618378c-2.0263519-1.2877197-3.2957687-3.1933441-3.5696793-5.3651962
			L110.5615616,73.9714432z"/>
	</g>
	<g>
		<path class="st2" d="M90.0766296,79.884552l1.0837936,0.6724319c-1.1541901,1.8603592-3.1011963,3.0644989-5.4791031,3.3930206
			c-2.3348618,0.3200531-4.8160477-0.2457657-6.98703-1.5932159l0.6711655-1.0820999
			c1.9196548,1.1904602,4.1000671,1.6922302,6.1421967,1.411499C87.5037155,82.4113998,89.1251221,81.4163361,90.0766296,79.884552z
			"/>
	</g>
</g>
<g class="st4">
	<path class="st5" d="M92.2332535,131.5255737c1.9120712,2.870285,5.0727768,4.6692963,8.9137192,5.0796051
		c3.9169388,0.4050446,8.0592041-0.6825256,11.6577606-3.0806274l1.3501434,2.0310974
		c-4.0653763,2.7096863-8.7791748,3.9441071-13.2667923,3.4729919c-4.5628738-0.4814606-8.3638992-2.6657104-10.6859283-6.1529236
		L92.2332535,131.5255737z"/>
</g>
<g>
	<path class="st6" d="M111.3349533,109.9437408c-0.0345688,3.9306488-4.1744003,7.1061707-9.2639313,7.0591354
		c-5.0877533-0.0555954-9.1698608-3.3095169-9.1213913-7.2472916c0.0452576-3.9445496,4.176178-7.0869293,9.257164-7.0398941
		C107.2913361,102.7609482,111.3802109,105.9988327,111.3349533,109.9437408z"/>
	<path class="st1" d="M110.3136292,108.6141586c-0.0470428,3.9498978-4.17939,7.1029663-9.2724915,7.0612793
		c-5.0670776-0.0573807-9.159874-3.2974014-9.1213913-7.2562027c0.0416946-3.9324341,4.1968536-7.0976257,9.2707062-7.0416794
		C106.2682266,101.4349365,110.3503342,104.6678314,110.3136292,108.6141586z"/>
</g>
<g id="_x39__2_">
	<path class="st7" d="M73.6995697,94.7074127c0-4.1623611,3.371666-7.5344391,7.5462799-7.5344391
		c4.1600876,0,7.5381088,3.3720779,7.5381088,7.5344391c0,4.1669083-3.3780212,7.5435867-7.5381088,7.5435867
		C77.0712357,102.2509995,73.6995697,98.874321,73.6995697,94.7074127z"/>
	<path class="st8" d="M78.8873596,91.7277298c0-2.3725433,1.9216843-4.2937622,4.3019409-4.2937622
		c2.3697968,0,4.2941742,1.9212189,4.2941742,4.2937622c0,2.3724976-1.9243774,4.2964554-4.2941742,4.2964554
		C80.8090439,96.0241852,78.8873596,94.1002274,78.8873596,91.7277298z"/>
	<path class="st1" d="M72.2396164,96.0160217c0.2011871,4.6453781,4.0142059,8.3509827,8.718277,8.3509827
		c4.687973,0,8.505722-3.7056046,8.7069168-8.3509827H72.2396164z"/>
	<path class="st1" d="M89.6634598,93.1722412c0,0.0081635,0,0.0081635,0,0.0154495H72.2362289c0-0.0072861,0-0.0072861,0-0.0154495
		c0.0088196-0.2102356,0.02491-0.4132385,0.0575409-0.6144257c0.5009232-4.3399734,4.1863861-7.7193451,8.656189-7.7193451
		c4.4860916,0,8.1552734,3.3793716,8.6563873,7.7193451C89.6394272,92.7590027,89.6548309,92.9620056,89.6634598,93.1722412z"/>
	<path class="st7" d="M113.7766724,94.7074127c0-4.1623611,3.3721313-7.5344391,7.5472031-7.5344391
		c4.1600876,0,7.5376511,3.3720779,7.5376511,7.5344391c0,4.1669083-3.3775635,7.5435867-7.5376511,7.5435867
		C117.1488037,102.2509995,113.7766724,98.874321,113.7766724,94.7074127z"/>
	<path class="st8" d="M114.3847885,94.961174c0-2.3734283,1.9212189-4.2946472,4.3014603-4.2946472
		c2.369812,0,4.2942276,1.9212189,4.2942276,4.2946472c0,2.3725433-1.9244156,4.2965012-4.2942276,4.2965012
		C116.3060074,99.2576752,114.3847885,97.3337173,114.3847885,94.961174z"/>
	<path class="st1" d="M112.3176422,96.0160217c0.2007217,4.6453781,4.0132751,8.3509827,8.7175827,8.3509827
		c4.687973,0,8.5059586-3.7056046,8.7071457-8.3509827H112.3176422z"/>
	<path class="st1" d="M129.7405548,93.1722412c0,0.0081635,0,0.0081635,0,0.0154495h-17.4265289
		c0-0.0072861,0-0.0072861,0-0.0154495c0.0085907-0.2102356,0.0244522-0.4132385,0.0570679-0.6144257
		c0.5011597-4.3399734,4.1864014-7.7193451,8.6564255-7.7193451c4.4854431,0,8.154808,3.3793716,8.656395,7.7193451
		C129.7161102,92.7590027,129.7319336,92.9620056,129.7405548,93.1722412z"/>
	<path class="st9" d="M89.6634598,93.1722412H72.2362289c0.0088196-0.2102356,0.02491-0.4132385,0.0575409-0.6144257h17.3125763
		C89.6394272,92.7590027,89.6548309,92.9620056,89.6634598,93.1722412z"/>
	<path class="st9" d="M129.7405548,93.1722412h-17.4265289c0.0085907-0.2102356,0.0244522-0.4132385,0.0570679-0.6144257h17.3128204
		C129.7161102,92.7590027,129.7319336,92.9620056,129.7405548,93.1722412z"/>
</g>
</svg>
