<?xml version="1.0" encoding="utf-8"?>
<!-- Generator: Adobe Illustrator 20.1.0, SVG Export Plug-In . SVG Version: 6.00 Build 0)  -->
<svg version="1.1" id="Layer_1" xmlns="http://www.w3.org/2000/svg" xmlns:xlink="http://www.w3.org/1999/xlink" x="0px" y="0px"
	 viewBox="0 0 199.8 199.8" style="enable-background:new 0 0 199.8 199.8;" xml:space="preserve">
<style type="text/css">
	.st0{fill:#6F6F6E;}
	.st1{fill:none;}
	.st2{fill:#CBD759;}
	.st3{fill:#F5DFD0;}
	.st4{fill:#F0F1F1;}
	.st5{opacity:0.68;fill:#422918;}
	.st6{opacity:0.2;}
	.st7{fill:#726658;}
	.st8{opacity:0.55;fill:#726658;}
	.st9{opacity:0.35;}
	.st10{clip-path:url(#SVGID_2_);}
	.st11{fill:#1D1D1B;}
	.st12{clip-path:url(#SVGID_4_);}
	.st13{clip-path:url(#SVGID_6_);}
	.st14{clip-path:url(#SVGID_8_);}
	.st15{clip-path:url(#SVGID_10_);}
	.st16{clip-path:url(#SVGID_12_);}
	.st17{clip-path:url(#SVGID_14_);}
	.st18{clip-path:url(#SVGID_16_);}
	.st19{clip-path:url(#SVGID_18_);}
	.st20{clip-path:url(#SVGID_20_);}
	.st21{opacity:0.2;fill:#221E20;}
	.st22{fill:#221E20;}
</style>
<circle class="st0" cx="99.9" cy="99.9" r="97.9"/>
<rect x="93.2" y="93.2" class="st1" width="13.4" height="13.4"/>
<path class="st1" d="M60.3,76.2h78.8c0,0,1,16.4-0.6,26.6c-1.9,11.5-16,20.9-37.4,20.9c-0.9,0-1.9,0-2.7,0c-1.7-0.1-3.3-0.1-5-0.1
	c-20.4,0-33-11.5-33-20.4C60.3,98.5,60.3,84.8,60.3,76.2z"/>
<g>
	<circle class="st2" cx="99.9" cy="99.9" r="98.2"/>
</g>
<g>
	<g id="_x35__1_">
		<path class="st3" d="M65.8,149c0,0,0.7,11.4,16.7,17.8c16,6.4,22.1,6.8,35.7,0.4c12.8-6,18.6-10.2,19.7-22.8
			c0.5-5.8,10.5-81.6,10.5-81.6s-4.2-21-46.4-21c-42.2,0-46.6,19.7-46.6,34.5L65.8,149z"/>
		<ellipse class="st3" cx="56.5" cy="102.4" rx="7.7" ry="13.9"/>
		<ellipse class="st3" cx="148" cy="102.4" rx="7.7" ry="13.9"/>
	</g>
	<g id="_x39__1_">
		<path class="st4" d="M72.9,92.4c0-4.4,3.6-8,8-8c4.4,0,8,3.6,8,8c0,4.4-3.6,8-8,8C76.5,100.4,72.9,96.9,72.9,92.4z"/>
		<path class="st5" d="M78.4,92.7c0-2.5,2-4.5,4.5-4.5c2.5,0,4.5,2,4.5,4.5c0,2.5-2,4.5-4.5,4.5C80.4,97.3,78.4,95.2,78.4,92.7z"/>
		<path class="st3" d="M89.8,90.8C89.8,90.8,89.8,90.8,89.8,90.8l-18.4,0c0,0,0,0,0,0c0-0.2,0-0.4,0.1-0.6c0.5-4.6,4.4-8.2,9.1-8.2
			c4.7,0,8.6,3.6,9.1,8.2C89.8,90.4,89.8,90.6,89.8,90.8z"/>
		<path class="st4" d="M115.3,92.4c0-4.4,3.6-8,8-8c4.4,0,8,3.6,8,8c0,4.4-3.6,8-8,8C118.8,100.4,115.3,96.9,115.3,92.4z"/>
		<g class="st6">
			<path class="st7" d="M131.7,101.2c0,0-0.2,0.3-0.5,0.7c-0.3,0.4-0.9,1-1.6,1.5c-1.5,1.1-3.8,1.9-6.3,2c-2.4,0-4.8-0.8-6.3-1.9
				c-0.8-0.5-1.3-1.1-1.6-1.5c-0.3-0.4-0.5-0.7-0.5-0.7s0.2,0.2,0.5,0.6c0.4,0.4,0.9,0.9,1.7,1.4c1.5,1,3.8,1.8,6.2,1.8
				c2.4,0,4.8-0.8,6.2-1.8c0.7-0.5,1.3-1,1.7-1.4C131.5,101.5,131.7,101.2,131.7,101.2z"/>
		</g>
		<g class="st6">
			<path class="st7" d="M90.1,101.1c0,0,0,0.1-0.1,0.2c-0.1,0.1-0.2,0.3-0.4,0.5c-0.3,0.4-0.9,1-1.6,1.5c-1.5,1.1-3.9,2-6.4,2
				c-2.5,0-4.9-0.8-6.4-1.9c-0.8-0.5-1.3-1.1-1.6-1.5c-0.2-0.2-0.3-0.4-0.4-0.5c-0.1-0.1-0.1-0.2-0.1-0.2s0,0.1,0.1,0.2
				c0.1,0.1,0.2,0.3,0.4,0.5c0.4,0.4,0.9,0.9,1.7,1.4c0.8,0.5,1.7,1,2.8,1.3c1.1,0.3,2.3,0.5,3.5,0.5c2.4,0,4.8-0.8,6.3-1.9
				c0.7-0.5,1.3-1.1,1.7-1.5c0.2-0.2,0.3-0.4,0.4-0.5C90.1,101.1,90.1,101.1,90.1,101.1z"/>
		</g>
		<path class="st5" d="M116.8,92.7c0-2.5,2-4.5,4.5-4.5c2.5,0,4.5,2,4.5,4.5c0,2.5-2,4.5-4.5,4.5C118.8,97.3,116.8,95.2,116.8,92.7z
			"/>
		<path class="st3" d="M132.1,90.8C132.1,90.8,132.1,90.8,132.1,90.8l-18.4,0c0,0,0,0,0,0c0-0.2,0-0.4,0.1-0.6
			c0.5-4.6,4.4-8.2,9.1-8.2c4.7,0,8.6,3.6,9.1,8.2C132.1,90.4,132.1,90.6,132.1,90.8z"/>
		<path class="st8" d="M134.1,86.1H70.3c0-0.7,0-1.4,0.1-2.1H134C134.1,84.7,134.1,85.4,134.1,86.1z"/>
	</g>
	<g class="st9">
		<g>
			<defs>
				<path id="SVGID_1_" d="M60.9,113.8l80.6,1.5l-3.6,29.1c-0.2,18.2-25.2,25.7-34.2,27.3c-0.9,0.2-2.2,0-3,0
					c-1.7-0.1-4.2-0.5-5.9-0.8c-19.9-4.1-27.3-13.5-29.1-23.4C64.6,142.2,61.4,124.1,60.9,113.8z"/>
			</defs>
			<clipPath id="SVGID_2_">
				<use xlink:href="#SVGID_1_"  style="overflow:visible;"/>
			</clipPath>
			<g class="st10">
				<g>
					<g>
						<ellipse class="st11" cx="144.9" cy="130.7" rx="0.3" ry="0.4"/>
						<ellipse class="st11" cx="138" cy="130.7" rx="0.3" ry="0.4"/>
						<ellipse class="st11" cx="144.9" cy="122.8" rx="0.3" ry="0.4"/>
						<ellipse class="st11" cx="138" cy="122.8" rx="0.3" ry="0.4"/>
						<ellipse class="st11" cx="134.5" cy="126.7" rx="0.3" ry="0.4"/>
						<ellipse class="st11" cx="141.4" cy="126.7" rx="0.3" ry="0.4"/>
						<ellipse class="st11" cx="134.5" cy="118.8" rx="0.3" ry="0.4"/>
						<ellipse class="st11" cx="141.4" cy="118.8" rx="0.3" ry="0.4"/>
					</g>
					<g>
						<ellipse class="st11" cx="131.1" cy="130.7" rx="0.3" ry="0.4"/>
						<ellipse class="st11" cx="131.1" cy="122.8" rx="0.3" ry="0.4"/>
					</g>
					<g>
						<ellipse class="st11" cx="144.9" cy="114.8" rx="0.3" ry="0.4"/>
						<ellipse class="st11" cx="138" cy="114.8" rx="0.3" ry="0.4"/>
					</g>
					<g>
						<ellipse class="st11" cx="131.1" cy="114.8" rx="0.3" ry="0.4"/>
					</g>
				</g>
			</g>
			<g class="st10">
				<g>
					<g>
						<ellipse class="st11" cx="144.9" cy="146.6" rx="0.3" ry="0.4"/>
						<ellipse class="st11" cx="138" cy="146.6" rx="0.3" ry="0.4"/>
						<ellipse class="st11" cx="144.9" cy="138.6" rx="0.3" ry="0.4"/>
						<ellipse class="st11" cx="138" cy="138.6" rx="0.3" ry="0.4"/>
						<ellipse class="st11" cx="134.5" cy="142.6" rx="0.3" ry="0.4"/>
						<ellipse class="st11" cx="141.4" cy="142.6" rx="0.3" ry="0.4"/>
						<ellipse class="st11" cx="134.5" cy="134.7" rx="0.3" ry="0.4"/>
						<ellipse class="st11" cx="141.4" cy="134.7" rx="0.3" ry="0.4"/>
					</g>
					<g>
						<ellipse class="st11" cx="131.1" cy="146.6" rx="0.3" ry="0.4"/>
						<ellipse class="st11" cx="131.1" cy="138.6" rx="0.3" ry="0.4"/>
					</g>
					<g>
						<ellipse class="st11" cx="144.9" cy="130.7" rx="0.3" ry="0.4"/>
						<ellipse class="st11" cx="138" cy="130.7" rx="0.3" ry="0.4"/>
					</g>
					<g>
						<ellipse class="st11" cx="131.1" cy="130.7" rx="0.3" ry="0.4"/>
					</g>
				</g>
			</g>
			<g class="st10">
				<g>
					<g>
						<ellipse class="st11" cx="144.9" cy="162.4" rx="0.3" ry="0.4"/>
						<ellipse class="st11" cx="138" cy="162.4" rx="0.3" ry="0.4"/>
						<ellipse class="st11" cx="144.9" cy="154.5" rx="0.3" ry="0.4"/>
						<ellipse class="st11" cx="138" cy="154.5" rx="0.3" ry="0.4"/>
						<ellipse class="st11" cx="134.5" cy="158.5" rx="0.3" ry="0.4"/>
						<ellipse class="st11" cx="141.4" cy="158.5" rx="0.3" ry="0.4"/>
						<ellipse class="st11" cx="134.5" cy="150.5" rx="0.3" ry="0.4"/>
						<ellipse class="st11" cx="141.4" cy="150.5" rx="0.3" ry="0.4"/>
					</g>
					<g>
						<ellipse class="st11" cx="131.1" cy="162.4" rx="0.3" ry="0.4"/>
						<ellipse class="st11" cx="131.1" cy="154.5" rx="0.3" ry="0.4"/>
					</g>
					<g>
						<ellipse class="st11" cx="138" cy="146.6" rx="0.3" ry="0.4"/>
					</g>
					<g>
						<ellipse class="st11" cx="131.1" cy="146.6" rx="0.3" ry="0.4"/>
					</g>
				</g>
			</g>
			<g class="st10">
				<g>
					<g>
						<ellipse class="st11" cx="144.9" cy="178.3" rx="0.3" ry="0.4"/>
						<ellipse class="st11" cx="138" cy="178.3" rx="0.3" ry="0.4"/>
						<ellipse class="st11" cx="144.9" cy="170.4" rx="0.3" ry="0.4"/>
						<ellipse class="st11" cx="138" cy="170.4" rx="0.3" ry="0.4"/>
						<ellipse class="st11" cx="134.5" cy="174.3" rx="0.3" ry="0.4"/>
						<ellipse class="st11" cx="141.4" cy="174.3" rx="0.3" ry="0.4"/>
						<ellipse class="st11" cx="134.5" cy="166.4" rx="0.3" ry="0.4"/>
						<ellipse class="st11" cx="141.4" cy="166.4" rx="0.3" ry="0.4"/>
					</g>
					<g>
						<ellipse class="st11" cx="131.1" cy="178.3" rx="0.3" ry="0.4"/>
						<ellipse class="st11" cx="131.1" cy="170.4" rx="0.3" ry="0.4"/>
					</g>
					<g>
						<ellipse class="st11" cx="138" cy="162.4" rx="0.3" ry="0.4"/>
					</g>
					<g>
						<ellipse class="st11" cx="131.1" cy="162.4" rx="0.3" ry="0.4"/>
					</g>
				</g>
			</g>
			<g class="st10">
				<g>
					<defs>
						<rect id="SVGID_3_" x="117.3" y="114.8" width="13.8" height="15.9"/>
					</defs>
					<clipPath id="SVGID_4_">
						<use xlink:href="#SVGID_3_"  style="overflow:visible;"/>
					</clipPath>
					<g class="st12">
						<ellipse class="st11" cx="131.1" cy="130.7" rx="0.3" ry="0.4"/>
						<ellipse class="st11" cx="124.2" cy="130.7" rx="0.3" ry="0.4"/>
						<ellipse class="st11" cx="131.1" cy="122.8" rx="0.3" ry="0.4"/>
						<ellipse class="st11" cx="124.2" cy="122.8" rx="0.3" ry="0.4"/>
						<ellipse class="st11" cx="120.7" cy="126.7" rx="0.3" ry="0.4"/>
						<ellipse class="st11" cx="127.6" cy="126.7" rx="0.3" ry="0.4"/>
						<ellipse class="st11" cx="120.7" cy="118.8" rx="0.3" ry="0.4"/>
						<ellipse class="st11" cx="127.6" cy="118.8" rx="0.3" ry="0.4"/>
					</g>
					<g class="st12">
						<ellipse class="st11" cx="117.3" cy="130.7" rx="0.3" ry="0.4"/>
					</g>
					<g class="st12">
						<ellipse class="st11" cx="131.1" cy="114.8" rx="0.3" ry="0.4"/>
						<ellipse class="st11" cx="124.2" cy="114.8" rx="0.3" ry="0.4"/>
					</g>
					<g class="st12">
						<ellipse class="st11" cx="117.3" cy="114.8" rx="0.3" ry="0.4"/>
					</g>
				</g>
			</g>
			<g class="st10">
				<g>
					<defs>
						<rect id="SVGID_5_" x="117.3" y="130.7" width="13.8" height="15.9"/>
					</defs>
					<clipPath id="SVGID_6_">
						<use xlink:href="#SVGID_5_"  style="overflow:visible;"/>
					</clipPath>
					<g class="st13">
						<ellipse class="st11" cx="131.1" cy="146.6" rx="0.3" ry="0.4"/>
						<ellipse class="st11" cx="124.2" cy="146.6" rx="0.3" ry="0.4"/>
						<ellipse class="st11" cx="131.1" cy="138.6" rx="0.3" ry="0.4"/>
						<ellipse class="st11" cx="124.2" cy="138.6" rx="0.3" ry="0.4"/>
						<ellipse class="st11" cx="120.7" cy="142.6" rx="0.3" ry="0.4"/>
						<ellipse class="st11" cx="127.6" cy="142.6" rx="0.3" ry="0.4"/>
						<ellipse class="st11" cx="120.7" cy="134.7" rx="0.3" ry="0.4"/>
						<ellipse class="st11" cx="127.6" cy="134.7" rx="0.3" ry="0.4"/>
					</g>
					<g class="st13">
						<ellipse class="st11" cx="117.3" cy="146.6" rx="0.3" ry="0.4"/>
						<ellipse class="st11" cx="117.3" cy="138.6" rx="0.3" ry="0.4"/>
					</g>
					<g class="st13">
						<ellipse class="st11" cx="131.1" cy="130.7" rx="0.3" ry="0.4"/>
						<ellipse class="st11" cx="124.2" cy="130.7" rx="0.3" ry="0.4"/>
					</g>
					<g class="st13">
						<ellipse class="st11" cx="117.3" cy="130.7" rx="0.3" ry="0.4"/>
					</g>
				</g>
			</g>
			<g class="st10">
				<g>
					<defs>
						<rect id="SVGID_7_" x="117.3" y="146.6" width="13.8" height="15.9"/>
					</defs>
					<clipPath id="SVGID_8_">
						<use xlink:href="#SVGID_7_"  style="overflow:visible;"/>
					</clipPath>
					<g class="st14">
						<ellipse class="st11" cx="131.1" cy="162.4" rx="0.3" ry="0.4"/>
						<ellipse class="st11" cx="124.2" cy="162.4" rx="0.3" ry="0.4"/>
						<ellipse class="st11" cx="131.1" cy="154.5" rx="0.3" ry="0.4"/>
						<ellipse class="st11" cx="124.2" cy="154.5" rx="0.3" ry="0.4"/>
						<ellipse class="st11" cx="120.7" cy="158.5" rx="0.3" ry="0.4"/>
						<ellipse class="st11" cx="127.6" cy="158.5" rx="0.3" ry="0.4"/>
						<ellipse class="st11" cx="120.7" cy="150.5" rx="0.3" ry="0.4"/>
						<ellipse class="st11" cx="127.6" cy="150.5" rx="0.3" ry="0.4"/>
					</g>
					<g class="st14">
						<ellipse class="st11" cx="117.3" cy="162.4" rx="0.3" ry="0.4"/>
						<ellipse class="st11" cx="117.3" cy="154.5" rx="0.3" ry="0.4"/>
					</g>
					<g class="st14">
						<ellipse class="st11" cx="131.1" cy="146.6" rx="0.3" ry="0.4"/>
						<ellipse class="st11" cx="124.2" cy="146.6" rx="0.3" ry="0.4"/>
					</g>
					<g class="st14">
						<ellipse class="st11" cx="117.3" cy="146.6" rx="0.3" ry="0.4"/>
					</g>
				</g>
			</g>
			<g class="st10">
				<g>
					<g>
						<ellipse class="st11" cx="131.1" cy="178.3" rx="0.3" ry="0.4"/>
						<ellipse class="st11" cx="124.2" cy="178.3" rx="0.3" ry="0.4"/>
						<ellipse class="st11" cx="131.1" cy="170.4" rx="0.3" ry="0.4"/>
						<ellipse class="st11" cx="124.2" cy="170.4" rx="0.3" ry="0.4"/>
						<ellipse class="st11" cx="120.7" cy="174.3" rx="0.3" ry="0.4"/>
						<ellipse class="st11" cx="127.6" cy="174.3" rx="0.3" ry="0.4"/>
						<ellipse class="st11" cx="120.7" cy="166.4" rx="0.3" ry="0.4"/>
						<ellipse class="st11" cx="127.6" cy="166.4" rx="0.3" ry="0.4"/>
					</g>
					<g>
						<ellipse class="st11" cx="117.3" cy="178.3" rx="0.3" ry="0.4"/>
						<ellipse class="st11" cx="117.3" cy="170.4" rx="0.3" ry="0.4"/>
					</g>
					<g>
						<ellipse class="st11" cx="131.1" cy="162.4" rx="0.3" ry="0.4"/>
						<ellipse class="st11" cx="124.2" cy="162.4" rx="0.3" ry="0.4"/>
					</g>
					<g>
						<ellipse class="st11" cx="117.3" cy="162.4" rx="0.3" ry="0.4"/>
					</g>
				</g>
			</g>
			<g class="st10">
				<g>
					<g>
						<ellipse class="st11" cx="117.3" cy="130.7" rx="0.3" ry="0.4"/>
						<ellipse class="st11" cx="110.4" cy="130.7" rx="0.3" ry="0.4"/>
					</g>
					<g>
						<ellipse class="st11" cx="103.4" cy="122.8" rx="0.3" ry="0.4"/>
					</g>
					<g>
						<ellipse class="st11" cx="117.3" cy="114.8" rx="0.3" ry="0.4"/>
						<ellipse class="st11" cx="110.4" cy="114.8" rx="0.3" ry="0.4"/>
					</g>
					<g>
						<ellipse class="st11" cx="103.4" cy="114.8" rx="0.3" ry="0.4"/>
					</g>
				</g>
			</g>
			<g class="st10">
				<g>
					<g>
						<ellipse class="st11" cx="117.3" cy="146.6" rx="0.3" ry="0.4"/>
						<ellipse class="st11" cx="117.3" cy="138.6" rx="0.3" ry="0.4"/>
						<ellipse class="st11" cx="110.4" cy="138.6" rx="0.3" ry="0.4"/>
						<ellipse class="st11" cx="106.9" cy="142.6" rx="0.3" ry="0.4"/>
						<ellipse class="st11" cx="106.9" cy="134.7" rx="0.3" ry="0.4"/>
						<ellipse class="st11" cx="113.8" cy="134.7" rx="0.3" ry="0.4"/>
					</g>
					<g>
						<ellipse class="st11" cx="103.4" cy="146.6" rx="0.3" ry="0.4"/>
						<ellipse class="st11" cx="103.4" cy="138.6" rx="0.3" ry="0.4"/>
					</g>
					<g>
						<ellipse class="st11" cx="117.3" cy="130.7" rx="0.3" ry="0.4"/>
						<ellipse class="st11" cx="110.4" cy="130.7" rx="0.3" ry="0.4"/>
					</g>
				</g>
			</g>
			<g class="st10">
				<g>
					<g>
						<ellipse class="st11" cx="117.3" cy="162.4" rx="0.3" ry="0.4"/>
						<ellipse class="st11" cx="110.4" cy="162.4" rx="0.3" ry="0.4"/>
						<ellipse class="st11" cx="117.3" cy="154.5" rx="0.3" ry="0.4"/>
						<ellipse class="st11" cx="110.4" cy="154.5" rx="0.3" ry="0.4"/>
						<ellipse class="st11" cx="106.9" cy="158.5" rx="0.3" ry="0.4"/>
						<ellipse class="st11" cx="113.8" cy="158.5" rx="0.3" ry="0.4"/>
						<ellipse class="st11" cx="113.8" cy="150.5" rx="0.3" ry="0.4"/>
					</g>
					<g>
						<ellipse class="st11" cx="103.4" cy="162.4" rx="0.3" ry="0.4"/>
						<ellipse class="st11" cx="103.4" cy="154.5" rx="0.3" ry="0.4"/>
					</g>
					<g>
						<ellipse class="st11" cx="117.3" cy="146.6" rx="0.3" ry="0.4"/>
					</g>
					<g>
						<ellipse class="st11" cx="103.4" cy="146.6" rx="0.3" ry="0.4"/>
					</g>
				</g>
			</g>
			<g class="st10">
				<g>
					<g>
						<ellipse class="st11" cx="117.3" cy="178.3" rx="0.3" ry="0.4"/>
						<ellipse class="st11" cx="110.4" cy="178.3" rx="0.3" ry="0.4"/>
						<ellipse class="st11" cx="117.3" cy="170.4" rx="0.3" ry="0.4"/>
						<ellipse class="st11" cx="110.4" cy="170.4" rx="0.3" ry="0.4"/>
						<ellipse class="st11" cx="106.9" cy="174.3" rx="0.3" ry="0.4"/>
						<ellipse class="st11" cx="113.8" cy="174.3" rx="0.3" ry="0.4"/>
						<ellipse class="st11" cx="106.9" cy="166.4" rx="0.3" ry="0.4"/>
						<ellipse class="st11" cx="113.8" cy="166.4" rx="0.3" ry="0.4"/>
					</g>
					<g>
						<ellipse class="st11" cx="103.4" cy="178.3" rx="0.3" ry="0.4"/>
						<ellipse class="st11" cx="103.4" cy="170.4" rx="0.3" ry="0.4"/>
					</g>
					<g>
						<ellipse class="st11" cx="117.3" cy="162.4" rx="0.3" ry="0.4"/>
						<ellipse class="st11" cx="110.4" cy="162.4" rx="0.3" ry="0.4"/>
					</g>
					<g>
						<ellipse class="st11" cx="103.4" cy="162.4" rx="0.3" ry="0.4"/>
					</g>
				</g>
			</g>
			<g class="st10">
				<g>
					<g>
						<ellipse class="st11" cx="96.5" cy="130.7" rx="0.3" ry="0.4"/>
						<ellipse class="st11" cx="103.4" cy="122.8" rx="0.3" ry="0.4"/>
						<ellipse class="st11" cx="93.1" cy="118.8" rx="0.3" ry="0.4"/>
						<ellipse class="st11" cx="100" cy="118.8" rx="0.3" ry="0.4"/>
					</g>
					<g>
						<ellipse class="st11" cx="89.6" cy="130.7" rx="0.3" ry="0.4"/>
					</g>
					<g>
						<ellipse class="st11" cx="103.4" cy="114.8" rx="0.3" ry="0.4"/>
						<ellipse class="st11" cx="96.5" cy="114.8" rx="0.3" ry="0.4"/>
					</g>
					<g>
						<ellipse class="st11" cx="89.6" cy="114.8" rx="0.3" ry="0.4"/>
					</g>
				</g>
			</g>
			<g class="st10">
				<g>
					<g>
						<ellipse class="st11" cx="103.4" cy="146.6" rx="0.3" ry="0.4"/>
						<ellipse class="st11" cx="96.5" cy="146.6" rx="0.3" ry="0.4"/>
						<ellipse class="st11" cx="103.4" cy="138.6" rx="0.3" ry="0.4"/>
						<ellipse class="st11" cx="96.5" cy="138.6" rx="0.3" ry="0.4"/>
						<ellipse class="st11" cx="100" cy="142.6" rx="0.3" ry="0.4"/>
						<ellipse class="st11" cx="93.1" cy="134.7" rx="0.3" ry="0.4"/>
						<ellipse class="st11" cx="100" cy="134.7" rx="0.3" ry="0.4"/>
					</g>
					<g>
						<ellipse class="st11" cx="89.6" cy="138.6" rx="0.3" ry="0.4"/>
					</g>
					<g>
						<ellipse class="st11" cx="96.5" cy="130.7" rx="0.3" ry="0.4"/>
					</g>
					<g>
						<ellipse class="st11" cx="89.6" cy="130.7" rx="0.3" ry="0.4"/>
					</g>
				</g>
			</g>
			<g class="st10">
				<g>
					<g>
						<ellipse class="st11" cx="103.4" cy="162.4" rx="0.3" ry="0.4"/>
						<ellipse class="st11" cx="96.5" cy="162.4" rx="0.3" ry="0.4"/>
						<ellipse class="st11" cx="103.4" cy="154.5" rx="0.3" ry="0.4"/>
						<ellipse class="st11" cx="96.5" cy="154.5" rx="0.3" ry="0.4"/>
						<ellipse class="st11" cx="83.1" cy="139" rx="0.3" ry="0.4"/>
						<ellipse class="st11" cx="87" cy="142.7" rx="0.3" ry="0.4"/>
						<ellipse class="st11" cx="92.7" cy="142.3" rx="0.3" ry="0.4"/>
						<ellipse class="st11" cx="93.1" cy="158.5" rx="0.3" ry="0.4"/>
						<ellipse class="st11" cx="100" cy="158.5" rx="0.3" ry="0.4"/>
					</g>
					<g>
						<ellipse class="st11" cx="89.6" cy="162.4" rx="0.3" ry="0.4"/>
						<ellipse class="st11" cx="89.6" cy="154.5" rx="0.3" ry="0.4"/>
					</g>
					<g>
						<ellipse class="st11" cx="103.4" cy="146.6" rx="0.3" ry="0.4"/>
						<ellipse class="st11" cx="96.5" cy="146.6" rx="0.3" ry="0.4"/>
					</g>
				</g>
			</g>
			<g class="st10">
				<g>
					<g>
						<ellipse class="st11" cx="103.4" cy="178.3" rx="0.3" ry="0.4"/>
						<ellipse class="st11" cx="96.5" cy="178.3" rx="0.3" ry="0.4"/>
						<ellipse class="st11" cx="103.4" cy="170.4" rx="0.3" ry="0.4"/>
						<ellipse class="st11" cx="96.5" cy="170.4" rx="0.3" ry="0.4"/>
						<ellipse class="st11" cx="93.1" cy="174.3" rx="0.3" ry="0.4"/>
						<ellipse class="st11" cx="100" cy="174.3" rx="0.3" ry="0.4"/>
						<ellipse class="st11" cx="93.1" cy="166.4" rx="0.3" ry="0.4"/>
						<ellipse class="st11" cx="100" cy="166.4" rx="0.3" ry="0.4"/>
					</g>
					<g>
						<ellipse class="st11" cx="89.6" cy="178.3" rx="0.3" ry="0.4"/>
						<ellipse class="st11" cx="89.6" cy="170.4" rx="0.3" ry="0.4"/>
					</g>
					<g>
						<ellipse class="st11" cx="103.4" cy="162.4" rx="0.3" ry="0.4"/>
						<ellipse class="st11" cx="96.5" cy="162.4" rx="0.3" ry="0.4"/>
					</g>
					<g>
						<ellipse class="st11" cx="89.6" cy="162.4" rx="0.3" ry="0.4"/>
					</g>
				</g>
			</g>
			<g class="st10">
				<g>
					<defs>
						<rect id="SVGID_9_" x="75.8" y="114.8" width="13.8" height="15.9"/>
					</defs>
					<clipPath id="SVGID_10_">
						<use xlink:href="#SVGID_9_"  style="overflow:visible;"/>
					</clipPath>
					<g class="st15">
						<ellipse class="st11" cx="89.6" cy="130.7" rx="0.3" ry="0.4"/>
						<ellipse class="st11" cx="82.7" cy="130.7" rx="0.3" ry="0.4"/>
						<ellipse class="st11" cx="82.7" cy="122.8" rx="0.3" ry="0.4"/>
						<ellipse class="st11" cx="79.3" cy="126.7" rx="0.3" ry="0.4"/>
						<ellipse class="st11" cx="86.2" cy="126.7" rx="0.3" ry="0.4"/>
						<ellipse class="st11" cx="79.3" cy="118.8" rx="0.3" ry="0.4"/>
					</g>
					<g class="st15">
						<ellipse class="st11" cx="75.8" cy="130.7" rx="0.3" ry="0.4"/>
						<ellipse class="st11" cx="75.8" cy="122.8" rx="0.3" ry="0.4"/>
					</g>
					<g class="st15">
						<ellipse class="st11" cx="89.6" cy="114.8" rx="0.3" ry="0.4"/>
						<ellipse class="st11" cx="82.7" cy="114.8" rx="0.3" ry="0.4"/>
					</g>
					<g class="st15">
						<ellipse class="st11" cx="75.8" cy="114.8" rx="0.3" ry="0.4"/>
					</g>
				</g>
			</g>
			<g class="st10">
				<g>
					<g>
						<ellipse class="st11" cx="82.7" cy="146.6" rx="0.3" ry="0.4"/>
						<ellipse class="st11" cx="89.6" cy="138.6" rx="0.3" ry="0.4"/>
						<ellipse class="st11" cx="79.3" cy="142.6" rx="0.3" ry="0.4"/>
						<ellipse class="st11" cx="79.3" cy="134.7" rx="0.3" ry="0.4"/>
						<ellipse class="st11" cx="86.2" cy="134.7" rx="0.3" ry="0.4"/>
					</g>
					<g>
						<ellipse class="st11" cx="75.8" cy="146.6" rx="0.3" ry="0.4"/>
						<ellipse class="st11" cx="75.8" cy="138.6" rx="0.3" ry="0.4"/>
					</g>
					<g>
						<ellipse class="st11" cx="89.6" cy="130.7" rx="0.3" ry="0.4"/>
						<ellipse class="st11" cx="82.7" cy="130.7" rx="0.3" ry="0.4"/>
					</g>
					<g>
						<ellipse class="st11" cx="75.8" cy="130.7" rx="0.3" ry="0.4"/>
					</g>
				</g>
			</g>
			<g class="st10">
				<g>
					<defs>
						<rect id="SVGID_11_" x="75.8" y="146.6" width="13.8" height="15.9"/>
					</defs>
					<clipPath id="SVGID_12_">
						<use xlink:href="#SVGID_11_"  style="overflow:visible;"/>
					</clipPath>
					<g class="st16">
						<ellipse class="st11" cx="89.6" cy="162.4" rx="0.3" ry="0.4"/>
						<ellipse class="st11" cx="82.7" cy="162.4" rx="0.3" ry="0.4"/>
						<ellipse class="st11" cx="89.6" cy="154.5" rx="0.3" ry="0.4"/>
						<ellipse class="st11" cx="82.7" cy="154.5" rx="0.3" ry="0.4"/>
						<ellipse class="st11" cx="79.3" cy="158.5" rx="0.3" ry="0.4"/>
						<ellipse class="st11" cx="86.2" cy="158.5" rx="0.3" ry="0.4"/>
						<ellipse class="st11" cx="79.3" cy="150.5" rx="0.3" ry="0.4"/>
					</g>
					<g class="st16">
						<ellipse class="st11" cx="75.8" cy="162.4" rx="0.3" ry="0.4"/>
						<ellipse class="st11" cx="75.8" cy="154.5" rx="0.3" ry="0.4"/>
					</g>
					<g class="st16">
						<ellipse class="st11" cx="82.7" cy="146.6" rx="0.3" ry="0.4"/>
					</g>
					<g class="st16">
						<ellipse class="st11" cx="75.8" cy="146.6" rx="0.3" ry="0.4"/>
					</g>
				</g>
			</g>
			<g class="st10">
				<g>
					<g>
						<ellipse class="st11" cx="89.6" cy="178.3" rx="0.3" ry="0.4"/>
						<ellipse class="st11" cx="82.7" cy="178.3" rx="0.3" ry="0.4"/>
						<ellipse class="st11" cx="89.6" cy="170.4" rx="0.3" ry="0.4"/>
						<ellipse class="st11" cx="82.7" cy="170.4" rx="0.3" ry="0.4"/>
						<ellipse class="st11" cx="79.3" cy="174.3" rx="0.3" ry="0.4"/>
						<ellipse class="st11" cx="86.2" cy="174.3" rx="0.3" ry="0.4"/>
						<ellipse class="st11" cx="79.3" cy="166.4" rx="0.3" ry="0.4"/>
						<ellipse class="st11" cx="86.2" cy="166.4" rx="0.3" ry="0.4"/>
					</g>
					<g>
						<ellipse class="st11" cx="75.8" cy="178.3" rx="0.3" ry="0.4"/>
						<ellipse class="st11" cx="75.8" cy="170.4" rx="0.3" ry="0.4"/>
					</g>
					<g>
						<ellipse class="st11" cx="89.6" cy="162.4" rx="0.3" ry="0.4"/>
						<ellipse class="st11" cx="82.7" cy="162.4" rx="0.3" ry="0.4"/>
					</g>
					<g>
						<ellipse class="st11" cx="75.8" cy="162.4" rx="0.3" ry="0.4"/>
					</g>
				</g>
			</g>
			<g class="st10">
				<g>
					<defs>
						<rect id="SVGID_13_" x="62" y="114.8" width="13.8" height="15.9"/>
					</defs>
					<clipPath id="SVGID_14_">
						<use xlink:href="#SVGID_13_"  style="overflow:visible;"/>
					</clipPath>
					<g class="st17">
						<ellipse class="st11" cx="75.8" cy="130.7" rx="0.3" ry="0.4"/>
						<ellipse class="st11" cx="68.9" cy="130.7" rx="0.3" ry="0.4"/>
						<ellipse class="st11" cx="75.8" cy="122.8" rx="0.3" ry="0.4"/>
						<ellipse class="st11" cx="68.9" cy="122.8" rx="0.3" ry="0.4"/>
						<ellipse class="st11" cx="65.4" cy="126.7" rx="0.3" ry="0.4"/>
						<ellipse class="st11" cx="72.3" cy="126.7" rx="0.3" ry="0.4"/>
						<ellipse class="st11" cx="65.4" cy="118.8" rx="0.3" ry="0.4"/>
						<ellipse class="st11" cx="72.3" cy="118.8" rx="0.3" ry="0.4"/>
					</g>
					<g class="st17">
						<ellipse class="st11" cx="62" cy="130.7" rx="0.3" ry="0.4"/>
						<ellipse class="st11" cx="62" cy="122.8" rx="0.3" ry="0.4"/>
					</g>
					<g class="st17">
						<ellipse class="st11" cx="75.8" cy="114.8" rx="0.3" ry="0.4"/>
						<ellipse class="st11" cx="68.9" cy="114.8" rx="0.3" ry="0.4"/>
					</g>
					<g class="st17">
						<ellipse class="st11" cx="62" cy="114.8" rx="0.3" ry="0.4"/>
					</g>
				</g>
			</g>
			<g class="st10">
				<g>
					<defs>
						<rect id="SVGID_15_" x="62" y="130.7" width="13.8" height="15.9"/>
					</defs>
					<clipPath id="SVGID_16_">
						<use xlink:href="#SVGID_15_"  style="overflow:visible;"/>
					</clipPath>
					<g class="st18">
						<ellipse class="st11" cx="75.8" cy="146.6" rx="0.3" ry="0.4"/>
						<ellipse class="st11" cx="68.9" cy="146.6" rx="0.3" ry="0.4"/>
						<ellipse class="st11" cx="75.8" cy="138.6" rx="0.3" ry="0.4"/>
						<ellipse class="st11" cx="68.9" cy="138.6" rx="0.3" ry="0.4"/>
						<ellipse class="st11" cx="65.4" cy="142.6" rx="0.3" ry="0.4"/>
						<ellipse class="st11" cx="72.3" cy="142.6" rx="0.3" ry="0.4"/>
						<ellipse class="st11" cx="65.4" cy="134.7" rx="0.3" ry="0.4"/>
						<ellipse class="st11" cx="72.3" cy="134.7" rx="0.3" ry="0.4"/>
					</g>
					<g class="st18">
						<ellipse class="st11" cx="62" cy="146.6" rx="0.3" ry="0.4"/>
						<ellipse class="st11" cx="62" cy="138.6" rx="0.3" ry="0.4"/>
					</g>
					<g class="st18">
						<ellipse class="st11" cx="75.8" cy="130.7" rx="0.3" ry="0.4"/>
						<ellipse class="st11" cx="68.9" cy="130.7" rx="0.3" ry="0.4"/>
					</g>
					<g class="st18">
						<ellipse class="st11" cx="62" cy="130.7" rx="0.3" ry="0.4"/>
					</g>
				</g>
			</g>
			<g class="st10">
				<g>
					<defs>
						<rect id="SVGID_17_" x="62" y="146.6" width="13.8" height="15.9"/>
					</defs>
					<clipPath id="SVGID_18_">
						<use xlink:href="#SVGID_17_"  style="overflow:visible;"/>
					</clipPath>
					<g class="st19">
						<ellipse class="st11" cx="75.8" cy="162.4" rx="0.3" ry="0.4"/>
						<ellipse class="st11" cx="68.9" cy="162.4" rx="0.3" ry="0.4"/>
						<ellipse class="st11" cx="75.8" cy="154.5" rx="0.3" ry="0.4"/>
						<ellipse class="st11" cx="68.9" cy="154.5" rx="0.3" ry="0.4"/>
						<ellipse class="st11" cx="66.3" cy="158.2" rx="0.3" ry="0.4"/>
						<ellipse class="st11" cx="70.6" cy="162.1" rx="0.3" ry="0.4"/>
						<ellipse class="st11" cx="62.8" cy="153.4" rx="0.3" ry="0.4"/>
						<ellipse class="st11" cx="65.4" cy="158.5" rx="0.3" ry="0.4"/>
						<ellipse class="st11" cx="72.3" cy="158.5" rx="0.3" ry="0.4"/>
						<ellipse class="st11" cx="65.4" cy="150.5" rx="0.3" ry="0.4"/>
						<ellipse class="st11" cx="72.3" cy="150.5" rx="0.3" ry="0.4"/>
					</g>
					<g class="st19">
						<ellipse class="st11" cx="62" cy="162.4" rx="0.3" ry="0.4"/>
						<ellipse class="st11" cx="62" cy="154.5" rx="0.3" ry="0.4"/>
					</g>
					<g class="st19">
						<ellipse class="st11" cx="75.8" cy="146.6" rx="0.3" ry="0.4"/>
						<ellipse class="st11" cx="68.9" cy="146.6" rx="0.3" ry="0.4"/>
					</g>
					<g class="st19">
						<ellipse class="st11" cx="62" cy="146.6" rx="0.3" ry="0.4"/>
					</g>
				</g>
			</g>
			<g class="st10">
				<g>
					<g>
						<ellipse class="st11" cx="75.8" cy="178.3" rx="0.3" ry="0.4"/>
						<ellipse class="st11" cx="68.9" cy="178.3" rx="0.3" ry="0.4"/>
						<ellipse class="st11" cx="75.8" cy="170.4" rx="0.3" ry="0.4"/>
						<ellipse class="st11" cx="68.9" cy="170.4" rx="0.3" ry="0.4"/>
						<ellipse class="st11" cx="65.4" cy="174.3" rx="0.3" ry="0.4"/>
						<ellipse class="st11" cx="72.3" cy="174.3" rx="0.3" ry="0.4"/>
						<ellipse class="st11" cx="65.4" cy="166.4" rx="0.3" ry="0.4"/>
						<ellipse class="st11" cx="72.3" cy="166.4" rx="0.3" ry="0.4"/>
					</g>
					<g>
						<ellipse class="st11" cx="62" cy="178.3" rx="0.3" ry="0.4"/>
						<ellipse class="st11" cx="62" cy="170.4" rx="0.3" ry="0.4"/>
					</g>
					<g>
						<ellipse class="st11" cx="75.8" cy="162.4" rx="0.3" ry="0.4"/>
						<ellipse class="st11" cx="68.9" cy="162.4" rx="0.3" ry="0.4"/>
					</g>
					<g>
						<ellipse class="st11" cx="62" cy="162.4" rx="0.3" ry="0.4"/>
					</g>
				</g>
			</g>
			<g class="st10">
				<g>
					<g>
						<ellipse class="st11" cx="62" cy="130.7" rx="0.3" ry="0.4"/>
						<ellipse class="st11" cx="55.1" cy="130.7" rx="0.3" ry="0.4"/>
						<ellipse class="st11" cx="62" cy="122.8" rx="0.3" ry="0.4"/>
						<ellipse class="st11" cx="55.1" cy="122.8" rx="0.3" ry="0.4"/>
						<ellipse class="st11" cx="51.6" cy="126.7" rx="0.3" ry="0.4"/>
						<ellipse class="st11" cx="58.5" cy="126.7" rx="0.3" ry="0.4"/>
						<ellipse class="st11" cx="51.6" cy="118.8" rx="0.3" ry="0.4"/>
						<ellipse class="st11" cx="58.5" cy="118.8" rx="0.3" ry="0.4"/>
					</g>
					<g>
						<ellipse class="st11" cx="48.2" cy="130.7" rx="0.3" ry="0.4"/>
						<ellipse class="st11" cx="48.2" cy="122.8" rx="0.3" ry="0.4"/>
					</g>
					<g>
						<ellipse class="st11" cx="62" cy="114.8" rx="0.3" ry="0.4"/>
						<ellipse class="st11" cx="55.1" cy="114.8" rx="0.3" ry="0.4"/>
					</g>
					<g>
						<ellipse class="st11" cx="48.2" cy="114.8" rx="0.3" ry="0.4"/>
					</g>
				</g>
			</g>
			<g class="st10">
				<g>
					<g>
						<ellipse class="st11" cx="62" cy="146.6" rx="0.3" ry="0.4"/>
						<ellipse class="st11" cx="55.1" cy="146.6" rx="0.3" ry="0.4"/>
						<ellipse class="st11" cx="62" cy="138.6" rx="0.3" ry="0.4"/>
						<ellipse class="st11" cx="55.1" cy="138.6" rx="0.3" ry="0.4"/>
						<ellipse class="st11" cx="51.6" cy="142.6" rx="0.3" ry="0.4"/>
						<ellipse class="st11" cx="58.5" cy="142.6" rx="0.3" ry="0.4"/>
						<ellipse class="st11" cx="51.6" cy="134.7" rx="0.3" ry="0.4"/>
						<ellipse class="st11" cx="58.5" cy="134.7" rx="0.3" ry="0.4"/>
					</g>
					<g>
						<ellipse class="st11" cx="48.2" cy="146.6" rx="0.3" ry="0.4"/>
						<ellipse class="st11" cx="48.2" cy="138.6" rx="0.3" ry="0.4"/>
					</g>
					<g>
						<ellipse class="st11" cx="62" cy="130.7" rx="0.3" ry="0.4"/>
						<ellipse class="st11" cx="55.1" cy="130.7" rx="0.3" ry="0.4"/>
					</g>
					<g>
						<ellipse class="st11" cx="48.2" cy="130.7" rx="0.3" ry="0.4"/>
					</g>
				</g>
			</g>
			<g class="st10">
				<g>
					<g>
						<ellipse class="st11" cx="62" cy="162.4" rx="0.3" ry="0.4"/>
						<ellipse class="st11" cx="55.1" cy="162.4" rx="0.3" ry="0.4"/>
						<ellipse class="st11" cx="62" cy="154.5" rx="0.3" ry="0.4"/>
						<ellipse class="st11" cx="55.1" cy="154.5" rx="0.3" ry="0.4"/>
						<ellipse class="st11" cx="51.6" cy="158.5" rx="0.3" ry="0.4"/>
						<ellipse class="st11" cx="58.5" cy="158.5" rx="0.3" ry="0.4"/>
						<ellipse class="st11" cx="51.6" cy="150.5" rx="0.3" ry="0.4"/>
						<ellipse class="st11" cx="58.5" cy="150.5" rx="0.3" ry="0.4"/>
					</g>
					<g>
						<ellipse class="st11" cx="48.2" cy="162.4" rx="0.3" ry="0.4"/>
						<ellipse class="st11" cx="48.2" cy="154.5" rx="0.3" ry="0.4"/>
					</g>
					<g>
						<ellipse class="st11" cx="62" cy="146.6" rx="0.3" ry="0.4"/>
						<ellipse class="st11" cx="55.1" cy="146.6" rx="0.3" ry="0.4"/>
					</g>
					<g>
						<ellipse class="st11" cx="48.2" cy="146.6" rx="0.3" ry="0.4"/>
					</g>
				</g>
			</g>
			<g class="st10">
				<g>
					<defs>
						<rect id="SVGID_19_" x="48.2" y="162.4" width="13.8" height="15.9"/>
					</defs>
					<clipPath id="SVGID_20_">
						<use xlink:href="#SVGID_19_"  style="overflow:visible;"/>
					</clipPath>
					<g class="st20">
						<ellipse class="st11" cx="62" cy="178.3" rx="0.3" ry="0.4"/>
						<ellipse class="st11" cx="55.1" cy="178.3" rx="0.3" ry="0.4"/>
						<ellipse class="st11" cx="62" cy="170.4" rx="0.3" ry="0.4"/>
						<ellipse class="st11" cx="55.1" cy="170.4" rx="0.3" ry="0.4"/>
						<ellipse class="st11" cx="51.6" cy="174.3" rx="0.3" ry="0.4"/>
						<ellipse class="st11" cx="58.5" cy="174.3" rx="0.3" ry="0.4"/>
						<ellipse class="st11" cx="51.6" cy="166.4" rx="0.3" ry="0.4"/>
						<ellipse class="st11" cx="58.5" cy="166.4" rx="0.3" ry="0.4"/>
					</g>
					<g class="st20">
						<ellipse class="st11" cx="48.2" cy="178.3" rx="0.3" ry="0.4"/>
						<ellipse class="st11" cx="48.2" cy="170.4" rx="0.3" ry="0.4"/>
					</g>
					<g class="st20">
						<ellipse class="st11" cx="62" cy="162.4" rx="0.3" ry="0.4"/>
						<ellipse class="st11" cx="55.1" cy="162.4" rx="0.3" ry="0.4"/>
					</g>
					<g class="st20">
						<ellipse class="st11" cx="48.2" cy="162.4" rx="0.3" ry="0.4"/>
					</g>
				</g>
			</g>
		</g>
	</g>
	<g>
		<g id="_x33__1_">
			<path class="st21" d="M111.9,119.6c0,5.1-4.1,4.1-9.2,4.1l0,0c-5.1,0-9.2,0.9-9.2-4.1c0,0-0.7-37,7.3-37.1c8-0.1,4.7-0.1,4.7-0.1
				C110.6,82.4,111.9,119.6,111.9,119.6z"/>
			<path class="st3" d="M110.9,114.9c0,4.5-3.7,8.2-8.2,8.2l0,0c-4.5,0-8.2-3.7-8.2-8.2c0,0-0.7-33.1,6.5-33.2
				c3.7-0.1,4.2-0.1,4.2-0.1C109.8,81.6,110.9,114.9,110.9,114.9z"/>
		</g>
		<g id="_x38__1_">
			<path class="st21" d="M94.6,119.4c-0.4-0.1-0.8-0.1-1.2-0.1c-2.8,0-3.9,2.1-3.9,4.6s2.3,4.5,5.1,4.5c0.8,0,1.5-0.1,2.1-0.4
				c1,1.9,2.9,3.2,5,3.2c2.3,0,4.2-1.5,5.2-3.7c0.8,0.6,1.9,0.9,3,0.9c2.8,0,5.1-2,5.1-4.5s-0.9-4.5-3.7-4.5c-0.9,0-1.7,0.2-2.4,0.5
				"/>
			<path class="st3" d="M95,117.6c-0.4-0.1-0.7-0.1-1.1-0.1c-2.6,0-3.5,2-3.5,4.3c0,2.3,2.1,4.2,4.7,4.2c0.7,0,1.4-0.1,2-0.4
				c1,1.8,2.7,3,4.6,3c2.1,0,3.9-1.4,4.9-3.5c0.8,0.5,1.8,0.8,2.8,0.8c2.6,0,4.7-1.9,4.7-4.2c0-2.3-0.8-4.2-3.4-4.2
				c-0.8,0-1.5,0.2-2.2,0.5"/>
		</g>
	</g>
	<g class="st6">
		<path class="st22" d="M88.6,146.1c3.4,2.7,8,3.6,13,2.6c5.1-1.1,10.1-4,14-8.3l2.4,1.9c-4.4,4.8-10,8.2-15.9,9.4
			c-6,1.2-11.5,0.1-15.6-3.2L88.6,146.1z"/>
	</g>
	<path class="st7" d="M89.8,91H72c0-0.2,0-0.4,0.1-0.6h17.7C89.8,90.6,89.8,90.8,89.8,91z"/>
	<path class="st7" d="M132.4,91h-17.8c0-0.2,0-0.4,0.1-0.6h17.7C132.4,90.6,132.4,90.8,132.4,91z"/>
	<g>
		<path class="st7" d="M131.9,43.4l-2.2-5.5c0,0,15.3,6.9,16.7,13.2c0.9,3.9,2.3,9.3,2.4,14.9c0.5,6,0.7,14.7,0,22.1l-5.9,9.4
			l-1.2-17.3c0.4-12.4-13.8-21.2-13.8-21.2c-9.5-2.2-13.2,5.2-13.2,5.2l5.9,4.6c0,0-19.7,5-32.4-1.9c-12.6-6.9-8.8-7.9-25.8-5.5
			l-3.6,40.5l-6.3-7.8l-2-29.5c-1.1-11.8,1.2-20.4,8.1-25c6.9-4.5,11.8-6.6,11.8-6.6s-0.8,4.9,3.3,7.1c2.1,1.1,2.4,1.2,2.4,1.2
			s6.3-7.7,12.8-11.6c6.5-3.9,9.1-3.9,9.1-3.9S98.3,34.2,131.9,43.4z"/>
	</g>
</g>
</svg>
