<?xml version="1.0" encoding="utf-8"?>
<!-- Generator: Adobe Illustrator 20.0.0, SVG Export Plug-In . SVG Version: 6.00 Build 0)  -->
<svg version="1.1" id="Layer_1" xmlns="http://www.w3.org/2000/svg" xmlns:xlink="http://www.w3.org/1999/xlink" x="0px" y="0px"
	 viewBox="0 0 199.7573853 199.7573853" style="enable-background:new 0 0 199.7573853 199.7573853;" xml:space="preserve">
<style type="text/css">
	.st0{fill:#00A19A;}
	.st1{fill:#F6E0D1;}
	.st2{fill:#F1F2F2;}
	.st3{fill:#595A5C;}
	.st4{fill:#736759;}
	.st5{opacity:0.2;}
	.st6{fill:#231F20;}
	.st7{opacity:0.2;fill:#231F20;enable-background:new    ;}
</style>
<circle class="st0" cx="99.6279831" cy="100.406929" r="97.406929"/>
<g>
	<g>
		<g id="_x34__3_">
			<path class="st1" d="M93.1974258,173.7362671c1.6767349,0.1607971,3.3701706,0.2703857,5.0595016,0.3263855
				c0.8330383,0.0070343,1.6777039-0.0023956,2.5455322-0.0420227c45.6782379-2.142746,40.408371-54.1335831,40.408371-54.1335831
				h0.8603973c0.0083923-21.4394073-0.1567078-47.5303268-0.1567078-47.5303268s-3.7310181-29.4089622-41.1352158-29.4089622
				c-37.4032211,0-41.2962341,31.3698921-41.2962341,45.8796654c0,14.5049973,0,34.5058746,0,34.5058746v3.7538986
				C60.2825012,138.1951294,65.0348282,170.1245422,93.1974258,173.7362671z"/>
			<path class="st1" d="M65.0059662,116.5155258c0,5.1272354-3.2951241,9.2822495-7.3450394,9.2822495
				c-4.0589409,0-7.3460846-4.155014-7.3460846-9.2822495c0-5.1249771,3.2871437-9.2775955,7.3460846-9.2775955
				C61.7108421,107.2379303,65.0059662,111.3905487,65.0059662,116.5155258z"/>
			<ellipse class="st1" cx="144.8109741" cy="116.5166855" rx="7.3450012" ry="9.2799225"/>
		</g>
		<g id="_x39__1_">
			<path class="st2" d="M74.9652939,99.7481461c0-4.1623611,3.371666-7.5344391,7.5462799-7.5344391
				c4.1600876,0,7.5381088,3.3720779,7.5381088,7.5344391c0,4.1669083-3.3780212,7.5435867-7.5381088,7.5435867
				C78.3369598,107.2917328,74.9652939,103.9150543,74.9652939,99.7481461z"/>
			<path class="st3" d="M80.1530838,96.7684631c0-2.3725433,1.9216843-4.2937622,4.3019409-4.2937622
				c2.3697968,0,4.2941742,1.9212189,4.2941742,4.2937622c0,2.3724976-1.9243774,4.2964554-4.2941742,4.2964554
				C82.0747681,101.0649185,80.1530838,99.1409607,80.1530838,96.7684631z"/>
			<path class="st1" d="M73.5053406,100.3408508c0.2011871,4.6453781,4.0142059,8.3509827,8.718277,8.3509827
				c4.687973,0,8.505722-3.7056046,8.7069168-8.3509827H73.5053406z"/>
			<path class="st1" d="M90.929184,98.2129745c0,0.0081635,0,0.0081635,0,0.0154495H73.5019531c0-0.0072861,0-0.0072861,0-0.0154495
				c0.0088196-0.2102356,0.02491-0.4132385,0.0575409-0.6144257c0.5009232-4.3399734,4.1863861-7.7193451,8.656189-7.7193451
				c4.4860916,0,8.1552734,3.3793716,8.6563873,7.7193451C90.9051514,97.799736,90.9205551,98.002739,90.929184,98.2129745z"/>
			<path class="st2" d="M115.0423965,99.7481461c0-4.1623611,3.3721313-7.5344391,7.5472031-7.5344391
				c4.1600876,0,7.5376434,3.3720779,7.5376434,7.5344391c0,4.1669083-3.3775558,7.5435867-7.5376434,7.5435867
				C118.4145279,107.2917328,115.0423965,103.9150543,115.0423965,99.7481461z"/>
			<path class="st3" d="M115.6505127,100.0019073c0-2.3734283,1.9212189-4.2946472,4.3014603-4.2946472
				c2.369812,0,4.2942276,1.9212189,4.2942276,4.2946472c0,2.3725433-1.9244156,4.2965012-4.2942276,4.2965012
				C117.5717316,104.2984085,115.6505127,102.3744507,115.6505127,100.0019073z"/>
			<path class="st1" d="M113.5833664,100.3408508c0.2007217,4.6453781,4.0132751,8.3509827,8.7175827,8.3509827
				c4.687973,0,8.5059509-3.7056046,8.7071533-8.3509827H113.5833664z"/>
			<path class="st1" d="M131.0062866,98.2129745c0,0.0081635,0,0.0081635,0,0.0154495h-17.4265366
				c0-0.0072861,0-0.0072861,0-0.0154495c0.0085907-0.2102356,0.0244522-0.4132385,0.0570679-0.6144257
				c0.5011597-4.3399734,4.1864014-7.7193451,8.6564255-7.7193451c4.4854431,0,8.1548157,3.3793716,8.6563873,7.7193451
				C130.9818268,97.799736,130.9976501,98.002739,131.0062866,98.2129745z"/>
			<path class="st4" d="M90.929184,98.2129745H73.5019531c0.0088196-0.2102356,0.02491-0.4132385,0.0575409-0.6144257h17.3125763
				C90.9051514,97.799736,90.9205551,98.002739,90.929184,98.2129745z"/>
			<path class="st4" d="M131.0062866,98.2129745h-17.4265366c0.0085907-0.2102356,0.0244522-0.4132385,0.0570679-0.6144257
				h17.3128128C130.9818268,97.799736,130.9976501,98.002739,131.0062866,98.2129745z"/>
		</g>
		<g class="st5">
			<path class="st6" d="M89.4285431,137.6226654c2.4913254,3.2116852,6.5367584,5.0683136,11.4089508,5.2430878
				c4.9682541,0.1625366,10.1848526-1.4422913,14.6808014-4.5397797l1.7592697,2.272934
				c-5.0791702,3.4998932-11.0156097,5.3223724-16.7078934,5.1278687
				c-5.787796-0.2006226-10.6533051-2.4577026-13.6788254-6.3598175L89.4285431,137.6226654z"/>
		</g>
		<path id="_x37__13_" class="st4" d="M109.4367981,70.6843872c-11.9639359,6.5257416-30.6310425,1.8112411-30.6310425,1.8112411
			l5.6170197-4.3504868c0,0-3.9878769,0.9085464-6.8868179,0.1865463c-2.8972549-0.7310944-5.6170425-5.0786591-5.6170425-5.0786591
			S60.499527,65.6088104,60.8635292,77.3877411c0.3610764,11.784935,1.2667007,25.0138779,0.3610764,28.8199768
			c-0.9040565,3.808876-1.9933205,5.7975769-1.9933205,5.7975769s-1.1793556-4.9823761-2.9890556-3.8931351
			c-1.8141708,1.0861588-2.4489822,1.9947052-2.4489822,1.9947052s-3.201664-14.08284-4.2907524-24.7756119
			c-1.0861588-10.6958466-0.6013603-26.0647125,5.0187607-25.8841743
			c5.6156502,0.1805382,3.0808678-32.0783043,44.5823135-31.7173805
			c41.5074844,0.3610764,42.2296066,18.6688271,42.2296066,25.7361832c0,7.070282,3.8044128,3.8028679,8.1564484,9.2426033
			c4.3489532,5.436657-0.180542,33.5313988-1.8112488,39.3322105c-1.6320801,5.7975769-1.6320801,5.7975769-1.6320801,5.7975769
			s-2.3348389-1.1311417-3.2869873,0.2287521c-0.9507599,1.3598938-5.0966492-7.341095-2.3784332-17.5344543
			c2.721344-10.1993637,1.2260437-27.0509415-4.4858856-30.995224
			C130.186142,55.595993,121.3962631,64.1615753,109.4367981,70.6843872z"/>
		<g id="_x38__1_">
			<path class="st7" d="M110.7517166,111.6856003c-0.8069839,0-1.5663376,0.1800995-2.23423,0.4927444l-1.2461319-12.7419662
				c0-3.5825119-2.4904709-6.487999-5.5633469-6.487999c-3.0731583,0-5.5639343,2.9054871-5.5639343,6.487999l-1.1398849,12.2298889
				c-0.3657532-0.079361-0.7460175-0.1262817-1.1390076-0.1262817c-2.645256,0-3.649025,2.0317612-3.649025,4.3809662
				c0,2.3492126,2.143959,4.2540131,4.7880325,4.2540131c0.7119827,0,1.3857956-0.1414795,1.9924469-0.3892517
				c0.9845276,1.8281631,2.7230759,3.0483551,4.7113724,3.0483551c2.1501999,0,4.0121384-1.4244614,4.9383621-3.5072784
				c0.7995911,0.5300217,1.7867813,0.848175,2.85923,0.848175c2.6458206,0,4.7882996-1.9048004,4.7882996-4.2540131
				C114.2938995,113.5717468,113.3957977,111.6856003,110.7517166,111.6856003z"/>
			<path class="st1" d="M110.2569351,110.0458069c-0.7522507,0-1.4597855,0.1663208-2.0812302,0.4596405l-1.2461243-11.8744583
				c0-3.3395844-2.3206329-6.0456085-5.1842728-6.0456085c-2.8639526,0-5.1839676,2.7060242-5.1839676,6.0456085
				l-1.1398849,11.3872223c-0.3412094-0.0738525-0.6957169-0.1166382-1.0629807-0.1166382
				c-2.4635315,0-3.3220062,1.9006271-3.3220062,4.0890656c0,2.1898117,1.9983597,3.9648361,4.4627991,3.9648361
				c0.6634445,0,1.2902222-0.1331787,1.855423-0.3637085c0.9173737,1.704628,2.5384369,2.8412857,4.3906174,2.8412857
				c2.0036926,0,3.739563-1.3278198,4.6018829-3.2677765c0.7445297,0.493454,1.6648788,0.7901993,2.6653824,0.7901993
				c2.4632492,0,4.4610443-1.7750244,4.4610443-3.9648361C113.4736176,111.8022003,112.7210846,110.0458069,110.2569351,110.0458069
				z"/>
		</g>
		<g>
			<g>
				<path class="st4" d="M126.3465271,93.3321381c-0.536972-1.8306427-1.9098587-3.3051147-3.8675003-4.1491776
					c-2.0018082-0.8625565-4.3669968-0.9683075-6.6587143-0.2957611l-0.3807983-1.2950516
					c2.595253-0.7587204,5.2851105-0.6355057,7.5736542,0.3530731c2.3325043,1.0061646,3.9776382,2.7845612,4.6273041,5.0076981
					L126.3465271,93.3321381z"/>
			</g>
			<g>
				<path class="st4" d="M75.4422073,93.7887497l-1.3059998-0.3398666c0.5833359-2.2417526,2.1735153-4.0688171,4.4735718-5.14608
					c2.2592239-1.0552063,4.9439621-1.2610321,7.5601807-0.5797577l-0.339119,1.3038788
					c-2.3130341-0.6013947-4.6737366-0.4251022-6.6494522,0.4986191
					C77.2503586,90.4288177,75.9236908,91.9425659,75.4422073,93.7887497z"/>
			</g>
		</g>
	</g>
</g>
</svg>
