<?xml version="1.0" encoding="utf-8"?>
<!-- Generator: Adobe Illustrator 20.1.0, SVG Export Plug-In . SVG Version: 6.00 Build 0)  -->
<svg version="1.1" id="Layer_1" xmlns="http://www.w3.org/2000/svg" xmlns:xlink="http://www.w3.org/1999/xlink" x="0px" y="0px"
	 viewBox="0 0 199.8 199.8" style="enable-background:new 0 0 199.8 199.8;" xml:space="preserve">
<style type="text/css">
	.st0{fill:#B83289;}
	.st1{fill:#F5DFD0;}
	.st2{opacity:0.2;fill:#221E20;}
	.st3{fill:#F0F1F1;}
	.st4{opacity:0.83;fill:#35A8E0;}
	.st5{fill:#726658;}
	.st6{fill:#1D1D1B;}
	.st7{opacity:0.2;}
	.st8{fill:#221E20;}
	.st9{fill:#422918;}
	.st10{opacity:0.35;}
	.st11{clip-path:url(#SVGID_2_);}
	.st12{clip-path:url(#SVGID_4_);}
	.st13{clip-path:url(#SVGID_6_);}
	.st14{clip-path:url(#SVGID_8_);}
	.st15{clip-path:url(#SVGID_10_);}
	.st16{clip-path:url(#SVGID_12_);}
	.st17{clip-path:url(#SVGID_14_);}
</style>
<circle class="st0" cx="100.6" cy="99.9" r="97.7"/>
<g>
	<g>
		<path class="st1" d="M111,93.6C111,93.6,111,93.6,111,93.6l17.8,0c0,0,0,0,0,0c0,0.2,0,0.4-0.1,0.6c-0.5,4.4-4.3,7.8-8.8,7.8
			c-4.6,0-8.3-3.4-8.8-7.8C111,94,111,93.8,111,93.6z"/>
		<path class="st1" d="M70.1,93.6C70.1,93.6,70.1,93.6,70.1,93.6l17.8,0c0,0,0,0,0,0c0,0.2,0,0.4-0.1,0.6c-0.5,4.4-4.3,7.8-8.8,7.8
			c-4.6,0-8.3-3.4-8.8-7.8C70.1,94,70.1,93.8,70.1,93.6z"/>
		<g>
			<g id="_x34__1_">
				<g>
					<path class="st1" d="M99.6,161.8c50.3-2.2,40.3-56,40.3-56h0.9c0-22.2-0.2-34-0.2-34s4-26.4-41.1-26.4
						c-41.1,0-39.1,25.9-39.1,40.9c0,15,0,23.1,0,23.1v3.9c0.9,11.5,2.8,44.5,33.8,48.2"/>
				</g>
				<path class="st1" d="M66.7,110.7c0,5.3-3.4,9.6-7.5,9.6c-4.2,0-7.5-4.3-7.5-9.6c0-5.3,3.4-9.6,7.5-9.6
					C63.3,101.1,66.7,105.4,66.7,110.7z"/>
				<ellipse class="st1" cx="142" cy="110.7" rx="7.5" ry="9.6"/>
			</g>
			<g id="_x38__1_">
				<path class="st2" d="M108.8,117.3c-0.8,0-1.6,0.2-2.3,0.5l-1.3-12.8c0-3.6-2.5-6.5-5.7-6.5c-3.1,0-5.7,2.9-5.7,6.5l-1.2,12.3
					c-0.4-0.1-0.8-0.1-1.2-0.1c-2.7,0-3.7,2-3.7,4.4s2.2,4.3,4.9,4.3c0.7,0,1.4-0.1,2-0.4c1,1.8,2.8,3.1,4.8,3.1
					c2.2,0,4.1-1.4,5-3.5c0.8,0.5,1.8,0.9,2.9,0.9c2.7,0,4.9-1.9,4.9-4.3S111.5,117.3,108.8,117.3z"/>
				<path class="st1" d="M108.3,115.7c-0.8,0-1.5,0.2-2.1,0.5l-1.3-11.9c0-3.4-2.4-6.1-5.3-6.1c-2.9,0-5.3,2.7-5.3,6.1l-1.2,11.4
					c-0.3-0.1-0.7-0.1-1.1-0.1c-2.5,0-3.4,1.9-3.4,4.1c0,2.2,2,4,4.6,4c0.7,0,1.3-0.1,1.9-0.4c0.9,1.7,2.6,2.9,4.5,2.9
					c2,0,3.8-1.3,4.7-3.3c0.8,0.5,1.7,0.8,2.7,0.8c2.5,0,4.6-1.8,4.6-4C111.5,117.5,110.8,115.7,108.3,115.7z"/>
			</g>
			<g id="_x39__1_">
				<path class="st3" d="M72.2,95.8c0-4.2,3.4-7.6,7.7-7.6c4.2,0,7.7,3.4,7.7,7.6c0,4.2-3.4,7.6-7.7,7.6
					C75.7,103.4,72.2,100,72.2,95.8z"/>
				<path class="st4" d="M77.5,96.1c0-2.4,2-4.3,4.4-4.3c2.4,0,4.4,1.9,4.4,4.3c0,2.4-2,4.3-4.4,4.3C79.5,100.4,77.5,98.5,77.5,96.1
					z"/>
				<path class="st1" d="M88.5,94.3C88.5,94.3,88.5,94.3,88.5,94.3l-17.8,0c0,0,0,0,0,0c0-0.2,0-0.4,0.1-0.6
					c0.5-4.4,4.3-7.8,8.8-7.8c4.6,0,8.3,3.4,8.8,7.8C88.5,93.9,88.5,94.1,88.5,94.3z"/>
				<path class="st3" d="M113.1,95.8c0-4.2,3.4-7.6,7.7-7.6c4.2,0,7.7,3.4,7.7,7.6c0,4.2-3.4,7.6-7.7,7.6
					C116.6,103.4,113.1,100,113.1,95.8z"/>
				<path class="st4" d="M113.8,96.1c0-2.4,2-4.3,4.4-4.3c2.4,0,4.4,1.9,4.4,4.3c0,2.4-2,4.3-4.4,4.3
					C115.7,100.4,113.8,98.5,113.8,96.1z"/>
				<path class="st1" d="M129.4,94.3C129.4,94.3,129.4,94.3,129.4,94.3l-17.8,0c0,0,0,0,0,0c0-0.2,0-0.4,0.1-0.6
					c0.5-4.4,4.3-7.8,8.8-7.8c4.6,0,8.3,3.4,8.8,7.8C129.4,93.9,129.4,94.1,129.4,94.3z"/>
				<path class="st5" d="M88.5,94.3H70.7c0-0.2,0-0.4,0.1-0.6h17.7C88.5,93.9,88.5,94.1,88.5,94.3z"/>
				<path class="st5" d="M129.4,94.3h-17.8c0-0.2,0-0.4,0.1-0.6h17.7C129.4,93.9,129.4,94.1,129.4,94.3z"/>
			</g>
		</g>
		<path class="st6" d="M136.4,92.7c-0.1-0.7-0.3-1.3-0.7-1.8c-0.8-1.1-3.3-2.4-3.5-2.5c-0.6-0.2-7,0.2-9.1,0.2c-3,0-6,0.1-9.1,0.4
			c-2.1,0.2-5.6-0.3-7.2,1.6c-1.2,1.5-0.8,3.2-2.7,3.1c-0.8,0-3.3-0.2-4.2-0.1c0,0,0,0,0,0c-0.9-0.1-3.2,0.1-4,0.1
			c-1.9,0.1-1.6-1.6-2.7-3.1c-1.6-1.9-5-1.5-7.2-1.6c-3-0.3-6-0.3-9.1-0.4c-2.1,0-8.5-0.5-9.1-0.2c-0.2,0.1-2.6,1.3-3.5,2.5
			c-0.4,0.5-0.6,1.1-0.7,1.8c-0.4,2,0.3,4.6,0.5,6.5c0.3,2.7,0.8,5.4,2.8,7.1c0.6,0.5,1.3,0.5,2,0.7c0.9,0.2,4.6,0.2,5.7,0.3
			c3.1,0.2,6.1,0.4,9.3,0.2c3.5-0.2,7.6,0.2,8.8-5.2c0.3-1.4,0.8-6,1.4-6.6c1.1-1.1,4.5-1.4,5.9-1.3l0,0c0,0,0,0,0,0c0,0,0,0,0,0
			l0,0c1.4,0,4.9,0.3,6,1.3c0.6,0.6,1,5.2,1.4,6.6c1.2,5.3,5.4,4.9,8.8,5.2c3.1,0.2,6.2,0,9.3-0.2c1-0.1,4.8-0.1,5.7-0.3
			c0.6-0.2,1.4-0.2,2-0.7c2-1.7,2.5-4.3,2.8-7.1C136.2,97.3,136.8,94.8,136.4,92.7z M92.1,101c-0.7,3.2-1.7,4.1-2,4.3
			c-0.8,0.6-3.8,0.9-3.8,0.9c-0.8,0-11.1,0.1-15.3-0.7c-0.8-0.1-2-0.5-2.8-1c-1.4-1-3.7-10.2-2.8-11.5c0.5-0.8,2.1-1.9,2.7-2.4
			c2.3-2,22.1-0.7,22.9,0.3c0.9,1.1,1,2.1,0.9,3.4c-1.2-0.7-1.7,0.4-1.8,1.7c-0.1,0.9-0.5,3.9,0.9,2.5c0.2-0.2,0.3-0.8,0.8-0.4
			C92.3,98.6,92.2,100.4,92.1,101z M132,104.6c-0.7,0.5-2,0.9-2.8,1c-4.2,0.8-14.5,0.7-15.3,0.7c0,0-3-0.3-3.8-0.9
			c-0.3-0.2-1.3-1.1-2-4.3c-0.1-0.7-0.2-2.4,0.3-2.9c0.5-0.5,0.5,0.1,0.8,0.4c1.4,1.4,1-1.6,0.9-2.5c-0.1-1.3-0.7-2.4-1.8-1.7
			c-0.1-1.3,0.1-2.3,0.9-3.4c0.8-1,20-2.6,22.3-0.5c0.6,0.6,2.2,1.7,2.7,2.4C135.1,94.1,133.4,103.6,132,104.6z"/>
		<g class="st7">
			<path class="st8" d="M86.2,136.6c2.6,3.4,6.9,5.3,12,5.5c5.2,0.2,10.7-1.5,15.5-4.8l1.9,2.4c-5.4,3.7-11.6,5.6-17.6,5.4
				c-6.1-0.2-11.2-2.6-14.4-6.7L86.2,136.6z"/>
		</g>
		<path class="st9" d="M140,107.5c0,0,0.5-35.4-9.2-40.6c-9.7-5.2-30,0-30,0s-27.5-5.1-34,1.6s-6.4,39.5-6.4,39.5l-2.5-6
			c0,0-1.3-36.3,4.2-49.7c0-3.5,0-7.6,0-7.6s1.4,3.7,1.9,4.1c0.6,0.4,1.7,0.6,1.9-1.2c0.3-1.8,1.5-6.5,1.5-6.5s0.7,3.7,2.2,5.1
			c1.5,1.4,1.8,0.8,1.8-0.6s1.8-7.3,1.8-7.3s1.9,2.1,2.2,3.3c0.3,1.2,2.5,4.3,2.5,4.3s1.5-8,2.1-8.8s2.6,2.1,2.9,3
			c0.3,1,1.5-1.2,1.5-1.2l1.1,2.3c0,0,0.8-3.7,1.8-5.2c1.2,1.9,2.9,6.9,4.1,7.5c0-4.3,3.2-6.6,3.2-6.6l1.1,2.5l1.5-7.2L99,42.6
			l0.9-5l1.2,4.8c0,0,0.7-6.9,0.8-8.2s1.7,5.1,1.7,5.1s0.8-1.5,1-2.6s3.3,5.8,3.3,5.8s3.2-3,3.5-5.2c0.3-2.2,1.8,1.4,1.8,1.9
			c0,0.6,1,0,1.7-0.8c0.7-0.8-0.6,1.2,0,1.7c0.6,0.4,4.7-3.2,5.2-4c0.6-0.8,1.2,6.6,1.1,8.7c-0.1,2.1,5.1-4.1,5.4-5.7
			c0.3-1.5,1.9,8.1,1.9,8.1s4.3-4.7,4.3-5.7s1,6.5,2.2,7.2c1.2,0.7,2.8-3.9,2.8-3.9s-0.7,4.6,0,6.2c0.7,1.7,4.7,10.2,4.7,49.6
			L140,107.5z"/>
	</g>
	<g class="st10">
		<g>
			<defs>
				<path id="SVGID_1_" d="M61.1,121.5l79.5-0.1c0,0-0.2,3.8-2.5,13c-5.2,21.1-22.6,25.8-33.8,27c-0.8,0.1-3.6,0.4-4.3,0.4
					c-1.5-0.1-3.9,0-5.4-0.2c-18.4-2.6-24.5-12.1-28.2-20.3C64.4,136.6,61.6,130.3,61.1,121.5z"/>
			</defs>
			<clipPath id="SVGID_2_">
				<use xlink:href="#SVGID_1_"  style="overflow:visible;"/>
			</clipPath>
			<g class="st11">
				<g>
					<g>
						<ellipse class="st6" cx="138" cy="126.7" rx="0.3" ry="0.3"/>
						<ellipse class="st6" cx="132" cy="126.7" rx="0.3" ry="0.3"/>
						<ellipse class="st6" cx="138" cy="119.9" rx="0.3" ry="0.3"/>
						<ellipse class="st6" cx="132" cy="119.9" rx="0.3" ry="0.3"/>
						<ellipse class="st6" cx="129.1" cy="123.3" rx="0.3" ry="0.3"/>
						<ellipse class="st6" cx="135" cy="123.3" rx="0.3" ry="0.3"/>
						<ellipse class="st6" cx="129.1" cy="116.5" rx="0.3" ry="0.3"/>
						<ellipse class="st6" cx="135" cy="116.5" rx="0.3" ry="0.3"/>
					</g>
					<g>
						<ellipse class="st6" cx="126.1" cy="126.7" rx="0.3" ry="0.3"/>
						<ellipse class="st6" cx="126.1" cy="119.9" rx="0.3" ry="0.3"/>
					</g>
					<g>
						<ellipse class="st6" cx="138" cy="113.1" rx="0.3" ry="0.3"/>
						<ellipse class="st6" cx="132" cy="113.1" rx="0.3" ry="0.3"/>
					</g>
					<g>
						<ellipse class="st6" cx="126.1" cy="113.1" rx="0.3" ry="0.3"/>
					</g>
				</g>
			</g>
			<g class="st11">
				<g>
					<g>
						<ellipse class="st6" cx="138" cy="140.2" rx="0.3" ry="0.3"/>
						<ellipse class="st6" cx="132" cy="140.2" rx="0.3" ry="0.3"/>
						<ellipse class="st6" cx="138" cy="133.5" rx="0.3" ry="0.3"/>
						<ellipse class="st6" cx="132" cy="133.5" rx="0.3" ry="0.3"/>
						<ellipse class="st6" cx="129.1" cy="136.9" rx="0.3" ry="0.3"/>
						<ellipse class="st6" cx="135" cy="136.9" rx="0.3" ry="0.3"/>
						<ellipse class="st6" cx="129.1" cy="130.1" rx="0.3" ry="0.3"/>
						<ellipse class="st6" cx="135" cy="130.1" rx="0.3" ry="0.3"/>
					</g>
					<g>
						<ellipse class="st6" cx="126.1" cy="140.2" rx="0.3" ry="0.3"/>
						<ellipse class="st6" cx="126.1" cy="133.5" rx="0.3" ry="0.3"/>
					</g>
					<g>
						<ellipse class="st6" cx="138" cy="126.7" rx="0.3" ry="0.3"/>
						<ellipse class="st6" cx="132" cy="126.7" rx="0.3" ry="0.3"/>
					</g>
					<g>
						<ellipse class="st6" cx="126.1" cy="126.7" rx="0.3" ry="0.3"/>
					</g>
				</g>
			</g>
			<g class="st11">
				<g>
					<g>
						<ellipse class="st6" cx="138" cy="153.8" rx="0.3" ry="0.3"/>
						<ellipse class="st6" cx="132" cy="153.8" rx="0.3" ry="0.3"/>
						<ellipse class="st6" cx="138" cy="147" rx="0.3" ry="0.3"/>
						<ellipse class="st6" cx="132" cy="147" rx="0.3" ry="0.3"/>
						<ellipse class="st6" cx="129.1" cy="150.4" rx="0.3" ry="0.3"/>
						<ellipse class="st6" cx="135" cy="150.4" rx="0.3" ry="0.3"/>
						<ellipse class="st6" cx="129.1" cy="143.6" rx="0.3" ry="0.3"/>
						<ellipse class="st6" cx="135" cy="143.6" rx="0.3" ry="0.3"/>
					</g>
					<g>
						<ellipse class="st6" cx="126.1" cy="153.8" rx="0.3" ry="0.3"/>
						<ellipse class="st6" cx="126.1" cy="147" rx="0.3" ry="0.3"/>
					</g>
					<g>
						<ellipse class="st6" cx="132" cy="140.2" rx="0.3" ry="0.3"/>
					</g>
					<g>
						<ellipse class="st6" cx="126.1" cy="140.2" rx="0.3" ry="0.3"/>
					</g>
				</g>
			</g>
			<g class="st11">
				<g>
					<g>
						<ellipse class="st6" cx="138" cy="167.4" rx="0.3" ry="0.3"/>
						<ellipse class="st6" cx="132" cy="167.4" rx="0.3" ry="0.3"/>
						<ellipse class="st6" cx="138" cy="160.6" rx="0.3" ry="0.3"/>
						<ellipse class="st6" cx="132" cy="160.6" rx="0.3" ry="0.3"/>
						<ellipse class="st6" cx="129.1" cy="164" rx="0.3" ry="0.3"/>
						<ellipse class="st6" cx="135" cy="164" rx="0.3" ry="0.3"/>
						<ellipse class="st6" cx="129.1" cy="157.2" rx="0.3" ry="0.3"/>
						<ellipse class="st6" cx="135" cy="157.2" rx="0.3" ry="0.3"/>
					</g>
					<g>
						<ellipse class="st6" cx="126.1" cy="167.4" rx="0.3" ry="0.3"/>
						<ellipse class="st6" cx="126.1" cy="160.6" rx="0.3" ry="0.3"/>
					</g>
					<g>
						<ellipse class="st6" cx="132" cy="153.8" rx="0.3" ry="0.3"/>
					</g>
					<g>
						<ellipse class="st6" cx="126.1" cy="153.8" rx="0.3" ry="0.3"/>
					</g>
				</g>
			</g>
			<g class="st11">
				<g>
					<defs>
						<rect id="SVGID_3_" x="114.3" y="113.1" width="11.8" height="13.6"/>
					</defs>
					<clipPath id="SVGID_4_">
						<use xlink:href="#SVGID_3_"  style="overflow:visible;"/>
					</clipPath>
					<g class="st12">
						<ellipse class="st6" cx="126.1" cy="126.7" rx="0.3" ry="0.3"/>
						<ellipse class="st6" cx="120.2" cy="126.7" rx="0.3" ry="0.3"/>
						<ellipse class="st6" cx="126.1" cy="119.9" rx="0.3" ry="0.3"/>
						<ellipse class="st6" cx="120.2" cy="119.9" rx="0.3" ry="0.3"/>
						<ellipse class="st6" cx="117.3" cy="123.3" rx="0.3" ry="0.3"/>
						<ellipse class="st6" cx="123.2" cy="123.3" rx="0.3" ry="0.3"/>
						<ellipse class="st6" cx="117.3" cy="116.5" rx="0.3" ry="0.3"/>
						<ellipse class="st6" cx="123.2" cy="116.5" rx="0.3" ry="0.3"/>
					</g>
					<g class="st12">
						<ellipse class="st6" cx="114.3" cy="126.7" rx="0.3" ry="0.3"/>
					</g>
					<g class="st12">
						<ellipse class="st6" cx="126.1" cy="113.1" rx="0.3" ry="0.3"/>
						<ellipse class="st6" cx="120.2" cy="113.1" rx="0.3" ry="0.3"/>
					</g>
					<g class="st12">
						<ellipse class="st6" cx="114.3" cy="113.1" rx="0.3" ry="0.3"/>
					</g>
				</g>
			</g>
			<g class="st11">
				<g>
					<g>
						<ellipse class="st6" cx="126.1" cy="140.2" rx="0.3" ry="0.3"/>
						<ellipse class="st6" cx="120.2" cy="140.2" rx="0.3" ry="0.3"/>
						<ellipse class="st6" cx="126.1" cy="133.5" rx="0.3" ry="0.3"/>
						<ellipse class="st6" cx="120.2" cy="133.5" rx="0.3" ry="0.3"/>
						<ellipse class="st6" cx="117.3" cy="136.9" rx="0.3" ry="0.3"/>
						<ellipse class="st6" cx="123.2" cy="136.9" rx="0.3" ry="0.3"/>
						<ellipse class="st6" cx="117.3" cy="130.1" rx="0.3" ry="0.3"/>
						<ellipse class="st6" cx="123.2" cy="130.1" rx="0.3" ry="0.3"/>
					</g>
					<g>
						<ellipse class="st6" cx="114.3" cy="133.5" rx="0.3" ry="0.3"/>
					</g>
					<g>
						<ellipse class="st6" cx="126.1" cy="126.7" rx="0.3" ry="0.3"/>
						<ellipse class="st6" cx="120.2" cy="126.7" rx="0.3" ry="0.3"/>
					</g>
					<g>
						<ellipse class="st6" cx="114.3" cy="126.7" rx="0.3" ry="0.3"/>
					</g>
				</g>
			</g>
			<g class="st11">
				<g>
					<g>
						<ellipse class="st6" cx="126.1" cy="153.8" rx="0.3" ry="0.3"/>
						<ellipse class="st6" cx="120.2" cy="153.8" rx="0.3" ry="0.3"/>
						<ellipse class="st6" cx="126.1" cy="147" rx="0.3" ry="0.3"/>
						<ellipse class="st6" cx="120.2" cy="147" rx="0.3" ry="0.3"/>
						<ellipse class="st6" cx="117.3" cy="150.4" rx="0.3" ry="0.3"/>
						<ellipse class="st6" cx="123.2" cy="150.4" rx="0.3" ry="0.3"/>
						<ellipse class="st6" cx="117.3" cy="143.6" rx="0.3" ry="0.3"/>
						<ellipse class="st6" cx="123.2" cy="143.6" rx="0.3" ry="0.3"/>
					</g>
					<g>
						<ellipse class="st6" cx="114.3" cy="153.8" rx="0.3" ry="0.3"/>
						<ellipse class="st6" cx="114.3" cy="147" rx="0.3" ry="0.3"/>
					</g>
					<g>
						<ellipse class="st6" cx="126.1" cy="140.2" rx="0.3" ry="0.3"/>
						<ellipse class="st6" cx="120.2" cy="140.2" rx="0.3" ry="0.3"/>
					</g>
				</g>
			</g>
			<g class="st11">
				<g>
					<g>
						<ellipse class="st6" cx="126.1" cy="167.4" rx="0.3" ry="0.3"/>
						<ellipse class="st6" cx="120.2" cy="167.4" rx="0.3" ry="0.3"/>
						<ellipse class="st6" cx="126.1" cy="160.6" rx="0.3" ry="0.3"/>
						<ellipse class="st6" cx="120.2" cy="160.6" rx="0.3" ry="0.3"/>
						<ellipse class="st6" cx="117.3" cy="164" rx="0.3" ry="0.3"/>
						<ellipse class="st6" cx="123.2" cy="164" rx="0.3" ry="0.3"/>
						<ellipse class="st6" cx="117.3" cy="157.2" rx="0.3" ry="0.3"/>
						<ellipse class="st6" cx="123.2" cy="157.2" rx="0.3" ry="0.3"/>
					</g>
					<g>
						<ellipse class="st6" cx="114.3" cy="167.4" rx="0.3" ry="0.3"/>
						<ellipse class="st6" cx="114.3" cy="160.6" rx="0.3" ry="0.3"/>
					</g>
					<g>
						<ellipse class="st6" cx="126.1" cy="153.8" rx="0.3" ry="0.3"/>
						<ellipse class="st6" cx="120.2" cy="153.8" rx="0.3" ry="0.3"/>
					</g>
					<g>
						<ellipse class="st6" cx="114.3" cy="153.8" rx="0.3" ry="0.3"/>
					</g>
				</g>
			</g>
			<g class="st11">
				<g>
					<g>
						<ellipse class="st6" cx="114.3" cy="126.7" rx="0.3" ry="0.3"/>
						<ellipse class="st6" cx="108.4" cy="126.7" rx="0.3" ry="0.3"/>
					</g>
					<g>
						<ellipse class="st6" cx="114.3" cy="113.1" rx="0.3" ry="0.3"/>
						<ellipse class="st6" cx="108.4" cy="113.1" rx="0.3" ry="0.3"/>
					</g>
					<g>
						<ellipse class="st6" cx="102.5" cy="113.1" rx="0.3" ry="0.3"/>
					</g>
				</g>
			</g>
			<g class="st11">
				<g>
					<g>
						<ellipse class="st6" cx="114.3" cy="133.5" rx="0.3" ry="0.3"/>
						<ellipse class="st6" cx="108.4" cy="133.5" rx="0.3" ry="0.3"/>
						<ellipse class="st6" cx="105.4" cy="136.9" rx="0.3" ry="0.3"/>
						<ellipse class="st6" cx="105.4" cy="130.1" rx="0.3" ry="0.3"/>
						<ellipse class="st6" cx="111.4" cy="130.1" rx="0.3" ry="0.3"/>
					</g>
					<g>
						<ellipse class="st6" cx="102.5" cy="140.2" rx="0.3" ry="0.3"/>
						<ellipse class="st6" cx="102.5" cy="133.5" rx="0.3" ry="0.3"/>
					</g>
					<g>
						<ellipse class="st6" cx="114.3" cy="126.7" rx="0.3" ry="0.3"/>
						<ellipse class="st6" cx="108.4" cy="126.7" rx="0.3" ry="0.3"/>
					</g>
				</g>
			</g>
			<g class="st11">
				<g>
					<g>
						<ellipse class="st6" cx="114.3" cy="153.8" rx="0.3" ry="0.3"/>
						<ellipse class="st6" cx="108.4" cy="153.8" rx="0.3" ry="0.3"/>
						<ellipse class="st6" cx="114.3" cy="147" rx="0.3" ry="0.3"/>
						<ellipse class="st6" cx="108.4" cy="147" rx="0.3" ry="0.3"/>
						<ellipse class="st6" cx="105.4" cy="150.4" rx="0.3" ry="0.3"/>
						<ellipse class="st6" cx="111.4" cy="150.4" rx="0.3" ry="0.3"/>
						<ellipse class="st6" cx="111.4" cy="143.6" rx="0.3" ry="0.3"/>
					</g>
					<g>
						<ellipse class="st6" cx="102.5" cy="153.8" rx="0.3" ry="0.3"/>
						<ellipse class="st6" cx="102.5" cy="147" rx="0.3" ry="0.3"/>
					</g>
					<g>
						<ellipse class="st6" cx="102.5" cy="140.2" rx="0.3" ry="0.3"/>
					</g>
				</g>
			</g>
			<g class="st11">
				<g>
					<g>
						<ellipse class="st6" cx="114.3" cy="167.4" rx="0.3" ry="0.3"/>
						<ellipse class="st6" cx="108.4" cy="167.4" rx="0.3" ry="0.3"/>
						<ellipse class="st6" cx="114.3" cy="160.6" rx="0.3" ry="0.3"/>
						<ellipse class="st6" cx="108.4" cy="160.6" rx="0.3" ry="0.3"/>
						<ellipse class="st6" cx="105.4" cy="164" rx="0.3" ry="0.3"/>
						<ellipse class="st6" cx="111.4" cy="164" rx="0.3" ry="0.3"/>
						<ellipse class="st6" cx="105.4" cy="157.2" rx="0.3" ry="0.3"/>
						<ellipse class="st6" cx="111.4" cy="157.2" rx="0.3" ry="0.3"/>
					</g>
					<g>
						<ellipse class="st6" cx="102.5" cy="167.4" rx="0.3" ry="0.3"/>
						<ellipse class="st6" cx="102.5" cy="160.6" rx="0.3" ry="0.3"/>
					</g>
					<g>
						<ellipse class="st6" cx="114.3" cy="153.8" rx="0.3" ry="0.3"/>
						<ellipse class="st6" cx="108.4" cy="153.8" rx="0.3" ry="0.3"/>
					</g>
					<g>
						<ellipse class="st6" cx="102.5" cy="153.8" rx="0.3" ry="0.3"/>
					</g>
				</g>
			</g>
			<g class="st11">
				<g>
					<g>
						<ellipse class="st6" cx="90.7" cy="126.7" rx="0.3" ry="0.3"/>
					</g>
					<g>
						<ellipse class="st6" cx="102.5" cy="113.1" rx="0.3" ry="0.3"/>
						<ellipse class="st6" cx="96.6" cy="113.1" rx="0.3" ry="0.3"/>
					</g>
					<g>
						<ellipse class="st6" cx="90.7" cy="113.1" rx="0.3" ry="0.3"/>
					</g>
				</g>
			</g>
			<g class="st11">
				<g>
					<g>
						<ellipse class="st6" cx="102.5" cy="140.2" rx="0.3" ry="0.3"/>
						<ellipse class="st6" cx="96.6" cy="140.2" rx="0.3" ry="0.3"/>
						<ellipse class="st6" cx="102.5" cy="133.5" rx="0.3" ry="0.3"/>
						<ellipse class="st6" cx="96.6" cy="133.5" rx="0.3" ry="0.3"/>
						<ellipse class="st6" cx="99.5" cy="136.9" rx="0.3" ry="0.3"/>
						<ellipse class="st6" cx="93.6" cy="130.1" rx="0.3" ry="0.3"/>
						<ellipse class="st6" cx="99.5" cy="130.1" rx="0.3" ry="0.3"/>
					</g>
					<g>
						<ellipse class="st6" cx="90.7" cy="133.5" rx="0.3" ry="0.3"/>
					</g>
					<g>
						<ellipse class="st6" cx="90.7" cy="126.7" rx="0.3" ry="0.3"/>
					</g>
				</g>
			</g>
			<g class="st11">
				<g>
					<g>
						<ellipse class="st6" cx="102.5" cy="153.8" rx="0.3" ry="0.3"/>
						<ellipse class="st6" cx="96.6" cy="153.8" rx="0.3" ry="0.3"/>
						<ellipse class="st6" cx="102.5" cy="147" rx="0.3" ry="0.3"/>
						<ellipse class="st6" cx="96.6" cy="147" rx="0.3" ry="0.3"/>
						<ellipse class="st6" cx="85.1" cy="133.8" rx="0.3" ry="0.3"/>
						<ellipse class="st6" cx="88.4" cy="136.9" rx="0.3" ry="0.3"/>
						<ellipse class="st6" cx="93.3" cy="136.6" rx="0.3" ry="0.3"/>
						<ellipse class="st6" cx="93.6" cy="150.4" rx="0.3" ry="0.3"/>
						<ellipse class="st6" cx="99.5" cy="150.4" rx="0.3" ry="0.3"/>
					</g>
					<g>
						<ellipse class="st6" cx="90.7" cy="153.8" rx="0.3" ry="0.3"/>
						<ellipse class="st6" cx="90.7" cy="147" rx="0.3" ry="0.3"/>
					</g>
					<g>
						<ellipse class="st6" cx="102.5" cy="140.2" rx="0.3" ry="0.3"/>
						<ellipse class="st6" cx="96.6" cy="140.2" rx="0.3" ry="0.3"/>
					</g>
				</g>
			</g>
			<g class="st11">
				<g>
					<g>
						<ellipse class="st6" cx="102.5" cy="167.4" rx="0.3" ry="0.3"/>
						<ellipse class="st6" cx="96.6" cy="167.4" rx="0.3" ry="0.3"/>
						<ellipse class="st6" cx="102.5" cy="160.6" rx="0.3" ry="0.3"/>
						<ellipse class="st6" cx="96.6" cy="160.6" rx="0.3" ry="0.3"/>
						<ellipse class="st6" cx="93.6" cy="164" rx="0.3" ry="0.3"/>
						<ellipse class="st6" cx="99.5" cy="164" rx="0.3" ry="0.3"/>
						<ellipse class="st6" cx="93.6" cy="157.2" rx="0.3" ry="0.3"/>
						<ellipse class="st6" cx="99.5" cy="157.2" rx="0.3" ry="0.3"/>
					</g>
					<g>
						<ellipse class="st6" cx="90.7" cy="167.4" rx="0.3" ry="0.3"/>
						<ellipse class="st6" cx="90.7" cy="160.6" rx="0.3" ry="0.3"/>
					</g>
					<g>
						<ellipse class="st6" cx="102.5" cy="153.8" rx="0.3" ry="0.3"/>
						<ellipse class="st6" cx="96.6" cy="153.8" rx="0.3" ry="0.3"/>
					</g>
					<g>
						<ellipse class="st6" cx="90.7" cy="153.8" rx="0.3" ry="0.3"/>
					</g>
				</g>
			</g>
			<g class="st11">
				<g>
					<defs>
						<rect id="SVGID_5_" x="78.8" y="113.1" width="11.8" height="13.6"/>
					</defs>
					<clipPath id="SVGID_6_">
						<use xlink:href="#SVGID_5_"  style="overflow:visible;"/>
					</clipPath>
					<g class="st13">
						<ellipse class="st6" cx="90.7" cy="126.7" rx="0.3" ry="0.3"/>
						<ellipse class="st6" cx="84.7" cy="126.7" rx="0.3" ry="0.3"/>
						<ellipse class="st6" cx="84.7" cy="119.9" rx="0.3" ry="0.3"/>
						<ellipse class="st6" cx="81.8" cy="123.3" rx="0.3" ry="0.3"/>
						<ellipse class="st6" cx="87.7" cy="123.3" rx="0.3" ry="0.3"/>
						<ellipse class="st6" cx="81.8" cy="116.5" rx="0.3" ry="0.3"/>
					</g>
					<g class="st13">
						<ellipse class="st6" cx="78.8" cy="126.7" rx="0.3" ry="0.3"/>
						<ellipse class="st6" cx="78.8" cy="119.9" rx="0.3" ry="0.3"/>
					</g>
					<g class="st13">
						<ellipse class="st6" cx="90.7" cy="113.1" rx="0.3" ry="0.3"/>
						<ellipse class="st6" cx="84.7" cy="113.1" rx="0.3" ry="0.3"/>
					</g>
					<g class="st13">
						<ellipse class="st6" cx="78.8" cy="113.1" rx="0.3" ry="0.3"/>
					</g>
				</g>
			</g>
			<g class="st11">
				<g>
					<g>
						<ellipse class="st6" cx="90.7" cy="133.5" rx="0.3" ry="0.3"/>
						<ellipse class="st6" cx="81.8" cy="136.9" rx="0.3" ry="0.3"/>
						<ellipse class="st6" cx="81.8" cy="130.1" rx="0.3" ry="0.3"/>
						<ellipse class="st6" cx="87.7" cy="130.1" rx="0.3" ry="0.3"/>
					</g>
					<g>
						<ellipse class="st6" cx="78.8" cy="140.2" rx="0.3" ry="0.3"/>
						<ellipse class="st6" cx="78.8" cy="133.5" rx="0.3" ry="0.3"/>
					</g>
					<g>
						<ellipse class="st6" cx="90.7" cy="126.7" rx="0.3" ry="0.3"/>
						<ellipse class="st6" cx="84.7" cy="126.7" rx="0.3" ry="0.3"/>
					</g>
					<g>
						<ellipse class="st6" cx="78.8" cy="126.7" rx="0.3" ry="0.3"/>
					</g>
				</g>
			</g>
			<g class="st11">
				<g>
					<g>
						<ellipse class="st6" cx="90.7" cy="153.8" rx="0.3" ry="0.3"/>
						<ellipse class="st6" cx="84.7" cy="153.8" rx="0.3" ry="0.3"/>
						<ellipse class="st6" cx="90.7" cy="147" rx="0.3" ry="0.3"/>
						<ellipse class="st6" cx="84.7" cy="147" rx="0.3" ry="0.3"/>
						<ellipse class="st6" cx="81.8" cy="150.4" rx="0.3" ry="0.3"/>
						<ellipse class="st6" cx="87.7" cy="150.4" rx="0.3" ry="0.3"/>
						<ellipse class="st6" cx="81.8" cy="143.6" rx="0.3" ry="0.3"/>
					</g>
					<g>
						<ellipse class="st6" cx="78.8" cy="153.8" rx="0.3" ry="0.3"/>
						<ellipse class="st6" cx="78.8" cy="147" rx="0.3" ry="0.3"/>
					</g>
					<g>
						<ellipse class="st6" cx="78.8" cy="140.2" rx="0.3" ry="0.3"/>
					</g>
				</g>
			</g>
			<g class="st11">
				<g>
					<g>
						<ellipse class="st6" cx="90.7" cy="167.4" rx="0.3" ry="0.3"/>
						<ellipse class="st6" cx="84.7" cy="167.4" rx="0.3" ry="0.3"/>
						<ellipse class="st6" cx="90.7" cy="160.6" rx="0.3" ry="0.3"/>
						<ellipse class="st6" cx="84.7" cy="160.6" rx="0.3" ry="0.3"/>
						<ellipse class="st6" cx="81.8" cy="164" rx="0.3" ry="0.3"/>
						<ellipse class="st6" cx="87.7" cy="164" rx="0.3" ry="0.3"/>
						<ellipse class="st6" cx="81.8" cy="157.2" rx="0.3" ry="0.3"/>
						<ellipse class="st6" cx="87.7" cy="157.2" rx="0.3" ry="0.3"/>
					</g>
					<g>
						<ellipse class="st6" cx="78.8" cy="167.4" rx="0.3" ry="0.3"/>
						<ellipse class="st6" cx="78.8" cy="160.6" rx="0.3" ry="0.3"/>
					</g>
					<g>
						<ellipse class="st6" cx="90.7" cy="153.8" rx="0.3" ry="0.3"/>
						<ellipse class="st6" cx="84.7" cy="153.8" rx="0.3" ry="0.3"/>
					</g>
					<g>
						<ellipse class="st6" cx="78.8" cy="153.8" rx="0.3" ry="0.3"/>
					</g>
				</g>
			</g>
			<g class="st11">
				<g>
					<defs>
						<rect id="SVGID_7_" x="67" y="113.1" width="11.8" height="13.6"/>
					</defs>
					<clipPath id="SVGID_8_">
						<use xlink:href="#SVGID_7_"  style="overflow:visible;"/>
					</clipPath>
					<g class="st14">
						<ellipse class="st6" cx="78.8" cy="126.7" rx="0.3" ry="0.3"/>
						<ellipse class="st6" cx="72.9" cy="126.7" rx="0.3" ry="0.3"/>
						<ellipse class="st6" cx="78.8" cy="119.9" rx="0.3" ry="0.3"/>
						<ellipse class="st6" cx="72.9" cy="119.9" rx="0.3" ry="0.3"/>
						<ellipse class="st6" cx="70" cy="123.3" rx="0.3" ry="0.3"/>
						<ellipse class="st6" cx="75.9" cy="123.3" rx="0.3" ry="0.3"/>
						<ellipse class="st6" cx="70" cy="116.5" rx="0.3" ry="0.3"/>
						<ellipse class="st6" cx="75.9" cy="116.5" rx="0.3" ry="0.3"/>
					</g>
					<g class="st14">
						<ellipse class="st6" cx="67" cy="126.7" rx="0.3" ry="0.3"/>
						<ellipse class="st6" cx="67" cy="119.9" rx="0.3" ry="0.3"/>
					</g>
					<g class="st14">
						<ellipse class="st6" cx="78.8" cy="113.1" rx="0.3" ry="0.3"/>
						<ellipse class="st6" cx="72.9" cy="113.1" rx="0.3" ry="0.3"/>
					</g>
					<g class="st14">
						<ellipse class="st6" cx="67" cy="113.1" rx="0.3" ry="0.3"/>
					</g>
				</g>
			</g>
			<g class="st11">
				<g>
					<defs>
						<rect id="SVGID_9_" x="67" y="126.7" width="11.8" height="13.6"/>
					</defs>
					<clipPath id="SVGID_10_">
						<use xlink:href="#SVGID_9_"  style="overflow:visible;"/>
					</clipPath>
					<g class="st15">
						<ellipse class="st6" cx="78.8" cy="140.2" rx="0.3" ry="0.3"/>
						<ellipse class="st6" cx="72.9" cy="140.2" rx="0.3" ry="0.3"/>
						<ellipse class="st6" cx="78.8" cy="133.5" rx="0.3" ry="0.3"/>
						<ellipse class="st6" cx="72.9" cy="133.5" rx="0.3" ry="0.3"/>
						<ellipse class="st6" cx="70" cy="136.9" rx="0.3" ry="0.3"/>
						<ellipse class="st6" cx="75.9" cy="136.9" rx="0.3" ry="0.3"/>
						<ellipse class="st6" cx="70" cy="130.1" rx="0.3" ry="0.3"/>
						<ellipse class="st6" cx="75.9" cy="130.1" rx="0.3" ry="0.3"/>
					</g>
					<g class="st15">
						<ellipse class="st6" cx="67" cy="140.2" rx="0.3" ry="0.3"/>
						<ellipse class="st6" cx="67" cy="133.5" rx="0.3" ry="0.3"/>
					</g>
					<g class="st15">
						<ellipse class="st6" cx="78.8" cy="126.7" rx="0.3" ry="0.3"/>
						<ellipse class="st6" cx="72.9" cy="126.7" rx="0.3" ry="0.3"/>
					</g>
					<g class="st15">
						<ellipse class="st6" cx="67" cy="126.7" rx="0.3" ry="0.3"/>
					</g>
				</g>
			</g>
			<g class="st11">
				<g>
					<defs>
						<rect id="SVGID_11_" x="67" y="140.2" width="11.8" height="13.6"/>
					</defs>
					<clipPath id="SVGID_12_">
						<use xlink:href="#SVGID_11_"  style="overflow:visible;"/>
					</clipPath>
					<g class="st16">
						<ellipse class="st6" cx="78.8" cy="153.8" rx="0.3" ry="0.3"/>
						<ellipse class="st6" cx="72.9" cy="153.8" rx="0.3" ry="0.3"/>
						<ellipse class="st6" cx="78.8" cy="147" rx="0.3" ry="0.3"/>
						<ellipse class="st6" cx="72.9" cy="147" rx="0.3" ry="0.3"/>
						<ellipse class="st6" cx="70" cy="150.4" rx="0.3" ry="0.3"/>
						<ellipse class="st6" cx="75.9" cy="150.4" rx="0.3" ry="0.3"/>
						<ellipse class="st6" cx="70" cy="143.6" rx="0.3" ry="0.3"/>
						<ellipse class="st6" cx="75.9" cy="143.6" rx="0.3" ry="0.3"/>
					</g>
					<g class="st16">
						<ellipse class="st6" cx="67" cy="153.8" rx="0.3" ry="0.3"/>
						<ellipse class="st6" cx="67" cy="147" rx="0.3" ry="0.3"/>
					</g>
					<g class="st16">
						<ellipse class="st6" cx="78.8" cy="140.2" rx="0.3" ry="0.3"/>
						<ellipse class="st6" cx="72.9" cy="140.2" rx="0.3" ry="0.3"/>
					</g>
					<g class="st16">
						<ellipse class="st6" cx="67" cy="140.2" rx="0.3" ry="0.3"/>
					</g>
				</g>
			</g>
			<g class="st11">
				<g>
					<g>
						<ellipse class="st6" cx="78.8" cy="167.4" rx="0.3" ry="0.3"/>
						<ellipse class="st6" cx="72.9" cy="167.4" rx="0.3" ry="0.3"/>
						<ellipse class="st6" cx="78.8" cy="160.6" rx="0.3" ry="0.3"/>
						<ellipse class="st6" cx="72.9" cy="160.6" rx="0.3" ry="0.3"/>
						<ellipse class="st6" cx="70" cy="164" rx="0.3" ry="0.3"/>
						<ellipse class="st6" cx="75.9" cy="164" rx="0.3" ry="0.3"/>
						<ellipse class="st6" cx="70" cy="157.2" rx="0.3" ry="0.3"/>
						<ellipse class="st6" cx="75.9" cy="157.2" rx="0.3" ry="0.3"/>
					</g>
					<g>
						<ellipse class="st6" cx="67" cy="167.4" rx="0.3" ry="0.3"/>
						<ellipse class="st6" cx="67" cy="160.6" rx="0.3" ry="0.3"/>
					</g>
					<g>
						<ellipse class="st6" cx="78.8" cy="153.8" rx="0.3" ry="0.3"/>
						<ellipse class="st6" cx="72.9" cy="153.8" rx="0.3" ry="0.3"/>
					</g>
					<g>
						<ellipse class="st6" cx="67" cy="153.8" rx="0.3" ry="0.3"/>
					</g>
				</g>
			</g>
			<g class="st11">
				<g>
					<g>
						<ellipse class="st6" cx="67" cy="126.7" rx="0.3" ry="0.3"/>
						<ellipse class="st6" cx="61.1" cy="126.7" rx="0.3" ry="0.3"/>
						<ellipse class="st6" cx="67" cy="119.9" rx="0.3" ry="0.3"/>
						<ellipse class="st6" cx="61.1" cy="119.9" rx="0.3" ry="0.3"/>
						<ellipse class="st6" cx="58.1" cy="123.3" rx="0.3" ry="0.3"/>
						<ellipse class="st6" cx="64.1" cy="123.3" rx="0.3" ry="0.3"/>
						<ellipse class="st6" cx="58.1" cy="116.5" rx="0.3" ry="0.3"/>
						<ellipse class="st6" cx="64.1" cy="116.5" rx="0.3" ry="0.3"/>
					</g>
					<g>
						<ellipse class="st6" cx="55.2" cy="126.7" rx="0.3" ry="0.3"/>
						<ellipse class="st6" cx="55.2" cy="119.9" rx="0.3" ry="0.3"/>
					</g>
					<g>
						<ellipse class="st6" cx="67" cy="113.1" rx="0.3" ry="0.3"/>
						<ellipse class="st6" cx="61.1" cy="113.1" rx="0.3" ry="0.3"/>
					</g>
					<g>
						<ellipse class="st6" cx="55.2" cy="113.1" rx="0.3" ry="0.3"/>
					</g>
				</g>
			</g>
			<g class="st11">
				<g>
					<g>
						<ellipse class="st6" cx="67" cy="140.2" rx="0.3" ry="0.3"/>
						<ellipse class="st6" cx="61.1" cy="140.2" rx="0.3" ry="0.3"/>
						<ellipse class="st6" cx="67" cy="133.5" rx="0.3" ry="0.3"/>
						<ellipse class="st6" cx="61.1" cy="133.5" rx="0.3" ry="0.3"/>
						<ellipse class="st6" cx="58.1" cy="136.9" rx="0.3" ry="0.3"/>
						<ellipse class="st6" cx="64.1" cy="136.9" rx="0.3" ry="0.3"/>
						<ellipse class="st6" cx="58.1" cy="130.1" rx="0.3" ry="0.3"/>
						<ellipse class="st6" cx="64.1" cy="130.1" rx="0.3" ry="0.3"/>
					</g>
					<g>
						<ellipse class="st6" cx="55.2" cy="140.2" rx="0.3" ry="0.3"/>
						<ellipse class="st6" cx="55.2" cy="133.5" rx="0.3" ry="0.3"/>
					</g>
					<g>
						<ellipse class="st6" cx="67" cy="126.7" rx="0.3" ry="0.3"/>
						<ellipse class="st6" cx="61.1" cy="126.7" rx="0.3" ry="0.3"/>
					</g>
					<g>
						<ellipse class="st6" cx="55.2" cy="126.7" rx="0.3" ry="0.3"/>
					</g>
				</g>
			</g>
			<g class="st11">
				<g>
					<g>
						<ellipse class="st6" cx="67" cy="153.8" rx="0.3" ry="0.3"/>
						<ellipse class="st6" cx="61.1" cy="153.8" rx="0.3" ry="0.3"/>
						<ellipse class="st6" cx="67" cy="147" rx="0.3" ry="0.3"/>
						<ellipse class="st6" cx="61.1" cy="147" rx="0.3" ry="0.3"/>
						<ellipse class="st6" cx="58.1" cy="150.4" rx="0.3" ry="0.3"/>
						<ellipse class="st6" cx="64.1" cy="150.4" rx="0.3" ry="0.3"/>
						<ellipse class="st6" cx="58.1" cy="143.6" rx="0.3" ry="0.3"/>
						<ellipse class="st6" cx="64.1" cy="143.6" rx="0.3" ry="0.3"/>
					</g>
					<g>
						<ellipse class="st6" cx="55.2" cy="153.8" rx="0.3" ry="0.3"/>
						<ellipse class="st6" cx="55.2" cy="147" rx="0.3" ry="0.3"/>
					</g>
					<g>
						<ellipse class="st6" cx="67" cy="140.2" rx="0.3" ry="0.3"/>
						<ellipse class="st6" cx="61.1" cy="140.2" rx="0.3" ry="0.3"/>
					</g>
					<g>
						<ellipse class="st6" cx="55.2" cy="140.2" rx="0.3" ry="0.3"/>
					</g>
				</g>
			</g>
			<g class="st11">
				<g>
					<defs>
						<rect id="SVGID_13_" x="55.2" y="153.8" width="11.8" height="13.6"/>
					</defs>
					<clipPath id="SVGID_14_">
						<use xlink:href="#SVGID_13_"  style="overflow:visible;"/>
					</clipPath>
					<g class="st17">
						<ellipse class="st6" cx="67" cy="167.4" rx="0.3" ry="0.3"/>
						<ellipse class="st6" cx="61.1" cy="167.4" rx="0.3" ry="0.3"/>
						<ellipse class="st6" cx="67" cy="160.6" rx="0.3" ry="0.3"/>
						<ellipse class="st6" cx="61.1" cy="160.6" rx="0.3" ry="0.3"/>
						<ellipse class="st6" cx="58.1" cy="164" rx="0.3" ry="0.3"/>
						<ellipse class="st6" cx="64.1" cy="164" rx="0.3" ry="0.3"/>
						<ellipse class="st6" cx="58.1" cy="157.2" rx="0.3" ry="0.3"/>
						<ellipse class="st6" cx="64.1" cy="157.2" rx="0.3" ry="0.3"/>
					</g>
					<g class="st17">
						<ellipse class="st6" cx="55.2" cy="167.4" rx="0.3" ry="0.3"/>
						<ellipse class="st6" cx="55.2" cy="160.6" rx="0.3" ry="0.3"/>
					</g>
					<g class="st17">
						<ellipse class="st6" cx="67" cy="153.8" rx="0.3" ry="0.3"/>
						<ellipse class="st6" cx="61.1" cy="153.8" rx="0.3" ry="0.3"/>
					</g>
					<g class="st17">
						<ellipse class="st6" cx="55.2" cy="153.8" rx="0.3" ry="0.3"/>
					</g>
				</g>
			</g>
		</g>
	</g>
</g>
</svg>
