<?xml version="1.0" encoding="utf-8"?>
<!-- Generator: Adobe Illustrator 20.0.0, SVG Export Plug-In . SVG Version: 6.00 Build 0)  -->
<svg version="1.1" id="Laag_1" xmlns="http://www.w3.org/2000/svg" xmlns:xlink="http://www.w3.org/1999/xlink" x="0px" y="0px"
	 viewBox="0 0 31.2 31.2" style="enable-background:new 0 0 31.2 31.2;" xml:space="preserve">
<style type="text/css">
	.st0{fill:#FFFFFF;stroke:#3C3C3B;stroke-width:0.5;stroke-miterlimit:10;}
	.st1{fill:#03587B;}
	.st2{fill:#FFFFFF;}
	.st3{fill:#12100B;}
	.st4{fill:#FAB609;}
	.st5{fill:#EA5B0C;}
	.st6{fill:#F5DFD0;}
	.st7{opacity:0.61;}
	.st8{fill:#221E20;}
	.st9{fill:#726658;}
	.st10{opacity:0.2;}
	.st11{fill:#3C3C3B;}
	.st12{fill:#CABA9F;}
	.st13{opacity:0.35;clip-path:url(#SVGID_2_);}
	.st14{fill:#DBDBDB;}
	.st15{opacity:0.33;clip-path:url(#SVGID_2_);}
</style>
<g id="Laag_3">
	<path class="st0" d="M15.8,29.3L15.8,29.3C8.2,29.3,2,23.1,2,15.6l0,0C2,8,8.2,1.8,15.8,1.8l0,0c7.6,0,13.8,6.2,13.8,13.8l0,0
		C29.5,23.1,23.3,29.3,15.8,29.3z"/>
	<path class="st1" d="M15.8,27.6L15.8,27.6c-6.6,0-12-5.4-12-12l0,0c0-6.6,5.4-12,12-12l0,0c6.6,0,12,5.4,12,12l0,0
		C27.8,22.2,22.4,27.6,15.8,27.6z"/>
	<g id="STEAMING_SAUSAGE_ON_FORK">
		<g id="fork_1_">
			<path class="st2" d="M15.8,29.1c-0.4,0-0.8-0.3-0.8-0.8v-4.6c-0.5-0.1-0.9-0.5-1.3-0.9c-0.4-0.6-0.6-1.3-0.6-2.1v-2.1h0.3
				c0.3,0,0.7,0.1,1,0.1h0.2v1.5H15v-1.5c0,0,0.6,0,0.8,0s0.8,0,0.8,0v1.5H17v-1.5h0.2c0.3,0,0.7-0.1,1-0.1h0.3v2.1
				c0,0.8-0.2,1.5-0.6,2.1c-0.3,0.5-0.8,0.8-1.3,0.9v4.6C16.6,28.8,16.2,29.1,15.8,29.1z"/>
			<path class="st3" d="M18.2,18.9v1.8c0,0.7-0.2,1.4-0.6,2c-0.3,0.5-0.8,0.8-1.3,0.9v4.8c0,0.3-0.2,0.5-0.5,0.5
				c-0.3,0-0.5-0.2-0.5-0.5v-4.8c-0.5-0.1-1-0.4-1.3-0.9c-0.4-0.5-0.6-1.2-0.6-2v-1.8c0.3,0,0.7,0.1,1,0.1v1.5h0.9v-1V19
				c0.2,0,0.3,0,0.5,0s0.3,0,0.5,0v0.5v1h0.9V19C17.5,18.9,17.9,18.9,18.2,18.9 M18.7,18.3l-0.6,0.1c-0.3,0-0.6,0.1-1,0.1h-0.4h-0.4
				c-0.2,0-0.3,0-0.5,0c-0.2,0-0.3,0-0.5,0h-0.4h-0.4c-0.3,0-0.7-0.1-1-0.1l-0.6-0.1v0.6v1.8c0,0.8,0.2,1.7,0.7,2.3
				c0.3,0.5,0.7,0.8,1.2,1v4.5c0,0.6,0.4,1,1,1s1-0.4,1-1V24c0.5-0.2,0.9-0.5,1.2-1c0.4-0.6,0.7-1.4,0.7-2.3v-1.8L18.7,18.3
				L18.7,18.3z"/>
		</g>
		<g id="sausage_2_">
			<path class="st4" d="M23.8,15.3c0-1.2-1-2.1-2.1-2.1c-0.5,0-1,0.2-1.4,0.5c-0.2,0.1-0.5,0.2-0.7,0.3c0,0,0,0-0.1,0
				c-0.6,0-1.1,0.2-1.5,0.6c-0.1,0-0.1,0-0.2,0c-0.6,0-1.1,0.2-1.4,0.6c-0.3-0.2-0.8-0.4-1.2-0.4c-0.2,0-0.4,0-0.6,0.1
				c-0.4-0.3-0.8-0.4-1.3-0.4c-0.2,0-0.3,0-0.5,0.1C12.4,14.2,12,14,11.4,14c-0.4-0.4-0.9-0.7-1.6-0.7c-1.2,0-2.1,1-2.1,2.1
				s0.9,2,2,2.1c0.4,0.4,0.9,0.7,1.6,0.7c0.2,0,0.3,0,0.5-0.1c0.4,0.4,0.9,0.6,1.5,0.6c0.2,0,0.4,0,0.6-0.1c0.4,0.3,0.8,0.4,1.3,0.4
				c0.6,0,1.1-0.2,1.4-0.6c0.3,0.2,0.8,0.4,1.2,0.4c0.6,0,1.1-0.2,1.5-0.6c0.1,0,0.1,0,0.2,0c0.5,0,0.9-0.2,1.2-0.4c0,0,0,0,0.1,0
				c0.5,0,1-0.2,1.4-0.5C23.1,17.1,23.8,16.3,23.8,15.3z"/>
			<path id="sausage_11_" class="st3" d="M24.3,13.7c0.1-0.4,0.1-0.8-0.1-0.9c-0.1,0-0.2,0-0.3,0.1l-0.3,0.6l-0.1,0.1l0,0
				c-0.4-0.6-1.1-1-1.8-1c-0.1,0-0.2,0-0.2,0c-0.7,0-1.2,0.3-1.9,0.7c-1,0.5-2.1,1.1-3.8,1.1S13,13.8,12,13.3
				c-0.7-0.4-1.3-0.7-1.9-0.7c-0.1,0-0.2,0-0.2,0c-0.8,0-1.4,0.4-1.8,1l0,0L8,13.5l-0.3-0.6c0-0.1-0.2-0.2-0.3-0.1
				c-0.2,0.1-0.2,0.5-0.1,0.9c-0.4,0.1-0.8,0.2-0.8,0.4c0,0.1,0.1,0.2,0.2,0.2h0.5h0.4c-0.1,0.2-0.1,0.5-0.1,0.8s0.1,0.8,0.1,0.8
				c0.4,1.1,1.5,2,3.3,2.6c1.4,0.4,3.2,0.7,4.9,0.7s3.5-0.3,4.9-0.7c1.8-0.6,2.9-1.5,3.3-2.6c0.1-0.3,0.1-0.6,0.1-0.8
				c0-0.3,0-0.5-0.1-0.8h0.4h0.5c0.1,0,0.2-0.1,0.2-0.2C25.1,13.9,24.7,13.8,24.3,13.7z M23.3,15.7L23.3,15.7
				c-0.4,1.1-1.7,1.8-2.8,2.1c-1.3,0.4-3,0.7-4.7,0.7s-3.3-0.2-4.7-0.7c-1.1-0.3-2.4-1-2.8-2.1c0-0.2-0.1-0.5-0.1-0.6
				c0-0.9,0.7-1.6,1.6-1.6c0.1,0,0.1,0,0.2,0l0,0l0,0c0.2,0,0.5,0.1,0.7,0.2L10,15.2c-0.1,0.2,0,0.4,0.2,0.5c0.1,0,0.1,0,0.2,0
				c0.1,0,0.3-0.1,0.3-0.2l0.7-1.5c0.1,0,0.1,0.1,0.2,0.1c0.4,0.2,0.9,0.5,1.4,0.7l0,0l-0.4,1.4c-0.1,0.2,0.1,0.4,0.3,0.5H13
				c0.2,0,0.3-0.1,0.4-0.3l0.4-1.4l0,0c0.5,0.1,1.1,0.2,1.7,0.3v1.2v0.3c0,0.2,0.2,0.4,0.4,0.4s0.4-0.2,0.4-0.4v-0.3v-1.2
				c0.6,0,1.2-0.1,1.7-0.3l0.4,1.4c0,0.2,0.2,0.3,0.4,0.3h0.1c0.2-0.1,0.3-0.3,0.3-0.5l-0.4-1.4l0,0c0.5-0.2,1-0.5,1.4-0.7
				c0.1,0,0.1-0.1,0.2-0.1l0.7,1.5c0.1,0.1,0.2,0.2,0.3,0.2c0.1,0,0.1,0,0.2,0c0.2-0.1,0.3-0.3,0.2-0.5l-0.7-1.5
				c0.2-0.1,0.5-0.2,0.7-0.2l0,0l0,0c0.1,0,0.1,0,0.2,0c0.9,0,1.6,0.7,1.6,1.6C23.4,15.3,23.3,15.5,23.3,15.7z"/>
			<g id="steam_2_">
				<path class="st3" d="M17.1,9.8c-0.3-0.2-0.5-0.5-0.5-0.8c0-0.4,0.1-0.8,0.4-1.1V7.8c0,0,0-0.1-0.1-0.1l0,0l0,0l0,0l0,0l0,0
					c-0.8,0.4-1.2,0.9-1.2,1.4c0,0.4,0.3,0.9,1,1.3c0.6,0.4,0.9,0.8,0.9,1.2c0,0.5-0.3,0.8-0.4,1v0.1c0,0,0,0.1,0.1,0.1l0,0l0,0l0,0
					l0,0l0,0c0.6-0.4,1.3-0.8,1.3-1.3C18.5,11,18,10.5,17.1,9.8z"/>
				<path class="st3" d="M14.6,9.8c-0.3-0.2-0.5-0.5-0.5-0.8c0-0.4,0.1-0.8,0.4-1.1V7.8c0,0,0-0.1-0.1-0.1l0,0l0,0l0,0l0,0l0,0
					c-0.8,0.4-1.2,0.9-1.2,1.4c0,0.4,0.3,0.9,1,1.3c0.6,0.4,0.9,0.8,0.9,1.2c0,0.5-0.3,0.8-0.4,1v0.1c0,0,0,0.1,0.1,0.1l0,0l0,0l0,0
					l0,0l0,0c0.6-0.4,1.3-0.8,1.3-1.3C16,11,15.6,10.5,14.6,9.8z"/>
			</g>
		</g>
	</g>
	<path class="st2" d="M15.9,1.8C8.3,1.8,2.1,8,2.1,15.6s6.2,13.7,13.7,13.7s13.7-6.2,13.7-13.7S23.4,1.8,15.9,1.8z M15.9,27.6
		c-6.6,0-12-5.4-12-12s5.4-12,12-12s12,5.4,12,12S22.5,27.6,15.9,27.6z"/>
</g>
<g id="Laag_2">
</g>
<g>
	<circle class="st5" cx="15.82115" cy="15.52061" r="14.06821"/>
</g>
<g>
	<g>
		<g id="_x34__8_">
			<g>
				<path class="st6" d="M14.69043,25.64245c0.24072,0.02313,0.48384,0.0389,0.72637,0.04695
					c0.11959,0.00101,0.24086-0.00034,0.36545-0.00604c6.5578-0.30826,5.80123-7.78776,5.80123-7.78776H21.707
					c0.00121-3.08431-0.0225-6.8378-0.0225-6.8378s-0.53564-4.23083-5.90558-4.23083c-5.3698,0-5.36436,4.58103-5.9287,6.60033
					c0,2.08672,0,4.96408,0,4.96408v0.54004C9.96499,20.52944,10.64726,25.12286,14.69043,25.64245z"/>
			</g>
			<g>
				<ellipse class="st6" cx="9.83525" cy="17.41074" rx="1.10147" ry="1.33503"/>
			</g>
			<g>
				<ellipse class="st6" cx="21.9707" cy="17.41074" rx="1.10138" ry="1.33503"/>
			</g>
		</g>
		<g id="_x39__8_" class="st7">
			<g>
				<path class="st8" d="M14.06551,15.17433h-2.01394c0.00102-0.03025,0.00288-0.05945,0.00665-0.08839h2.00069
					C14.06273,15.11489,14.06451,15.14409,14.06551,15.17433z"/>
				<path class="st9" d="M14.14469,15.25102h-2.17247l0.00275-0.07934c0.00113-0.03272,0.00317-0.06439,0.00733-0.09577
					l0.00875-0.06664h2.1351l0.00875,0.06664c0.00416,0.03145,0.00613,0.06312,0.00719,0.09598L14.14469,15.25102z"/>
			</g>
			<g>
				<path class="st8" d="M19.61612,15.17433h-2.01386c0.00099-0.03025,0.00283-0.05945,0.0066-0.08839h2.00072
					C19.61329,15.11489,19.61512,15.14409,19.61612,15.17433z"/>
				<path class="st9" d="M19.69534,15.25102h-2.17226l0.00261-0.07912c0.00106-0.03279,0.0031-0.06439,0.00712-0.09577
					l0.00867-0.06685h2.13545l0.00867,0.06685c0.00402,0.03138,0.00607,0.06298,0.00712,0.09577L19.69534,15.25102z"/>
			</g>
		</g>
		<g id="_x38__6_">
			<g class="st10">
				<path class="st8" d="M17.2743,16.71573c-0.12101,0-0.23487,0.02591-0.33502,0.07089l-0.18686-1.83308
					c0-0.51539-0.37345-0.93337-0.83422-0.93337c-0.46082,0-0.83431,0.41799-0.83431,0.93337l-0.17093,1.75942
					c-0.05484-0.01142-0.11187-0.01817-0.17079-0.01817c-0.39666,0-0.54717,0.29229-0.54717,0.63025
					c0,0.33796,0.32149,0.61199,0.71797,0.61199c0.10676,0,0.2078-0.02036,0.29877-0.056
					c0.14763,0.263,0.40833,0.43854,0.70647,0.43854c0.32242,0,0.60162-0.20493,0.74051-0.50456
					c0.1199,0.07625,0.26793,0.12202,0.42874,0.12202c0.39674,0,0.71801-0.27403,0.71801-0.61199
					C17.80545,16.98707,17.67078,16.71573,17.2743,16.71573z"/>
			</g>
			<g>
				<path class="st6" d="M17.20011,16.47982c-0.1128,0-0.2189,0.02393-0.31208,0.06613l-0.18686-1.70828
					c0-0.48044-0.34798-0.86973-0.77738-0.86973c-0.42945,0-0.77734,0.38929-0.77734,0.86973l-0.17093,1.63819
					c-0.05116-0.01062-0.10432-0.01678-0.15939-0.01678c-0.36941,0-0.49813,0.27343-0.49813,0.58826
					c0,0.31503,0.29965,0.57039,0.6692,0.57039c0.09948,0,0.19347-0.01916,0.27822-0.05232
					c0.13756,0.24523,0.38064,0.40875,0.65837,0.40875c0.30045,0,0.56075-0.19102,0.69005-0.47011
					c0.11164,0.07099,0.24965,0.11368,0.39968,0.11368c0.36936,0,0.66893-0.25536,0.66893-0.57039
					C17.68245,16.7325,17.5696,16.47982,17.20011,16.47982z"/>
			</g>
		</g>
		<g>
			<g>
				<g>
					<path class="st11" d="M19.61274,14.07536c-0.08052-0.26336-0.28638-0.47548-0.57993-0.59691
						c-0.30017-0.12409-0.65483-0.1393-0.99847-0.04255l-0.0571-0.18631c0.38916-0.10915,0.7925-0.09142,1.13567,0.05079
						c0.34976,0.14475,0.59645,0.40059,0.69386,0.72042L19.61274,14.07536z"/>
					<path class="st12" d="M19.61029,14.07988l-0.00106-0.00346c-0.08032-0.26248-0.28547-0.47362-0.57785-0.59449
						c-0.2995-0.12391-0.65324-0.13907-0.99604-0.04245l-0.00345,0.00092l-0.05931-0.1933l0.00367-0.00106
						c0.39033-0.10952,0.79463-0.09147,1.13807,0.05099c0.35112,0.1452,0.5983,0.4019,0.69597,0.7227l0.00113,0.0036
						l-0.00367,0.00106L19.61029,14.07988z M18.48329,13.36924c0.19316,0,0.38067,0.0354,0.55091,0.10578
						c0.29316,0.1213,0.49936,0.33279,0.58102,0.59583l0.18688-0.05261c-0.09774-0.31692-0.34287-0.57059-0.69061-0.71438
						c-0.34097-0.14132-0.74174-0.15973-1.12961-0.05169l0.05494,0.17919C18.18534,13.38983,18.33597,13.36924,18.48329,13.36924z"
						/>
				</g>
			</g>
			<g>
				<g>
					<path class="st11" d="M11.97964,14.14105l-0.19583-0.04889c0.08747-0.3225,0.32592-0.58535,0.67081-0.74032
						c0.33877-0.1518,0.74135-0.18141,1.13365-0.08341l-0.05085,0.18758c-0.34684-0.08652-0.70083-0.06116-0.99709,0.07173
						C12.25077,13.65769,12.05184,13.87546,11.97964,14.14105z"/>
					<path class="st12" d="M11.98223,14.14546l-0.00353-0.00085l-0.1995-0.04979l0.00099-0.00367
						c0.0878-0.32334,0.32672-0.58716,0.67284-0.74273c0.33963-0.15226,0.74301-0.18187,1.13616-0.08357l0.00367,0.00092
						l-0.05282,0.19464l-0.00353-0.00085c-0.34633-0.08639-0.69943-0.06086-0.9947,0.07158
						c-0.28829,0.12934-0.48667,0.34626-0.5586,0.61085L11.98223,14.14546z M11.78837,14.08947l0.18864,0.04711
						c0.07334-0.26516,0.27271-0.4825,0.56184-0.61219c0.29569-0.13265,0.64922-0.15867,0.99597-0.07285l0.04887-0.18039
						c-0.39026-0.09683-0.79047-0.06699-1.12763,0.08406C12.11333,13.50929,11.87631,13.76994,11.78837,14.08947z"/>
				</g>
			</g>
		</g>
	</g>
	<g>
		<path class="st11" d="M9.91295,16.35801c-0.4458-2.85861-0.6749-3.71903,0.33885-5.35692
			C6.89614,5.3815,20.92217,2.21414,21.7365,11.26105c1.45122-0.00957,0,4.6388,0,4.6388l-0.48977-4.86326
			c0,0-9.91333-1.36445-10.64961,0.26187C9.8999,12.8385,9.91295,16.35801,9.91295,16.35801z"/>
		<path class="st12" d="M9.9092,16.35855c-0.03032-0.19443-0.05945-0.37842-0.08766-0.55641
			c-0.19351-1.22255-0.32136-2.0303-0.28491-2.73713c0.0366-0.70895,0.24252-1.30704,0.71071-2.06401
			C9.87478,10.37639,9.70208,9.757,9.73409,9.16011c0.02962-0.55197,0.23251-1.07474,0.60303-1.55365
			c0.32031-0.4141,0.75507-0.78187,1.29223-1.09308c0.52291-0.30296,1.11861-0.53871,1.77057-0.70077
			c1.35591-0.33716,2.80829-0.31636,4.08902,0.05776c0.55267,0.16156,1.06776,0.38744,1.5308,0.6715
			c0.49245,0.30204,0.92827,0.67143,1.29554,1.09787c0.81374,0.94505,1.29307,2.16218,1.42467,3.61752
			c0.00028,0,0.00063,0,0.00099,0c0.17842,0,0.32179,0.07151,0.4263,0.21255c0.15367,0.20754,0.22673,0.56981,0.21721,1.07679
			c-0.00762,0.40507-0.0677,0.90309-0.17856,1.48017c-0.18871,0.98243-0.46304,1.86542-0.46579,1.87424l-0.0055,0.01763
			l-0.00183-0.01841l-0.48949-4.86031c-0.09943-0.01354-2.5444-0.34435-5.0455-0.47849
			c-1.49209-0.07983-2.71196-0.07525-3.6257,0.01375c-1.14082,0.11135-1.80414,0.35522-1.97149,0.72482
			c-0.35994,0.79506-0.52672,2.12783-0.60324,3.10596c-0.08293,1.06-0.08068,1.94321-0.08061,1.95202L9.9092,16.35855z
			 M15.35829,5.58152c-0.65486,0-1.31635,0.07934-1.95654,0.23843c-0.65126,0.16185-1.24632,0.39739-1.7686,0.69999
			c-0.53631,0.31072-0.97037,0.67778-1.29011,1.0911c-0.36946,0.47771-0.57186,0.99907-0.6014,1.54949
			c-0.03195,0.59597,0.14076,1.21458,0.51339,1.83863l0.0012,0.00197l-0.0012,0.0019
			c-0.46833,0.75669-0.67425,1.35422-0.71085,2.06239c-0.03646,0.70606,0.0914,1.51345,0.28483,2.73551
			c0.02588,0.1634,0.05254,0.33187,0.08018,0.50881c0.00085-0.19859,0.00867-0.98497,0.08061-1.90428
			c0.07659-0.97876,0.24351-2.31253,0.60387-3.10857c0.16854-0.37228,0.83391-0.61762,1.97769-0.72919
			c0.91402-0.08921,2.13432-0.09379,3.62683-0.01382c2.54116,0.13625,5.02427,0.47559,5.04903,0.47898l0.00296,0.00042
			l0.00028,0.00296l0.48793,4.84466c0.03977-0.13011,0.28625-0.9507,0.46008-1.85562c0.11079-0.57665,0.1708-1.07425,0.17842-1.4789
			c0.00952-0.50521-0.06312-0.86593-0.21579-1.07206c-0.10289-0.139-0.24429-0.20952-0.42024-0.20952
			c-0.00141,0-0.00289,0-0.00437,0.00007h-0.00346l-0.00028-0.00346c-0.13103-1.45534-0.60987-2.67211-1.42326-3.61674
			c-0.36671-0.42588-0.80197-0.7947-1.29371-1.09632c-0.46248-0.28371-0.97693-0.50937-1.52897-0.67073
			C16.81194,5.68046,16.08931,5.58152,15.35829,5.58152z"/>
	</g>
	<g>
		<defs>
			<path id="SVGID_1_" d="M9.91295,16.35801c-0.4458-2.85861-0.6749-3.71903,0.33885-5.35692
				C6.89614,5.3815,20.92217,2.21414,21.7365,11.26105c1.45122-0.00957,0,4.6388,0,4.6388l-0.48977-4.86326
				c0,0-9.91333-1.36445-10.64961,0.26187C9.8999,12.8385,9.91295,16.35801,9.91295,16.35801z"/>
		</defs>
		<clipPath id="SVGID_2_">
			<use xlink:href="#SVGID_1_"  style="overflow:visible;"/>
		</clipPath>
		<g class="st13">
			<path class="st14" d="M21.57182,12.03324c0.20519-0.04215,0.44007-0.08549,0.70846-0.12786
				c0.23506-0.03722,0.44679-0.07707,0.63788-0.12046l0.36551,0.15582c0,0-0.38136,0.34043-0.5172,0.37116
				c-0.13561,0.031,0.37314,0.05248,0.44969,0.0167c0.07703-0.03585-0.06946,0.27537-0.37892,0.40419
				c-0.30418,0.12635-0.99061,0.28463-1.01328,0.29007c0.02033,0.00157,0.62371,0.04349,0.77514,0.00019
				c-0.09833,0.06401-0.37041,0.24549-0.54953,0.28983c-0.24089,0.05912-0.31784,0.07025-0.31784,0.07025
				s0.35491,0.09334,0.47037,0.06405c0.11546-0.02936-0.41471,0.20601-0.41471,0.20601s0.47241,0.0538,0.76201-0.04879
				c0.26717-0.09486,0.03208,0.13317-0.11999,0.19324c0.04431-0.01103,0.11163-0.02782,0.18289-0.04523
				c-0.58109,0.33916-1.11491,0.42915-1.57673,0.38943l0.47501-0.12743c-0.02447-0.00329-0.41781-0.05057-0.57663-0.09911
				c-0.16463-0.04984-0.27621-0.08995-0.27621-0.08995s0.44754-0.07138,0.6252-0.16469
				c0.17813-0.09296,0.04637-0.10668-0.09781-0.13377c-0.14371-0.02729-0.2394-0.09774-0.2394-0.09774
				s0.42724-0.06994,0.53845-0.17718c0.11057-0.10707-0.39167-0.06059-0.62907-0.14371
				c-0.23737-0.08328,0.54265-0.07436,0.80736-0.27805c0.26447-0.20318,0.21375-0.22342-0.16897-0.22594
				c-0.38324-0.00212,0.15903-0.17493,0.28004-0.28295C21.86687,12.238,21.66791,12.09489,21.57182,12.03324z"/>
		</g>
		<g class="st13">
			<path class="st14" d="M9.80634,12.03324c0.20519-0.04215,0.44007-0.08549,0.70846-0.12786
				c0.23506-0.03722,0.4468-0.07707,0.63788-0.12046l0.36551,0.15582c0,0-0.38136,0.34043-0.5172,0.37116
				c-0.13561,0.031,0.37314,0.05248,0.44969,0.0167c0.07703-0.03585-0.06946,0.27537-0.37892,0.40419
				c-0.30418,0.12635-0.99061,0.28463-1.01327,0.29007c0.02033,0.00157,0.62371,0.04349,0.77515,0.00019
				c-0.09833,0.06401-0.37042,0.24549-0.54953,0.28983c-0.24089,0.05912-0.31784,0.07025-0.31784,0.07025
				s0.35491,0.09334,0.47037,0.06405c0.11546-0.02936-0.41471,0.20601-0.41471,0.20601s0.47241,0.0538,0.76201-0.04879
				c0.26717-0.09486,0.03208,0.13317-0.11999,0.19324c0.0443-0.01103,0.11163-0.02782,0.18289-0.04523
				c-0.58109,0.33916-1.11491,0.42915-1.57673,0.38943l0.47501-0.12743c-0.02446-0.00329-0.41781-0.05057-0.57663-0.09911
				c-0.16463-0.04984-0.27621-0.08995-0.27621-0.08995s0.44754-0.07138,0.6252-0.16469
				c0.17813-0.09296,0.04637-0.10668-0.09781-0.13377c-0.14371-0.02729-0.23941-0.09774-0.23941-0.09774
				s0.42724-0.06994,0.53845-0.17718c0.11057-0.10707-0.39167-0.06059-0.62907-0.14371
				c-0.23737-0.08328,0.54265-0.07436,0.80736-0.27805c0.26447-0.20318,0.21376-0.22342-0.16897-0.22594
				c-0.38324-0.00212,0.15903-0.17493,0.28004-0.28295C10.10139,12.238,9.90243,12.09489,9.80634,12.03324z"/>
		</g>
		<g class="st15">
			<path class="st14" d="M13.73916,6.28761c0.71071,2.08079,2.01231,2.92497,2.01231,2.92497s-0.9187-0.14149-1.11278-0.33627
				c-0.19423-0.19396,0.33179,0.75344,0.46831,0.83376c0.13716,0.08107-0.48114,0.31456-1.0098-0.03541
				c-0.51924-0.34442-1.5044-1.324-1.53723-1.356c0.01997,0.039,0.61965,1.18883,0.84932,1.39157
				c-0.20192-0.07438-0.76706-0.27328-1.0286-0.52403C12.02971,8.84811,11.929,8.72776,11.929,8.72776
				s0.25172,0.78589,0.42134,0.94641c0.16973,0.16041-0.75755-0.41574-0.75755-0.41574s0.43865,0.93372,0.90695,1.28987
				c0.43236,0.32823-0.16072,0.27-0.41573,0.09286c0.06479,0.06192,0.16327,0.15598,0.26698,0.25611
				c-1.13574-0.502-1.85319-1.31658-2.30094-2.20885l0.70806,0.64931c-0.02197-0.04916-0.38356-0.83057-0.48624-1.19305
				c-0.10714-0.37498-0.17044-0.63922-0.17044-0.63922s0.59552,0.68941,0.92748,0.85945
				C11.36087,8.53638,11.23663,8.278,11.11845,7.976c-0.11738-0.30146-0.11865-0.58559-0.11865-0.58559
				s0.57115,0.65528,0.85077,0.68383c0.27868,0.02767-0.34017-0.79962-0.47812-1.35831
				c-0.13768-0.55887,0.70414,0.85537,1.29386,1.00558c0.58871,0.15061,0.56289,0.0273,0.14713-0.66366
				c-0.41694-0.69125,0.4316,0.00642,0.72311,0.05131C13.76138,7.14379,13.7538,6.55842,13.73916,6.28761z"/>
		</g>
	</g>
	<g>
		<path class="st2" d="M12.64125,19.80267h6.71795c0,0,0.13625,3.1308-3.35859,3.16835
			C12.505,23.00734,12.64125,19.80267,12.64125,19.80267z"/>
	</g>
</g>
</svg>
