<?xml version="1.0" encoding="utf-8"?>
<!-- Generator: Adobe Illustrator 20.0.0, SVG Export Plug-In . SVG Version: 6.00 Build 0)  -->
<svg version="1.1" id="Layer_1" xmlns="http://www.w3.org/2000/svg" xmlns:xlink="http://www.w3.org/1999/xlink" x="0px" y="0px"
	 viewBox="0 0 199.7573853 199.7573853" style="enable-background:new 0 0 199.7573853 199.7573853;" xml:space="preserve">
<style type="text/css">
	.st0{fill:#EDD600;}
	.st1{fill:#F6E0D1;}
	.st2{opacity:0.2;fill:#231F20;}
	.st3{fill:none;}
	.st4{fill:#F1F2F2;}
	.st5{opacity:0.83;fill:#36A9E1;}
	.st6{fill:#736759;}
	.st7{fill:#715E4B;}
	.st8{fill:#AB978C;}
</style>
<circle class="st0" cx="100.2455673" cy="99.8786926" r="97.406929"/>
<g id="_x34__5_">
	<path class="st1" d="M92.3443832,162.7978516c1.747818,0.157486,3.513031,0.2648163,5.2739792,0.3196564
		c0.8683472,0.006897,1.7488174-0.0023346,2.6534348-0.041153c47.6145248-2.0985413,42.1212692-53.0166245,42.1212692-53.0166245
		h0.8968658c0.0087585-20.9970398-0.1633453-46.5496178-0.1633453-46.5496178s-3.8891602-28.8021545-42.8789291-28.8021545
		c-38.988739,0-43.0467758,30.7226295-43.0467758,44.9330101c0,14.2057114,0,33.7939072,0,33.7939072v3.676445
		C58.0342026,127.9900513,62.9879799,159.2606659,92.3443832,162.7978516z"/>
	<path class="st1" d="M65.5361938,106.7577744c0,5.0214462-3.1973038,9.0907288-7.1269875,9.0907288
		c-3.9384422,0-7.1279984-4.0692825-7.1279984-9.0907288c0-5.0192261,3.1895561-9.0861664,7.1279984-9.0861664
		C62.3388901,97.671608,65.5361938,101.7385483,65.5361938,106.7577744z"/>
	<ellipse class="st1" cx="142.9720001" cy="106.7589111" rx="7.1269422" ry="9.0884485"/>
</g>
<g id="_x38__3_">
	<path class="st2" d="M108.9086075,108.970192c-0.780571,0-1.5150604,0.1714706-2.161087,0.4691315l-1.2053299-12.1313477
		c0-3.41082-2.4089355-6.1770706-5.3812103-6.1770706c-2.9725494,0-5.3817749,2.7662506-5.3817749,6.1770706l-1.1025696,11.6438141
		c-0.353775-0.0755615-0.7215881-0.1202316-1.1017151-0.1202316c-2.5586472,0-3.5295563,1.9343948-3.5295563,4.1710205
		c0,2.2366333,2.0737686,4.0501556,4.6312714,4.0501556c0.6886826,0,1.3404236-0.1347046,1.9272232-0.3705978
		c0.9522934,1.7405472,2.6339264,2.9022675,4.5571213,2.9022675c2.0798035,0,3.8807831-1.3562012,4.77668-3.3392029
		c0.7734146,0.5046234,1.7282867,0.8075333,2.7656174,0.8075333c2.5592041,0,4.631546-1.8135223,4.631546-4.0501556
		C112.3348236,110.7659531,111.4661179,108.970192,108.9086075,108.970192z"/>
	<path class="st1" d="M108.4300232,107.4089813c-0.727623,0-1.4119949,0.1583557-2.013092,0.4376144l-1.2053299-11.3054123
		c0-3.1795349-2.2446518-5.7558823-5.0145416-5.7558823c-2.7701874,0-5.0142441,2.5763474-5.0142441,5.7558823
		l-1.1025696,10.8415298c-0.33004-0.0703125-0.6729431-0.1110535-1.028183-0.1110535
		c-2.3828735,0-3.2132416,1.8095474-3.2132416,3.8931122c0,2.0848694,1.9329376,3.774826,4.3166885,3.774826
		c0.6417236,0,1.2479782-0.1267929,1.7946777-0.3462753c0.8873444,1.6229401,2.4553299,2.7051315,4.2468719,2.7051315
		c1.9380875,0,3.6171341-1.2641907,4.4512177-3.1111832c0.7201614,0.4698029,1.6103745,0.752327,2.578125,0.752327
		c2.3826065,0,4.3149872-1.6899567,4.3149872-3.774826C111.5413895,109.0812073,110.8134918,107.4089813,108.4300232,107.4089813z"
		/>
</g>
<path class="st3" d="M92.7889099,162.7978516c1.7478104,0.157486,3.5130234,0.2648163,5.2739716,0.3196564
	c0.8683472,0.006897,1.7488174-0.0023346,2.6534348-0.041153c47.6145248-2.0985413,42.1212692-53.0166245,42.1212692-53.0166245
	h0.8968658c0.0087585-20.9970398-0.1633301-46.5496178-0.1633301-46.5496178s-3.8891754-28.8021545-42.8789444-28.8021545
	c-38.9887352,0-43.046772,30.7226295-43.046772,44.9330101c0,14.2057114,0,33.7939072,0,33.7939072v3.676445
	C58.4787216,127.9900513,63.4325027,159.2606659,92.7889099,162.7978516z"/>
<g id="_x39__5_">
	<path class="st4" d="M75.674324,91.684227c0-3.9628906,3.2612839-7.173378,7.2992172-7.173378
		c4.0238876,0,7.2913132,3.2104874,7.2913132,7.173378c0,3.9672165-3.2674255,7.1820755-7.2913132,7.1820755
		C78.9356079,98.8663025,75.674324,95.6514435,75.674324,91.684227z"/>
	<path class="st5" d="M80.6922684,91.9258652c0-2.2588425,1.8587646-4.0879974,4.1610947-4.0879974
		c2.2922134,0,4.1535873,1.829155,4.1535873,4.0879974c0,2.2588043-1.8613739,4.0905609-4.1535873,4.0905609
		C82.551033,96.0164261,80.6922684,94.1846695,80.6922684,91.9258652z"/>
	<path class="st1" d="M91.1155624,90.2226181c0,0.0077744,0,0.0077744,0,0.0147095H74.2588959c0-0.0069351,0-0.0069351,0-0.0147095
		c0.008522-0.2001572,0.0240936-0.3934326,0.0556488-0.5849762c0.4845276-4.1319962,4.0493317-7.3494186,8.3727951-7.3494186
		c4.3392181,0,7.8882751,3.2174225,8.3729858,7.3494186C91.0923157,89.8291855,91.1072159,90.0224609,91.1155624,90.2226181z"/>
	<path class="st4" d="M114.4393234,91.684227c0-3.9628906,3.2617264-7.173378,7.3001099-7.173378
		c4.0238876,0,7.2908707,3.2104874,7.2908707,7.173378c0,3.9672165-3.266983,7.1820755-7.2908707,7.1820755
		C117.7010498,98.8663025,114.4393234,95.6514435,114.4393234,91.684227z"/>
	<path class="st5" d="M115.0275269,91.9258194c0-2.2596817,1.8583221-4.088829,4.1606369-4.088829
		c2.2922211,0,4.1536407,1.8291473,4.1536407,4.088829c0,2.2588501-1.8614197,4.0906067-4.1536407,4.0906067
		C116.885849,96.0164261,115.0275269,94.1846695,115.0275269,91.9258194z"/>
	<path class="st1" d="M129.8805542,90.2226181c0,0.0077744,0,0.0077744,0,0.0147095H113.024559c0-0.0069351,0-0.0069351,0-0.0147095
		c0.0083084-0.2001572,0.0236511-0.3934326,0.0552063-0.5849762c0.4847488-4.1319962,4.0493393-7.3494186,8.3730164-7.3494186
		c4.3385925,0,7.887825,3.2174225,8.3729935,7.3494186C129.8569031,89.8291855,129.8722076,90.0224609,129.8805542,90.2226181z"/>
	<path class="st6" d="M91.1155624,90.2226181H74.2588959c0.008522-0.2001572,0.0240936-0.3934326,0.0556488-0.5849762h16.7457809
		C91.0923157,89.8291855,91.1072159,90.0224609,91.1155624,90.2226181z"/>
	<path class="st6" d="M129.8805542,90.2226181H113.024559c0.0083084-0.2001572,0.0236511-0.3934326,0.0552063-0.5849762h16.7460098
		C129.8569031,89.8291855,129.8722076,90.0224609,129.8805542,90.2226181z"/>
</g>
<rect x="88.3392334" y="129.7213898" class="st2" width="26.6882915" height="2.2731762"/>
<g>
	<g>
		<path class="st7" d="M125.5430527,83.1298981c-1.0238113-1.4080658-2.6532364-2.2658234-4.5887985-2.4124908
			c-1.9790649-0.149498-4.0358429,0.4551392-5.7898636,1.7039108l-0.7250671-0.995842
			c1.9872284-1.4116898,4.3272552-2.0967941,6.5905533-1.9237671c2.3063507,0.1751556,4.2624512,1.2128677,5.503685,2.9235458
			L125.5430527,83.1298981z"/>
	</g>
	<g>
		<path class="st7" d="M76.7959366,83.1298981l-1.1010056-0.7184143c1.2632294-1.8707199,3.3260727-3.0478058,5.8052444-3.3170013
			c2.4342117-0.2617264,4.9890747,0.3869324,7.1945038,1.8264847l-0.734581,1.0881348
			c-1.9501495-1.2718811-4.1951447-1.84655-6.3241959-1.616806C79.5548706,80.6172485,77.8372726,81.5896072,76.7959366,83.1298981z
			"/>
	</g>
</g>
<path class="st8" d="M102.4221649,56.4787827c13.5323486,0,25.0549316-4.9663696,29.4105835-11.9158936
	c-6.3748779-5.401123-16.2606201-9.8549194-31.585083-9.8549194c-12.7548828,0-21.7532959,3.2991333-28.1123657,8.2213745
	C75.6074066,50.7213974,87.8509369,56.4787827,102.4221649,56.4787827z"/>
<path class="st8" d="M62.1443291,60.7912827c-0.1538696-1.428833-0.3334351-2.8326416-0.5317383-4.2133179
	c-3.6883545,8.2718506-4.4116821,17.1134644-4.4116821,23.0629883c0,5.3894653,0,11.552124,0,17.1275024
	C61.8272514,93.0423813,64.0182343,78.1949692,62.1443291,60.7912827z"/>
<path class="st8" d="M140.1895599,55.0756454c-0.3624878,2.0723267-0.6806641,4.2088013-0.9418945,6.4013062
	c-1.9935303,16.7312012-0.1956787,31.1328125,4.0282593,35.5529785c-0.039856-17.2449951-0.149353-33.5198364-0.149353-33.5198364
	S142.6173553,59.8141098,140.1895599,55.0756454z"/>
</svg>
